<?xml version="1.0" standalone="no"?><!DOCTYPE svg PUBLIC "-//W3C//DTD SVG 1.1//EN" "http://www.w3.org/Graphics/SVG/1.1/DTD/svg11.dtd" ><svg xmlns="http://www.w3.org/2000/svg"><metadata></metadata><defs><font id="fonteditor" horiz-adv-x="1800"><font-face font-family="Hanyi Senty Tang lINêe°UgOS" font-weight="400" font-stretch="normal" units-per-em="2048" panose-1="2 0 5 0 0 0 0 0 0 0" ascent="1700" descent="-700" x-height="0" bbox="-156 -803 1887 1672" underline-thickness="150" underline-position="-217" unicode-range="U+0027-ff0d" /><missing-glyph horiz-adv-x="1500" d="M338 0 L338 1434 L1162 1434 L1162 0 L338 0 ZM388 50 L1112 50 L1112 1384 L388 1384 L388 50 ZM563 1148 Q594 1176 621 1191 Q674 1221 733 1221 Q825 1221 881 1173.5 Q937 1126 937 1046 Q937 997 914 947.5 Q891 898 827 818 Q764 738 728 686 Q692 634 692 587 Q692 549 716 454 L684 454 Q649 551 649 602 Q649 678 730.5 820 Q812 962 812 1037 Q812 1094 779 1127 Q746 1160 688 1160 Q650 1160 619 1143 Q593 1128 563 1103 L563 1148 ZM627 334 L684 392 Q695 402 704 402 Q714 402 726 391 L782 331 Q791 320 791 311 Q791 300 781 289 L725 227 Q711 213 704 213 Q693 213 684 223 L623 294 Q616 303 616 312 Q616 322 627 334 Z" /><glyph glyph-name="quotesingle" unicode="&#39;" d="M137 1108 L107 1108 L45 1467 Q41 1490 41 1500 Q41 1537 61.5 1557 Q82 1577 121 1577 Q160 1577 181.5 1557.5 Q203 1538 203 1501 Q203 1493 199 1467 L137 1108 Z" /><glyph glyph-name="parenleft" unicode="(" d="M196 601 Q198 878 295.5 1131 Q393 1384 564 1573 L644 1573 Q472 1331 414 1135 Q357 942 357 612 L357 590 Q357 260 414 68 Q472 -128 644 -370 L564 -370 Q393 -181 295.5 71.5 Q198 324 196 601 Z" /><glyph glyph-name="parenright" unicode=")" d="M68 -370 L-12 -370 Q160 -128 218 68 Q275 260 275 590 L275 612 Q275 942 218 1135 Q160 1331 -12 1573 L68 1573 Q239 1384 336.5 1131 Q434 878 436 601 Q434 324 336.5 71.5 Q239 -181 68 -370 Z" /><glyph glyph-name="comma" unicode="," d="M199 258 Q243 258 287.5 192.5 Q332 127 332 41 Q332 -68 261 -185.5 Q190 -303 122 -303 L122 -260 Q195 -217 209 -70 Q209 49 80 91 L80 133 L199 258 Z" /><glyph glyph-name="hyphen" unicode="-­" d="M166 409 Q126 409 126 437 L126 520 Q126 549 167 549 L523 549 Q564 549 564 520 L564 437 Q564 409 524 409 L166 409 Z" /><glyph glyph-name="zero" unicode="0" d="M415 936 L427 936 Q755 782 755 544 L755 524 Q755 312 503 80 Q408 3 351 0 L327 0 Q212 0 147 168 Q135 219 135 264 L135 328 Q135 503 263 716 L263 724 Q231 734 231 744 Q280 848 415 936 ZM315 696 Q259 557 259 456 L259 408 Q259 220 435 156 L467 156 Q524 156 539 196 Q579 292 579 364 L579 388 Q579 534 411 652 Q342 696 315 696 Z" /><glyph glyph-name="one" unicode="1" d="M763 1152 L767 1144 L767 1132 Q679 909 611 612 Q579 438 555 200 Q532 127 371 8 Q371 0 351 0 L347 0 Q340 0 335 20 Q378 459 475 732 Q511 833 551 928 Q348 793 127 668 L123 668 Q115 668 115 676 Q152 786 371 904 Q601 1042 751 1152 L763 1152 Z" /><glyph glyph-name="four" unicode="4" d="M678 1120 L682 1112 Q642 907 598 448 Q782 459 782 472 L786 464 L786 456 Q750 369 630 296 Q578 296 578 268 Q562 123 530 88 Q450 0 418 0 L414 0 Q406 0 406 12 Q406 37 414 284 Q418 284 418 288 Q78 302 78 356 Q92 419 418 848 Q512 987 538 1016 Q632 1120 678 1120 ZM210 480 Q210 444 394 444 L422 444 Q422 528 462 820 Q302 620 210 480 Z" /><glyph glyph-name="eight" unicode="8" d="M573 1024 L585 1024 Q678 1024 701 932 L701 916 Q701 821 541 664 L485 604 Q681 438 681 316 L681 300 Q681 195 465 40 Q381 0 329 0 L313 0 Q189 0 153 132 Q149 147 149 168 L149 176 Q149 303 305 488 Q213 588 213 676 Q213 799 461 988 Q534 1024 573 1024 ZM361 796 Q367 733 429 664 Q455 692 537 732 Q545 750 545 772 Q545 843 449 864 L437 864 Q361 864 361 812 L361 796 ZM313 324 L313 296 Q313 208 437 160 L457 156 Q494 160 525 168 L525 172 Q525 282 349 444 Q313 389 313 324 Z" /><glyph glyph-name="colon" unicode=":" d="M146 167 L228 251 Q243 265 257 265 Q270 265 288 249 L368 163 Q380 147 380 134 Q380 119 366 103 L286 15 Q266 -5 257 -5 Q241 -5 228 9 L140 110 Q130 123 130 136 Q130 151 146 167 ZM146 860 L228 944 Q243 958 257 958 Q270 958 288 942 L368 856 Q380 840 380 827 Q380 812 366 796 L286 708 Q266 688 257 688 Q241 688 228 702 L140 803 Q130 816 130 829 Q130 844 146 860 Z" /><glyph glyph-name="A" unicode="a" d="M436 1112 L448 1112 Q541 1112 592 672 Q656 373 724 252 Q756 180 812 180 Q828 180 828 172 Q767 62 640 0 L632 0 Q598 0 572 112 Q524 215 464 448 Q387 416 356 416 L320 416 Q220 416 220 460 L216 460 Q120 131 100 116 Q100 110 76 92 L64 92 L64 96 Q202 580 368 912 Q348 976 312 976 Q308 976 256 956 L252 956 L252 960 Q318 1063 412 1108 L436 1112 ZM228 496 L232 496 Q315 532 352 532 L364 532 Q390 532 444 528 L444 532 Q412 741 384 876 Q374 872 268 608 L228 496 Z" /><glyph glyph-name="F" unicode="f" d="M317 1300 Q325 1287 325 1276 Q325 1246 321 1136 Q430 1208 669 1208 L697 1208 Q1041 1189 1041 1176 L1041 1164 Q992 1095 929 1068 L929 1080 L909 1076 L837 1076 Q757 1076 541 1132 Q503 1136 469 1136 L441 1136 Q317 1128 317 1096 L317 880 Q313 760 313 676 Q384 716 777 716 Q777 720 889 720 L893 712 Q893 691 813 632 L809 632 L809 640 L813 648 Q791 644 781 644 Q666 644 409 648 Q386 648 305 632 Q301 538 301 492 L301 352 Q301 125 129 0 L125 0 L125 4 Q153 58 165 284 Q213 1081 237 1212 L229 1212 Q166 1168 149 1168 L145 1176 Q288 1288 317 1300 Z" /><glyph glyph-name="I" unicode="i" d="M336 1048 Q342 1048 348 1032 Q324 890 324 336 Q312 184 300 164 Q312 164 312 156 L312 148 Q183 0 144 0 L140 8 Q188 218 188 800 Q191 800 204 920 Q180 933 180 964 Q180 978 320 1048 L336 1048 Z" /><glyph glyph-name="Q" unicode="q" d="M548 1184 L552 1184 Q769 1184 872 952 Q936 830 936 664 Q936 516 844 412 Q962 333 1100 216 Q1190 160 1284 132 Q1304 116 1304 112 L1304 108 Q1220 0 1144 0 Q1048 0 788 236 L700 288 Q585 224 472 224 Q218 224 116 464 Q100 530 100 588 Q100 816 232 972 Q369 1184 548 1184 ZM180 684 Q180 422 460 336 Q517 328 540 328 L560 328 Q692 328 792 404 Q820 480 820 564 Q820 806 632 984 Q538 1044 448 1044 L408 1044 Q309 1044 288 992 Q180 904 180 684 Z" /><glyph glyph-name="S" unicode="s" d="M509 1064 L541 1064 Q728 1064 793 964 Q793 955 797 948 Q797 919 721 860 Q655 825 613 796 Q605 796 605 804 Q614 827 685 880 Q590 940 425 940 Q185 915 185 848 Q165 826 165 772 Q165 674 509 612 Q716 559 809 460 Q841 405 841 352 L841 324 Q841 201 621 48 Q523 0 441 0 L405 0 Q234 0 189 240 Q231 287 241 288 L245 288 Q328 142 413 120 Q456 108 485 108 L505 108 Q615 108 713 168 Q729 218 729 256 Q729 471 245 568 Q65 612 65 696 L65 708 Q65 835 289 996 Q406 1064 509 1064 Z" /><glyph glyph-name="T" unicode="t" d="M140 1144 Q140 1140 144 1140 Q137 1123 120 1104 L120 1100 Q270 1124 472 1124 Q510 1124 988 1092 L1052 1092 Q1080 1092 1140 1096 Q1140 1049 1012 988 Q957 972 912 972 L864 972 Q772 972 580 1000 L580 996 Q580 888 584 712 Q584 678 580 468 Q586 108 608 108 Q608 77 512 4 Q504 0 500 0 L496 8 Q496 21 504 80 Q480 343 464 908 Q455 950 440 984 L452 1008 L452 1012 Q274 1020 148 1020 Q74 1020 0 996 L-4 1004 Q-4 1024 132 1144 L140 1144 Z" /><glyph glyph-name="V" unicode="v" d="M896 1128 Q932 1115 932 1056 Q932 979 744 360 Q691 235 652 160 L656 140 Q656 92 532 4 L516 0 Q500 27 360 396 Q160 821 88 956 Q80 960 76 960 Q27 928 20 928 Q16 936 16 940 Q69 1035 188 1088 L192 1088 Q225 1088 280 960 Q475 607 608 268 Q616 247 616 244 L620 244 Q656 355 824 956 Q819 983 776 1036 Q776 1075 864 1124 Q886 1128 896 1128 ZM1168 948 L1176 948 L1176 932 Q1176 924 1168 924 L1164 924 L1164 928 L1168 948 Z" /><glyph glyph-name="a" unicode="a" d="M624 720 Q731 720 756 580 Q824 305 888 144 Q858 73 756 4 Q749 0 740 0 Q712 48 636 252 Q551 171 356 64 Q289 40 252 40 L236 40 Q147 40 112 132 Q100 161 100 212 L100 224 Q100 454 456 668 Q556 720 624 720 ZM264 324 Q279 184 384 184 Q464 184 620 288 Q553 516 504 516 Q501 526 452 532 Q280 503 280 444 Q264 388 264 324 Z" /><glyph glyph-name="b" unicode="b" d="M385 1488 L393 1476 L393 1460 Q393 1429 337 836 L313 548 L313 544 L317 544 Q404 686 545 736 L573 740 Q733 714 733 532 L733 516 Q733 313 385 88 Q221 0 165 0 L161 0 Q153 0 153 8 Q209 109 297 152 Q569 252 569 308 Q589 363 589 416 Q589 585 453 612 Q402 612 389 564 Q289 418 289 184 Q212 76 173 76 Q165 88 165 104 Q181 282 209 784 L257 1344 L253 1344 Q149 1264 133 1264 Q125 1264 125 1272 Q155 1339 305 1444 Q357 1488 385 1488 Z" /><glyph glyph-name="c" unicode="c" d="M520 688 Q592 688 616 640 Q640 593 652 524 Q617 442 500 364 L488 364 Q483 364 452 468 Q415 512 376 512 L368 512 Q296 512 296 460 Q280 421 280 360 Q280 241 424 188 Q481 168 572 168 L652 168 Q660 167 660 160 Q575 0 372 0 Q152 0 108 144 Q100 182 100 204 L100 208 Q100 437 412 656 Q487 688 520 688 Z" /><glyph glyph-name="e" unicode="e" d="M528 624 Q600 617 600 560 Q532 377 332 272 Q288 256 280 256 Q373 156 496 156 L524 156 Q604 156 680 228 Q693 236 700 236 Q704 228 704 224 Q653 136 520 44 Q458 0 376 0 Q220 0 120 136 Q100 185 100 228 L100 236 Q100 379 340 552 Q453 624 528 624 ZM248 360 L248 332 L296 364 L316 360 Q456 381 456 428 Q440 472 396 472 Q327 472 260 424 Q248 398 248 360 Z" /><glyph glyph-name="g" unicode="g" d="M512 559 Q592 559 644 459 Q652 420 652 415 Q652 325 420 115 L420 111 Q570 58 628 -61 Q672 -180 672 -305 Q672 -447 464 -577 Q399 -609 340 -609 Q229 -609 116 -465 Q88 -404 88 -369 Q88 -276 156 -241 Q172 -318 212 -369 Q336 -493 452 -493 Q544 -482 544 -461 Q548 -445 548 -429 L548 -405 Q548 -236 444 -109 Q400 -52 168 35 Q96 75 96 151 Q96 294 372 511 Q459 559 512 559 ZM240 251 Q240 183 392 127 L392 131 Q516 244 516 263 Q516 272 520 279 Q520 352 380 395 L372 395 Q244 395 244 279 Q240 279 240 251 Z" /><glyph glyph-name="h" unicode="h" d="M347 1300 L359 1300 Q394 1300 403 1156 L403 1144 Q403 965 335 504 L335 500 L339 500 Q480 668 615 668 L627 668 Q763 668 763 480 L763 456 Q738 115 695 44 Q624 -71 507 -232 Q477 -277 427 -380 Q402 -404 391 -404 Q391 -400 387 -400 Q394 -337 519 -132 Q575 -83 575 124 Q595 251 595 344 L595 372 Q595 511 491 540 L475 540 Q377 540 343 428 Q304 370 275 132 Q275 105 159 12 L147 12 Q147 16 143 16 L227 744 Q243 930 243 992 L243 996 Q243 1140 199 1140 Q193 1140 163 1132 Q159 1140 159 1144 Q205 1235 303 1292 Q319 1300 347 1300 Z" /><glyph glyph-name="i" unicode="i" d="M373 936 L385 936 Q421 936 453 900 Q453 859 313 752 Q309 752 301 748 Q274 752 257 752 Q223 752 169 740 L165 748 Q190 827 317 916 Q353 936 373 936 ZM285 656 L301 656 Q345 656 345 336 L345 316 Q345 214 457 152 L457 144 Q423 76 325 4 L305 0 L285 0 Q161 0 161 200 L161 344 Q161 452 125 480 L125 484 Q157 572 285 656 Z" /><glyph glyph-name="k" unicode="k" d="M401 1448 L405 1440 L405 1284 Q405 912 269 152 Q243 82 141 12 L133 12 Q125 12 125 24 Q125 185 189 744 Q205 923 209 1168 Q205 1231 205 1260 Q279 1396 397 1448 L401 1448 ZM617 908 Q725 867 725 760 L725 748 Q724 676 553 464 L553 460 Q560 401 741 200 Q749 174 749 164 Q680 48 585 4 Q578 0 565 0 L561 0 Q515 0 457 108 Q384 210 373 288 L373 308 Q373 340 521 516 Q553 576 553 600 L553 616 Q553 677 489 724 Q454 741 453 748 Q484 819 593 900 Q606 908 617 908 Z" /><glyph glyph-name="l" unicode="l" d="M349 1464 Q406 1464 417 1272 L417 1256 Q417 1056 309 208 L309 152 Q309 101 177 4 Q170 0 161 0 Q153 0 153 8 Q153 236 233 1076 L233 1120 Q231 1269 181 1288 Q154 1284 137 1284 L133 1284 Q125 1284 125 1292 Q185 1405 293 1460 Q327 1464 349 1464 Z" /><glyph glyph-name="m" unicode="m" d="M278 736 Q387 736 418 544 L426 484 Q560 596 618 596 L638 596 Q720 596 758 436 L766 436 Q906 608 1054 608 Q1130 608 1158 532 Q1190 427 1190 216 L1190 176 Q1190 78 1050 0 Q1039 0 1026 340 Q999 464 942 464 L914 464 Q818 464 818 396 Q802 375 782 220 Q673 84 630 84 L626 84 Q626 358 530 432 Q508 444 494 444 Q446 444 446 400 Q442 395 434 340 Q438 284 438 232 Q438 161 250 20 L234 20 Q221 20 214 268 Q195 418 158 472 Q113 520 74 520 L74 528 Q96 608 250 724 L278 736 Z" /><glyph glyph-name="n" unicode="n" d="M318 664 L338 664 Q408 664 434 460 L438 460 Q493 528 558 564 Q628 600 674 600 L694 600 Q814 600 814 308 Q814 49 710 8 Q710 0 694 0 Q676 0 650 364 Q619 472 558 472 L554 472 Q470 472 470 412 Q438 344 438 240 Q310 76 258 76 Q250 76 250 84 Q250 465 154 476 L54 444 L50 452 Q50 501 202 624 Q270 655 318 664 Z" /><glyph glyph-name="o" unicode="o" d="M380 600 Q449 580 556 400 Q580 343 580 300 Q580 178 356 20 Q298 0 272 0 L232 0 Q60 21 60 112 L60 124 Q60 211 240 384 Q200 414 196 432 Q232 525 356 600 L380 600 ZM288 344 Q231 284 204 284 Q196 251 196 248 Q223 156 372 156 L384 156 Q404 156 404 164 Q394 235 288 344 Z" /><glyph glyph-name="p" unicode="p" d="M555 680 L571 680 Q641 680 755 536 Q771 496 771 468 L771 464 Q771 292 507 88 Q426 44 363 44 L347 44 Q319 44 319 64 L311 64 Q271 -381 259 -400 Q222 -473 127 -536 L115 -536 Q112 -536 103 -524 Q171 105 171 244 Q171 411 99 464 Q54 480 47 480 Q9 476 -25 476 Q-33 476 -33 484 Q23 593 135 652 Q142 652 207 656 Q295 656 331 552 L331 540 Q505 680 555 680 ZM339 496 Q343 456 343 436 Q343 302 315 80 L315 76 L319 76 Q319 101 419 184 L467 180 Q587 196 587 232 Q603 282 603 316 L603 320 Q603 398 443 548 L427 548 Q405 548 339 496 Z" /><glyph glyph-name="r" unicode="r" d="M268 672 Q352 626 352 504 Q356 504 356 472 Q482 584 564 584 L576 584 Q660 584 700 524 L700 520 Q670 441 556 368 L548 368 Q539 370 508 432 Q476 460 448 460 Q380 460 380 412 Q356 367 344 172 Q282 74 196 20 Q196 11 160 0 Q156 8 156 12 Q176 191 176 264 Q176 421 120 472 Q92 489 92 496 Q136 595 260 672 L268 672 Z" /><glyph glyph-name="s" unicode="s" d="M400 624 Q507 624 548 556 L548 540 Q495 457 416 408 L404 408 Q350 476 268 476 L244 476 L244 472 Q244 412 432 344 Q524 279 524 212 Q524 148 364 32 Q313 0 244 0 L236 0 Q88 0 88 84 Q88 117 200 204 Q207 208 216 208 Q262 144 356 144 L372 144 Q372 194 156 284 Q112 325 112 360 Q112 441 308 596 Q367 624 400 624 Z" /><glyph glyph-name="t" unicode="t" d="M462 792 Q466 784 466 780 Q430 594 430 576 Q434 576 434 580 Q535 584 594 584 L662 584 Q668 584 674 572 L674 568 Q674 522 522 404 Q486 376 414 376 L406 376 Q393 376 390 252 Q390 143 510 96 L510 88 Q475 31 422 0 Q266 0 266 168 Q266 264 282 368 Q204 368 42 340 L38 348 L38 352 Q92 472 234 552 Q318 564 318 572 Q331 675 358 708 Q438 788 462 792 Z" /><glyph glyph-name="u" unicode="u" d="M324 656 L328 656 Q380 656 380 516 L380 448 Q380 410 376 356 Q376 228 468 228 Q547 228 628 300 Q659 344 740 512 Q811 580 820 580 L824 580 Q832 579 832 572 Q812 452 812 396 Q812 248 864 152 Q831 70 720 0 L712 0 Q672 0 672 84 Q672 131 684 276 Q426 24 292 24 L280 24 Q176 24 176 156 Q184 283 184 360 Q184 436 148 464 Q109 448 100 448 Q92 448 92 456 Q92 504 248 632 Q308 656 324 656 Z" /><glyph glyph-name="y" unicode="y" d="M572 669 Q628 613 668 509 Q676 494 676 477 L676 461 Q676 438 552 205 Q465 42 412 -155 Q364 -336 364 -695 Q364 -756 284 -803 Q272 -791 272 -727 L272 -639 Q272 -199 452 157 Q524 305 524 329 Q524 367 440 513 L436 513 Q237 220 132 105 Q78 57 56 57 Q42 57 28 297 Q-6 497 -64 497 L-72 497 Q-87 497 -152 473 L-156 481 Q-67 625 48 625 L56 625 Q153 625 172 233 L172 221 Q341 452 456 581 Q540 669 572 669 Z" /><glyph glyph-name="z" unicode="z" d="M332 736 Q354 736 520 676 Q636 662 636 640 Q636 599 392 336 L220 124 L220 120 Q315 132 364 132 L560 132 Q623 132 696 200 Q711 212 724 212 Q728 204 728 200 Q672 111 548 28 Q491 0 468 0 Q291 24 244 24 Q232 24 120 16 L112 28 L112 32 Q150 122 468 492 L468 496 Q349 496 216 584 L192 588 Q178 588 76 512 L68 512 L64 520 Q105 618 300 728 Q321 736 332 736 Z" /><glyph glyph-name="uni7231" unicode="&#x7231;" d="M516 1232 Q516 1232 516 1231 Q516 1232 516 1232 Q516 1232 516 1232 ZM424 1044 Q412 1059 392 1077.5 Q372 1096 355.5 1110 Q339 1124 336 1125 Q362 1127 403 1151 Q444 1175 477.5 1200 Q511 1225 516 1231 Q516 1225 511 1199 Q505 1169 500 1124.5 Q495 1080 498 1034 Q498 1027 483 1026.5 Q468 1026 450 1030.5 Q432 1035 424 1044 ZM864 1288 Q865 1288 864 1287 Q864 1287 864 1288 ZM689 1262 Q725 1242 764 1247 Q803 1252 831 1266 Q859 1280 864 1287 Q863 1282 858 1267 Q847 1239 837.5 1196 Q828 1153 840 1119 Q841 1115 820 1120 Q799 1125 770 1134.5 Q741 1144 717.5 1154 Q694 1164 689 1170 Q680 1185 682 1209 Q684 1233 687 1250 Q690 1262 689 1262 ZM870 1136 Q890 1143 920 1171.5 Q950 1200 980.5 1235.5 Q1011 1271 1032 1299 Q1053 1327 1055 1333 Q1056 1336 1057.5 1342 Q1059 1348 1059.5 1354 Q1060 1360 1059 1363 Q1058 1370 1058 1382 Q1059 1391 1058 1397 Q1073 1392 1106.5 1371.5 Q1140 1351 1175 1323.5 Q1210 1296 1229 1271.5 Q1248 1247 1234 1234 Q1232 1229 1224 1227.5 Q1216 1226 1205 1226 Q1186 1226 1166 1220 Q1047 1182 966 1160 Q885 1138 870 1136 ZM987 1406 Q957 1415 871.5 1397.5 Q786 1380 627 1308 L493 1358 Q590 1388 652 1407 Q714 1426 749.5 1437.5 Q785 1449 803 1455 Q821 1461 829.5 1465 Q838 1469 846 1472 Q854 1476 869.5 1483 Q885 1490 918 1503 Q927 1506 948.5 1503.5 Q970 1501 994 1495.5 Q1018 1490 1035.5 1485.5 Q1053 1481 1053 1481 Q1054 1478 1054 1470 Q1054 1462 1054 1457 Q1053 1454 1053 1453 Q1053 1451 1051.5 1446.5 Q1050 1442 1048.5 1437 Q1047 1432 1046 1430 Q1042 1426 1040 1421 Q1037 1414 1032.5 1409.5 Q1028 1405 1017.5 1403.5 Q1007 1402 987 1406 ZM166 771 Q187 786 213 800 Q238 813 260.5 828 Q283 843 297.5 863.5 Q312 884 312 914 L280 975 Q281 978 294 978.5 Q307 979 325 976.5 Q343 974 357.5 969 Q372 964 377 958 Q423 970 480 985 Q619 1022 819.5 1068.5 Q1020 1115 1272 1154 Q1280 1158 1293 1164 Q1305 1169 1315 1173.5 Q1325 1178 1325 1179 Q1376 1169 1400 1146 Q1424 1123 1439 1095 Q1448 1081 1459 1066 Q1470 1047 1479 1031 Q1497 1000 1507.5 980 Q1518 960 1518 945 Q1504 914 1468 910 Q1432 906 1395 926 Q1364 944 1339.5 944.5 Q1315 945 1289 939 Q1248 927 1174 937 Q1207 965 1250 1024 Q1263 1042 1277 1060 Q1272 1061 1268 1061 Q1264 1061 1261.5 1061.5 Q1259 1062 1257 1062 Q1255 1062 1253.5 1062 Q1252 1062 1251 1062 Q1250 1062 1250 1062 Q1251 1062 1250.5 1061.5 Q1250 1061 1249 1061 Q1248 1061 1246 1061 Q1244 1061 1241 1061 L1165 1060 Q1061 1057 913.5 1026 Q766 995 594 951 Q506 929 416 907 Q412 891 405 871 Q398 851 390.5 832 Q383 813 377.5 800.5 Q372 788 372 788 Q335 717 301 686 Q267 655 231 648 Q203 679 184.5 713 Q166 747 166 771 ZM987 251 Q1121 155 1291.5 79.5 Q1462 4 1679 -33 Q1647 -39 1560.5 -62.5 Q1474 -86 1390.5 -123 Q1307 -160 1281 -207 Q1162 -154 1056.5 -65.5 Q951 23 863 125 Q736 9 603 -59.5 Q470 -128 358 -118 Q438 -89 553.5 6.5 Q669 102 781 221 Q718 300 667 368 Q654 385 642 401 Q535 277 404 185 Q273 93 120 48 Q225 101 345 222.5 Q465 344 572 489 Q560 503 549 514 Q535 529 507 548 Q487 562 471.5 575.5 Q456 589 458 599 Q464 589 478.5 592 Q493 595 511 602 Q527 608 541.5 611.5 Q556 615 565 608 Q593 583 622 557 Q675 633 716 702 Q593 674 442 629 L347 677 Q592 737 754 772 Q773 808 785 838 Q794 862 782 883.5 Q770 905 756 921 Q747 931 743 938 Q739 945 743 948 Q781 978 833 977 Q885 976 920 953 Q955 930 941 893 Q923 848 902 803 Q929 809 954 814 Q1150 851 1278 892 Q1288 895 1303 889.5 Q1318 884 1332.5 875 Q1347 866 1357 858.5 Q1367 851 1367 851 Q1369 847 1368.5 837.5 Q1368 828 1368 821 Q1367 817 1367 816 Q1367 814 1365.5 808.5 Q1364 803 1362 797 Q1360 791 1358 789 Q1354 783 1351 778 Q1348 769 1342 763.5 Q1336 758 1323.5 757.5 Q1311 757 1286 764 Q1261 772 1159 770 Q1057 768 869 735 Q800 602 707 480 Q787 406 880 331 Q978 445 1018 521 Q1019 526 1002.5 524.5 Q986 523 963.5 518 Q941 513 922.5 507 Q904 501 904 496 Q893 510 874 527.5 Q855 545 838 560 Q819 576 815 580 Q843 589 880 600 Q927 614 964.5 627 Q1002 640 1002 648 Q1028 650 1074.5 630.5 Q1121 611 1152.5 578 Q1184 545 1167 506 Q1102 380 987 251 Z" /><glyph glyph-name="uni767D" unicode="&#x767d;" d="M725 1259 Q982 1211 982 1075 Q981 1047 689 826 L701 827 Q1111 871 1111 910 Q1174 991 1240 994 Q1353 951 1462 843 Q1392 721 1392 251 L1392 126 Q1391 110 1275 42 Q1200 40 1088 172 L1017 169 Q727 159 525 72 L514 72 Q436 69 350 179 Q373 309 373 361 L373 645 L350 633 L338 632 L338 643 L373 690 L373 860 Q373 880 432 896 Q489 876 572 879 Q725 1130 725 1202 L701 1246 L725 1259 ZM596 687 L607 631 L607 529 L619 506 Q966 553 1017 600 Q1092 573 1099 546 L1099 501 L1064 454 L1006 464 L924 461 Q812 457 619 427 Q619 234 678 236 Q868 243 1123 286 L1123 785 Q793 773 596 687 Z" /><glyph glyph-name="uni4F34" unicode="&#x4f34;" d="M1100 1372 Q1181 1375 1236 1288 Q1228 1028 1229 932 L1239 932 L1433 989 Q1535 974 1535 933 Q1535 924 1495 872 L1372 878 L1230 872 L1231 635 Q1397 666 1466 723 Q1531 699 1619 630 L1620 620 Q1620 590 1579 589 Q1538 587 1456 604 L1232 576 L1233 388 Q1237 -69 1112 -90 Q1085 -91 1059 105 Q1068 281 1067 402 L1066 541 L1056 540 Q1038 540 852 484 Q716 518 698 517 L698 537 Q1065 594 1065 620 L1063 847 L839 790 L727 815 L726 835 L737 835 Q1048 869 1063 906 Q1062 945 1049 1321 Q1067 1371 1100 1372 ZM385 1317 Q620 1285 620 1177 Q620 1068 528 946 L538 927 Q518 852 518 788 L518 521 Q518 358 538 77 Q483 45 446 44 Q365 74 324 119 Q344 152 344 179 L344 762 L191 648 L181 647 L181 657 Q395 974 395 1199 L395 1248 Q385 1291 385 1317 ZM1369 1322 L1379 1323 Q1594 1261 1595 1143 L1595 1123 Q1596 1034 1545 1032 Q1486 1030 1420 1245 L1369 1313 L1369 1322 ZM805 1253 Q847 1241 866 1206 L868 1067 L878 1068 Q974 1141 979 1141 L990 1121 Q982 1121 899 1019 L899 999 Q899 982 930 912 Q920 911 920 901 Q746 986 745 1103 L745 1112 Q744 1188 805 1253 Z" /><glyph glyph-name="uni724C" unicode="&#x724c;" d="M1106 1441 Q1213 1445 1262 1296 Q1210 1176 1161 1174 L1161 1163 L1184 1164 Q1369 1171 1451 1281 Q1463 1282 1484 1293 Q1629 1223 1629 1191 Q1595 1028 1595 920 L1595 694 Q1537 627 1484 625 Q1374 708 1362 707 Q1344 706 1228 691 L1373 600 Q1351 518 1351 448 L1351 427 Q1512 454 1651 491 Q1721 472 1729 440 Q1729 382 1684 363 Q1569 391 1451 387 Q1437 387 1339 372 Q1339 108 1395 -132 L1373 -144 L1351 -144 Q1288 -147 1184 -97 L1195 -21 L1195 346 L894 270 Q817 293 817 310 Q961 359 1195 399 L1195 529 L1184 658 Q1206 669 1217 670 L1217 680 L1184 679 Q958 348 828 343 Q1004 531 1028 630 L1017 630 L983 607 L972 607 Q929 605 850 667 Q872 754 872 851 L872 991 L850 990 L850 1001 L872 1034 L872 1153 Q876 1174 894 1175 L928 1176 L1006 1168 Q1117 1353 1117 1409 Q1106 1430 1106 1441 ZM561 1292 L605 1294 Q694 1246 694 1232 Q661 1137 661 1016 L661 919 Q676 919 739 965 Q810 939 817 914 L817 903 Q817 870 772 869 Q569 861 449 803 Q430 813 405 812 L405 802 Q394 707 394 694 L405 694 Q520 728 605 777 Q632 778 750 728 Q739 653 739 609 Q739 462 728 81 Q661 14 616 12 Q527 88 527 127 Q583 129 583 474 L583 668 Q383 661 383 575 Q331 196 227 192 Q207 180 182 180 Q157 246 71 326 L71 337 Q227 343 227 731 Q238 797 238 1011 L238 1130 Q238 1146 271 1163 Q320 1165 416 1093 L405 985 L405 866 L572 894 L572 905 L505 913 L516 989 L516 1247 Q516 1265 561 1292 ZM1262 1113 L1295 1071 L1295 1006 L1284 984 L1339 997 Q1384 983 1384 966 L1384 934 L1362 901 L1306 910 L1284 909 Q1266 908 1217 756 L1228 756 Q1253 757 1395 784 L1395 1139 Q1289 1114 1262 1113 ZM1028 1029 Q1039 935 1039 922 Q1161 926 1161 980 L1173 1088 L1161 1088 Q1028 1083 1028 1029 ZM1050 857 L1061 728 L1084 729 Q1128 872 1128 882 Q1072 858 1050 857 Z" /><glyph glyph-name="uni6BD5" unicode="&#x6bd5;" d="M947 1574 Q1137 1541 1137 1489 Q1137 1375 1095 1130 Q1284 1307 1284 1433 Q1274 1433 1274 1443 Q1284 1443 1284 1454 Q1388 1417 1411 1346 Q1411 1245 1095 1100 L1095 1089 Q1095 865 1200 869 Q1217 859 1253 860 L1305 862 Q1432 867 1432 1102 L1453 1102 Q1453 1006 1537 881 L1537 871 Q1537 766 1379 743 L1284 739 Q1067 731 1000 872 Q981 920 968 993 Q979 1064 979 1106 L979 1187 Q979 1282 989 1453 Q947 1551 947 1574 ZM536 1416 Q616 1419 662 1370 L662 1339 L652 1267 L662 1268 Q769 1272 842 1335 Q856 1336 894 1286 Q894 1258 873 1224 L820 1233 Q652 1227 652 1196 L652 992 L662 972 L915 1103 L915 1093 Q677 752 631 736 Q578 734 441 821 L441 831 Q515 904 515 946 L515 1058 Q515 1279 483 1363 Q502 1415 536 1416 ZM884 796 Q1052 752 1052 659 L1052 608 Q1270 647 1495 706 Q1611 680 1611 649 L1611 629 Q1611 574 1558 545 Q1371 559 1337 557 Q1259 555 1042 526 L1042 465 Q1042 300 1052 220 Q1052 -206 926 -274 Q873 -276 852 -42 L852 81 Q852 232 842 488 Q573 438 314 357 Q188 396 188 414 L188 424 Q797 558 842 560 L842 570 L831 733 Q846 776 884 796 Z" /><glyph glyph-name="uni8D07" unicode="&#x8d07;" d="M1232 1560 Q1305 1521 1305 1501 L1295 1440 Q1316 1313 1316 1288 Q1328 1288 1537 1347 Q1586 1329 1590 1308 L1590 1287 Q1590 1273 1558 1255 L1506 1254 Q1450 1252 1327 1237 Q1424 687 1537 612 L1569 613 Q1611 635 1611 676 L1632 676 Q1632 653 1622 635 Q1632 565 1632 523 L1632 503 Q1632 437 1569 409 Q1388 402 1295 807 L1284 807 Q1284 745 1263 745 L1211 743 Q1078 738 757 614 Q743 614 726 644 Q799 670 799 687 L778 696 L789 768 L789 809 Q789 863 778 982 L799 993 L831 994 Q894 990 894 966 L894 813 L905 711 Q958 713 958 795 L958 989 L947 1111 L1000 1154 L1010 1154 Q1055 1128 1105 1086 Q1095 1086 1095 984 L1168 1027 L1179 1027 Q1195 1028 1211 998 L1211 978 Q1211 957 1179 956 L1158 965 Q1104 943 1074 942 L1074 768 Q1244 836 1263 837 Q1267 816 1284 817 L1284 827 Q1211 1162 1211 1212 Q1107 1208 715 1092 Q681 1111 662 1111 L662 1131 Q1197 1255 1200 1273 L1158 1465 Q1197 1545 1232 1560 ZM1327 1553 Q1516 1509 1516 1417 L1516 1397 Q1516 1376 1495 1376 L1485 1375 Q1428 1373 1348 1523 Q1327 1523 1327 1543 L1327 1553 ZM441 1439 L452 1440 Q525 1398 525 1340 Q525 1244 251 1198 L251 1218 Q441 1318 441 1439 ZM1021 1450 L1031 1451 Q1137 1442 1137 1414 L1137 1403 Q1137 1383 1105 1382 Q1079 1381 1021 1389 L768 1319 Q734 1338 715 1337 L715 1358 Q821 1361 1021 1450 ZM641 1273 L662 1274 Q677 1275 726 1215 L726 1205 Q726 1191 694 1173 L557 1168 L557 1158 Q614 1160 631 1120 L631 1069 Q631 1050 546 862 Q641 787 641 702 Q641 647 589 618 L568 617 Q491 675 473 757 Q274 566 262 565 L241 565 Q311 676 420 826 Q420 890 283 1036 Q293 1036 293 1046 Q349 1025 473 941 Q525 1033 546 1168 Q251 1100 251 1055 Q195 1053 167 1093 L167 1103 Q406 1165 641 1273 ZM1042 635 Q1158 588 1158 578 Q1126 428 1126 291 L1126 56 Q1084 3 1031 1 L1031 -9 Q1164 -29 1190 -156 L1190 -187 Q1190 -258 1137 -260 Q1080 -262 1010 -91 Q998 -90 926 8 L926 18 Q958 19 1010 1 L1021 1 L1021 11 Q1002 11 947 60 L937 59 Q852 56 747 32 Q831 -36 831 -47 L831 -77 Q713 -190 515 -252 Q705 -51 705 0 Q669 -1 589 47 Q599 149 599 200 L599 547 Q603 568 620 568 L715 572 L757 543 Q904 548 1031 634 L1042 635 ZM736 491 L736 389 L905 426 L926 426 Q947 424 947 407 L947 386 Q947 366 926 365 L842 362 L736 348 L747 256 Q789 258 926 294 L947 264 L947 243 Q947 223 926 222 Q918 222 863 230 Q763 216 747 205 Q755 179 768 84 L958 121 L958 529 L736 491 Z" /><glyph glyph-name="uni4E0D" unicode="&#x4e0d;" d="M1379 1110 Q1349 1117 1204 1108.5 Q1059 1100 821 1060.5 Q583 1021 273 935 L164 980 Q659 1095 952 1146 Q1220 1194 1369 1238 Q1381 1241 1398.5 1236 Q1416 1231 1432.5 1222 Q1449 1213 1460.5 1206 Q1472 1199 1472 1199 Q1474 1195 1473.5 1185.5 Q1473 1176 1472 1168 Q1472 1165 1472 1164 Q1472 1162 1470 1156 Q1468 1150 1465.5 1144.5 Q1463 1139 1461 1136 Q1457 1131 1454 1125 Q1449 1117 1442.5 1111 Q1436 1105 1422 1104.5 Q1408 1104 1379 1110 ZM976 285 Q976 268 984 254 Q994 234 1007 219 Q1025 197 1026 184 Q1025 183 1015 174 Q1005 165 989.5 150.5 Q974 136 956 120 Q930 96 910 77 Q890 58 890 58 Q852 63 828 93.5 Q804 124 794 145 Q790 154 789 154 Q786 156 774 168.5 Q762 181 745 198 Q728 216 714 230 Q700 244 698 245 Q700 245 706 245 Q719 245 740.5 247 Q762 249 781.5 259 Q801 269 809 292 Q810 298 811 353 Q812 408 812.5 487.5 Q813 567 813 646 Q585 521 410.5 469.5 Q236 418 169 408 Q149 405 144 403 Q329 469 505.5 581.5 Q682 694 813 801 Q813 845 812 848 Q810 851 805.5 862.5 Q801 874 796 888 Q791 902 788 912.5 Q785 923 785 924 Q816 905 849 893.5 Q882 882 905 878 Q1004 964 1017 980 Q1021 984 1024 987 Q1029 990 1031.5 994.5 Q1034 999 1034 1008.5 Q1034 1018 1030 1037 Q1087 1025 1113.5 987 Q1140 949 1152 913 Q1155 903 1159 896 Q1066 813 974 749 Q967 665 968.5 556.5 Q970 448 974 364 Q976 311 976 285 ZM1651 362 Q1655 345 1649 329.5 Q1643 314 1634 301 Q1632 298 1630 294 Q1625 285 1618 274.5 Q1611 264 1604 262 Q1545 250 1499 276 Q1453 302 1413 341 Q1406 346 1400 352 Q1382 367 1342 396 Q1302 425 1256 456 Q1210 487 1175 508.5 Q1140 530 1134 529 Q1201 536 1281.5 526.5 Q1362 517 1427.5 502.5 Q1493 488 1513 481 Q1522 478 1534 475 Q1553 471 1572.5 464 Q1592 457 1604 446 Q1616 432 1624 415 Q1633 399 1641 384 Q1648 374 1651 362 Z" /><glyph glyph-name="uni8FD8" unicode="&#x8fd8;" d="M487 1240 L508 1240 Q523 1241 551 1191 L551 1109 Q528 1046 201 1014 L201 1034 Q487 1163 487 1240 ZM582 1048 Q622 1039 688 980 Q688 874 434 663 L445 664 Q540 667 540 729 Q646 712 646 630 Q646 601 540 452 Q1173 136 1589 151 L1631 153 L1631 143 Q1631 118 1335 -12 Q1109 -20 625 291 Q511 400 477 398 Q279 227 127 180 L127 201 Q266 303 466 552 L508 635 L498 635 Q439 623 413 622 L360 630 Q283 555 233 554 Q432 763 540 924 L540 934 Q368 866 328 865 L275 863 Q254 862 254 882 L254 893 Q405 898 582 1048 ZM1168 509 Q1168 494 1175 481 Q1185 463 1196 449 Q1213 429 1213 417 Q1213 417 1203.5 408.5 Q1194 400 1180 386.5 Q1166 373 1150 358 Q1126 336 1107.5 319 Q1089 302 1089 302 Q1054 306 1032 334 Q1010 362 1002 381 Q998 390 997 390 Q995 391 983.5 402.5 Q972 414 957 429 Q941 446 928.5 459 Q916 472 913 473 Q916 473 921 473 Q933 473 952.5 474.5 Q972 476 990 485.5 Q1008 495 1015 516 Q1016 524 1017 592 Q1018 660 1019 751 Q870 610 750.5 532.5 Q631 455 582 431 Q565 422 561 419 Q697 521 815.5 658.5 Q934 796 1019 922 Q1019 967 1018.5 994.5 Q1018 1022 1018 1024 Q1016 1027 1012 1037.5 Q1008 1048 1003.5 1061 Q999 1074 996 1083.5 Q993 1093 993 1093 Q1022 1076 1052 1065.5 Q1082 1055 1103 1051 Q1160 1144 1166 1160 Q1168 1164 1171 1168 Q1173 1172 1174.5 1176.5 Q1176 1181 1172 1190 Q981 1167 781 1105 L682 1147 Q987 1219 1180 1249 Q1352 1278 1477 1316 Q1488 1319 1503.5 1314 Q1519 1309 1534.5 1301 Q1550 1293 1560.5 1286.5 Q1571 1280 1571 1280 Q1572 1276 1572 1267.5 Q1572 1259 1571 1252 Q1571 1249 1571 1248 Q1571 1246 1569 1241 Q1567 1236 1565 1230.5 Q1563 1225 1561 1223 Q1557 1218 1554 1213 Q1550 1205 1544 1200 Q1538 1195 1525 1194 Q1512 1193 1486 1198 Q1466 1204 1406 1206.5 Q1346 1209 1238 1198 Q1279 1171 1302 1138 Q1308 1131 1313 1125 Q1242 1007 1164 912 Q1160 836 1161.5 744.5 Q1163 653 1166 581 Q1167 534 1168 509 ZM1670 601 Q1673 586 1667.5 572 Q1662 558 1654 545 Q1653 543 1650 539 Q1646 531 1639.5 521.5 Q1633 512 1627 510 Q1573 499 1531 523 Q1489 547 1452 582 Q1446 587 1440 592 Q1424 605 1387.5 631.5 Q1351 658 1309 687 Q1267 716 1235 735.5 Q1203 755 1197 754 Q1258 761 1332 752 Q1406 743 1465.5 729.5 Q1525 716 1544 710 Q1552 708 1563 705 Q1580 701 1598 694.5 Q1616 688 1627 678 Q1638 665 1646 650 Q1649 644 1652 638 Q1657 630 1661 621 Q1667 612 1670 601 Z" /><glyph glyph-name="uni91C7" unicode="&#x91c7;" d="M453 793 Q437 811 412.5 834.5 Q388 858 367.5 875 Q347 892 345 893 Q376 896 426 925 Q476 954 517.5 985 Q559 1016 565 1024 Q566 1015 559 984 Q552 947 545.5 892.5 Q539 838 544 781 Q543 772 524.5 771.5 Q506 771 484 777 Q462 783 453 793 ZM957 1050 Q958 1050 957 1049 Q957 1050 957 1050 ZM710 939 Q698 959 700.5 990.5 Q703 1022 708 1044 Q711 1061 710 1061 Q757 1034 809 1041 Q861 1048 898.5 1067 Q936 1086 943 1094 Q941 1087 935 1068 Q920 1030 907.5 973 Q895 916 911 871 Q912 865 884.5 871.5 Q857 878 818.5 891 Q780 904 748 917 Q716 930 710 939 ZM887 786 Q912 794 960.5 841 Q1009 888 1061 947.5 Q1113 1007 1150.5 1053 Q1188 1099 1192 1106 Q1193 1109 1194.5 1116.5 Q1196 1124 1196.5 1131.5 Q1197 1139 1197 1143 Q1195 1152 1196 1166 Q1196 1177 1195 1185 Q1214 1179 1255.5 1153.5 Q1297 1128 1339.5 1094.5 Q1382 1061 1405.5 1030.5 Q1429 1000 1411 984 Q1409 979 1401 978 Q1393 977 1381 977 Q1369 977 1354.5 975.5 Q1340 974 1327 968 Q1171 883 1040 835.5 Q909 788 887 786 ZM1098 1281 Q1062 1292 957 1271 Q852 1250 656 1160 L491 1222 Q610 1259 686.5 1282.5 Q763 1306 807 1320 Q851 1334 873 1341.5 Q895 1349 905.5 1353.5 Q916 1358 925 1363 Q935 1367 954.5 1375.5 Q974 1384 1014 1400 Q1025 1404 1051.5 1400.5 Q1078 1397 1107.5 1391 Q1137 1385 1158.5 1379.5 Q1180 1374 1180 1374 Q1182 1369 1181.5 1359.5 Q1181 1350 1180 1343 Q1180 1340 1180 1339 Q1180 1337 1178.5 1331 Q1177 1325 1174.5 1319.5 Q1172 1314 1171 1311 Q1167 1305 1164 1300 Q1160 1291 1154.5 1285 Q1149 1279 1136 1278 Q1123 1277 1098 1281 ZM1663 691 Q1665 686 1664.5 674.5 Q1664 663 1663 654 Q1663 650 1663 648 Q1663 646 1660.5 639 Q1658 632 1655 625.5 Q1652 619 1649 616 Q1644 609 1640 602 Q1635 592 1627 585.5 Q1619 579 1601 578.5 Q1583 578 1548 586 Q1515 594 1378 592 Q1241 590 1005 559 Q1005 503 1007 440 Q1012 312 1010 194 Q1008 76 986 19 Q983 12 966.5 -3.5 Q950 -19 931 -36 Q916 -50 904.5 -61 Q893 -72 890 -76 Q830 -106 795 -56 Q760 -6 738 60 Q719 113 701 137 Q740 141 779.5 158.5 Q819 176 832 207 Q834 225 834 322.5 Q834 420 832 533 Q589 493 269 413 L134 471 Q556 559 831 606 Q831 667 829.5 707 Q828 747 827 751 Q825 756 818.5 760 Q812 764 805 767 Q793 773 786 780 Q790 781 795 782 Q809 780 824 779 Q849 777 874 774 Q951 762 1019 729 Q1006 707 1005 636 Q1027 640 1049 643 Q1353 691 1536 740 Q1551 744 1572 737.5 Q1593 731 1614 720 Q1635 709 1649 700 Q1663 691 1663 691 ZM1154 508 Q1256 512 1355 495 Q1454 478 1502 416.5 Q1550 355 1498 227 Q1437 206 1405.5 230.5 Q1374 255 1351 296 Q1341 312 1330 328 Q1275 400 1215 457 Q1201 469 1186 476 Q1174 482 1165.5 489 Q1157 496 1154 508 ZM521 260 Q520 237 522 213 Q551 232 587 241 Q587 236 584.5 233 Q582 230 578 227 Q573 223 569 217 Q552 192 538 162 Q535 155 532 148 Q532 147 531 146 Q535 124 537 106 Q537 94 528.5 86.5 Q520 79 509 73 Q492 66 483 54 Q378 106 376 198.5 Q374 291 486 417 Q532 400 536 371 Q540 342 530 306 Q524 284 521 260 Z" /><glyph glyph-name="uni82CD" unicode="&#x82cd;" d="M984 1463 L1026 1465 Q1163 1443 1163 1358 L1163 1317 L1153 1265 L1163 1266 L1521 1330 Q1606 1315 1606 1292 L1606 1262 Q1606 1207 1564 1189 L1479 1185 Q1424 1183 1384 1192 Q1047 1180 1047 1098 L921 951 Q1160 791 1606 670 Q1661 661 1669 662 L1669 641 L1395 539 Q1095 632 868 929 L857 928 L594 653 L594 643 Q614 644 710 596 Q1005 632 1005 678 Q1031 700 1047 700 Q1143 664 1163 633 Q1131 566 1131 469 L1131 326 Q1131 226 942 186 Q913 240 826 325 L826 335 L963 340 Q984 341 984 361 L984 596 Q910 593 710 545 L710 504 Q689 256 689 228 L689 177 Q689 4 836 9 Q836 -12 963 -7 Q1205 2 1205 216 L1216 217 Q1300 81 1353 48 L1353 38 Q1353 -82 1068 -136 Q998 -149 931 -151 Q531 -165 531 233 Q541 377 541 478 Q525 590 499 589 Q316 439 162 433 L151 433 L151 454 Q752 862 752 1098 L710 1096 L689 1085 L699 1065 L699 1025 Q699 1004 678 1003 L615 1001 L541 1060 Q517 1059 246 977 Q130 1017 130 1034 L130 1045 L531 1131 L520 1151 L520 1202 Q536 1315 573 1316 Q678 1281 678 1167 Q994 1206 994 1260 Q1005 1328 1005 1393 L1005 1423 L984 1453 L984 1463 ZM805 1100 Q876 1102 900 1052 L900 1042 Q900 1014 878 980 L900 971 Q942 1047 973 1147 Q805 1120 805 1100 Z" /><glyph glyph-name="uni67E5" unicode="&#x67e5;" d="M768 1454 Q858 1458 948 1389 L948 1216 L958 1216 Q1317 1253 1317 1301 Q1356 1302 1454 1265 L1454 1234 Q1443 1203 1390 1201 L1348 1200 Q990 1187 990 1156 Q1040 995 1390 752 Q1485 707 1485 694 Q1450 673 1243 635 Q958 886 958 1124 L948 1124 L948 1042 Q948 952 958 839 Q958 573 832 569 L821 568 Q737 565 705 687 L705 697 Q768 699 768 760 L768 1138 L652 1134 Q747 1030 747 953 Q747 789 336 591 L315 591 Q540 812 642 1072 Q631 1088 631 1123 L621 1122 Q548 1120 389 1063 Q284 1077 284 1100 L284 1110 L768 1189 L768 1403 L737 1443 Q758 1454 768 1454 ZM1116 630 Q1161 632 1274 544 Q1222 425 1222 266 Q1232 189 1232 93 Q1218 93 1201 62 L979 105 Q800 94 600 30 Q546 28 484 87 Q505 291 505 496 L494 536 Q526 547 526 558 Q674 542 674 512 Q982 523 1085 629 L1116 630 ZM652 419 Q659 317 674 318 Q899 357 958 390 Q1025 372 1032 372 L1032 504 Q652 464 652 419 ZM1000 309 L895 306 Q753 300 663 277 Q674 192 695 125 Q1032 161 1032 188 L1032 331 L1000 309 ZM1338 77 L1348 77 Q1404 79 1527 -18 Q1527 -33 1496 -50 L1475 -51 Q1463 -51 1359 -35 L1338 -36 Q709 -58 442 -160 Q298 -114 273 -115 L273 -95 Q1338 24 1338 77 Z" /><glyph glyph-name="uni5E93" unicode="&#x5e93;" d="M972 1577 Q1073 1530 1073 1461 Q1073 1425 748 1363 Q737 1330 681 1328 Q670 1329 591 1444 L613 1455 L647 1457 Q805 1462 972 1577 ZM1286 1393 Q1408 1340 1409 1322 Q1409 1266 1376 1255 L1353 1254 Q1289 1252 1275 1262 Q1208 1249 950 1229 Q1062 1150 1062 1092 L1062 1081 Q1017 949 1017 938 Q1163 965 1331 1026 Q1430 983 1443 954 L1443 932 L1432 910 L1275 915 Q950 903 950 816 Q849 598 849 541 Q988 557 995 558 L961 752 Q983 803 1006 808 L1017 808 Q1117 812 1163 683 L1163 607 Q1178 608 1275 644 Q1353 621 1353 603 L1353 571 Q1353 556 1320 537 L1264 535 L1152 520 L1152 400 L1163 401 Q1390 409 1522 501 Q1690 455 1690 387 Q1653 354 1634 353 Q1529 382 1454 379 Q1390 377 1152 346 L1152 259 Q1152 -135 1028 -277 Q983 -279 983 188 L983 199 L995 308 Q824 302 714 222 L580 260 L580 282 Q972 361 995 362 L995 492 L983 492 Q880 488 714 428 Q714 433 613 522 L613 533 Q702 560 804 833 L793 832 Q727 797 681 796 Q546 830 546 845 Q860 897 860 943 Q894 1056 894 1216 Q557 1204 176 1092 Q109 1116 109 1133 L109 1144 Q1286 1341 1286 1393 ZM412 1123 Q437 1123 535 1040 Q472 -37 288 -43 Q277 -44 255 -55 Q210 11 210 95 Q321 99 367 1099 Q395 1122 412 1123 Z" /><glyph glyph-name="uni632F" unicode="&#x632f;" d="M397 1272 L426 1273 Q483 1275 551 1194 Q532 1058 522 876 Q544 877 609 935 Q676 883 676 873 Q676 825 647 816 L628 815 L570 822 Q555 812 522 811 Q522 732 513 560 L628 601 L628 592 Q610 557 513 485 L522 430 Q522 225 551 -53 Q528 -73 513 -73 Q454 -75 359 14 Q378 80 378 127 L378 341 L359 340 Q359 313 253 196 L234 196 L147 369 Q210 390 378 480 L378 787 Q307 785 234 717 Q138 754 109 787 L109 796 L378 843 L378 1253 Q382 1272 397 1272 ZM1311 1296 Q1426 1259 1445 1236 Q1432 1197 1397 1178 Q1382 1178 1282 1183 Q869 1137 869 1075 Q859 744 859 693 L869 694 Q1118 749 1522 820 Q1599 784 1599 739 Q1581 729 1570 728 Q1442 742 1407 741 Q1203 734 926 658 L926 649 Q1022 653 1099 590 Q1090 497 1090 450 L1090 348 Q1090 287 1099 162 L1272 224 L1272 215 Q1109 -61 1080 -62 Q915 -23 907 6 Q945 46 945 101 L945 585 Q945 659 859 656 Q825 31 647 25 L638 24 Q625 24 590 162 Q699 166 715 1004 L715 1181 Q735 1219 763 1220 Q780 1219 840 1176 L849 1177 Q1311 1241 1311 1296 ZM1263 1043 L1272 1043 Q1320 1045 1407 974 L1407 955 L1397 936 L1282 941 L1243 940 Q1179 937 1032 895 Q909 928 897 927 L897 946 L907 946 Q1112 954 1263 1043 ZM1503 661 Q1599 621 1599 562 L1599 543 Q1599 484 1388 396 L1388 387 Q1527 250 1676 202 L1676 183 Q1485 120 1455 119 Q1157 381 1157 602 Q1167 621 1167 630 L1176 630 Q1280 482 1359 413 Q1467 514 1503 661 Z" /><glyph glyph-name="uni6210" unicode="&#x6210;" d="M1044 1347 Q1335 1274 1335 1181 Q1345 1181 1345 1171 Q1324 1107 1302 1107 L1292 1106 Q1180 1102 1141 1226 L1023 1336 L1044 1347 ZM905 1321 Q1044 1305 1044 1274 L1044 1201 Q1044 1191 1034 1191 L1087 974 Q1187 998 1313 1045 L1335 1045 Q1414 1048 1421 1017 L1421 976 Q1421 944 1378 943 Q1259 939 1109 912 Q1173 747 1238 553 Q1324 626 1324 691 Q1313 712 1313 722 L1335 733 Q1442 645 1442 570 L1442 508 Q1395 431 1324 358 Q1376 238 1442 196 L1496 198 Q1593 219 1593 274 L1603 275 Q1625 273 1625 254 L1625 244 Q1625 161 1636 47 Q1606 -23 1571 -39 L1431 -44 Q1298 -49 1141 237 Q878 92 754 56 Q976 243 1087 370 Q915 867 915 884 Q518 836 518 755 L518 620 Q614 624 808 714 Q846 715 937 646 Q894 575 851 237 Q753 140 657 136 Q593 248 518 277 L518 298 L668 303 Q707 304 722 617 Q507 589 507 547 Q507 -15 335 -21 L313 -22 Q237 117 163 139 L163 160 Q313 165 313 332 Q335 502 335 572 Q324 801 324 915 L367 937 Q502 869 518 870 Q758 910 894 946 Q851 1108 797 1192 Q828 1258 905 1321 Z" /><glyph glyph-name="uni7A0B" unicode="&#x7a0b;" d="M599 1273 Q662 1193 662 1135 L662 1118 Q654 1094 545 1018 L581 984 L581 844 Q618 846 689 901 L698 901 Q806 877 806 853 L806 826 Q791 791 743 789 Q716 788 680 796 Q633 785 590 784 L581 783 L581 713 Q807 584 824 487 L824 452 Q808 364 752 362 Q593 642 581 652 L581 417 Q581 7 509 4 Q493 -5 473 -6 L464 -6 Q418 -8 391 131 Q436 150 436 193 L436 455 L427 455 Q390 303 94 137 L94 146 Q364 502 373 715 L373 741 Q346 740 274 702 Q157 722 157 742 L436 813 L436 970 Q291 921 211 918 L211 927 Q373 1023 581 1237 Q581 1272 599 1273 ZM1383 1292 Q1461 1263 1536 1202 Q1494 1107 1473 807 L1419 761 L1401 761 Q1359 759 1284 826 Q1093 819 959 727 L941 727 Q870 724 833 784 Q860 870 869 1056 Q860 1090 815 1158 L815 1176 Q1018 1166 1040 1166 Q1338 1215 1338 1273 Q1367 1292 1383 1292 ZM995 1069 Q995 975 1022 834 Q1221 868 1302 897 L1302 1167 Q995 1110 995 1069 ZM382 732 Q406 733 427 664 L436 665 L436 752 L400 751 Q382 748 382 732 ZM1446 754 Q1545 731 1545 705 L1545 670 L1518 634 L1374 638 Q1359 637 1266 625 L1257 520 L1257 441 L1473 493 Q1545 466 1545 452 L1545 417 L1518 381 Q1428 386 1383 385 L1257 380 Q1257 352 1293 155 Q1351 157 1626 202 Q1687 180 1707 152 L1707 144 Q1707 97 1662 72 L1653 72 Q1468 109 1419 107 Q1083 69 860 17 Q770 53 770 66 L770 75 Q806 76 1112 131 Q1094 152 1094 165 Q1112 290 1112 340 L1112 358 L1103 357 Q1064 356 941 334 Q878 361 878 375 L878 384 L905 385 Q959 387 1112 410 L1112 602 Q965 579 905 559 Q905 577 842 592 L842 610 Q960 614 1410 735 Q1410 752 1446 754 Z" /><glyph glyph-name="uni7EDF" unicode="&#x7edf;" d="M1126 1379 Q1210 1294 1210 1249 L1210 1239 Q1174 1156 778 1142 L778 1162 Q1017 1230 1126 1379 ZM367 1229 L388 1230 Q515 1125 515 1081 Q434 972 251 776 L262 776 Q504 875 504 958 L536 960 Q632 907 641 882 Q620 764 293 451 L283 450 L283 440 L293 440 Q417 445 515 551 Q596 502 610 503 L610 472 Q610 442 293 359 L177 293 L167 293 L125 414 Q292 555 420 731 L441 762 L430 762 Q318 731 177 569 Q111 627 93 719 Q201 752 346 1116 Q367 1154 367 1198 L367 1229 ZM1442 1217 Q1532 1207 1632 1122 L1632 1112 Q1632 1081 1590 1079 Q1445 1095 1432 1094 Q1301 1089 1052 1050 Q1116 986 1116 940 L1116 919 Q1116 812 852 675 L852 665 L863 665 L1221 760 Q1183 841 1147 880 L1147 890 L1158 890 Q1411 815 1411 675 Q1411 638 1369 582 Q1253 595 1253 679 L1210 678 Q1068 673 978 649 Q1010 614 1010 548 Q828 169 631 85 L557 72 L557 83 Q805 340 915 637 L905 636 Q886 625 863 624 Q810 623 810 643 Q649 555 631 555 L631 565 Q948 871 1000 1038 L989 1037 Q909 1024 768 978 Q612 1003 578 1002 L578 1012 Q578 1036 1337 1162 Q1382 1164 1442 1217 ZM1042 641 Q1218 648 1231 536 Q1210 453 1210 341 L1210 310 Q1210 76 1369 81 L1453 85 Q1569 89 1569 211 Q1579 268 1579 324 L1600 325 Q1637 178 1706 124 L1706 114 Q1706 -31 1495 -57 Q1445 -69 1347 -72 Q1134 -80 1073 122 Q1073 164 1052 386 Q1063 467 1063 550 Q1063 574 1031 631 Q1042 631 1042 641 ZM578 288 L578 277 Q487 199 241 71 Q241 56 198 29 Q175 28 104 178 Q114 179 578 288 Z" /><glyph glyph-name="uni72EC" unicode="&#x72ec;" d="M462 1201 L472 1202 Q683 1170 683 1073 L683 1064 Q683 1010 553 885 Q603 799 603 654 L603 644 L613 644 Q633 645 653 714 Q633 713 633 732 L653 743 Q753 640 753 582 L753 543 Q753 504 593 459 Q564 -36 342 -44 L282 -46 Q232 -48 162 163 Q152 162 152 182 L162 182 Q255 137 312 139 Q430 143 482 455 L482 465 L432 463 Q172 454 172 483 Q431 535 492 582 L492 727 Q492 834 462 833 Q329 741 182 687 Q402 906 402 937 L392 937 Q182 997 182 1046 Q187 1162 212 1163 Q212 1124 442 997 Q475 998 503 1164 Q462 1177 462 1192 L462 1201 ZM1063 1165 Q1103 1166 1234 1113 L1234 909 Q1346 913 1474 996 Q1590 950 1614 913 Q1574 792 1554 485 Q1518 454 1484 453 Q1460 452 1364 516 L1254 512 L1234 521 L1234 298 L1244 299 Q1324 340 1354 342 Q1425 334 1434 335 L1434 344 Q1434 359 1414 431 L1434 441 Q1624 287 1624 167 Q1624 116 1544 58 Q1456 54 1444 180 L1444 267 L1414 247 L1314 243 Q1062 234 833 100 L823 99 Q773 97 683 162 L683 172 Q962 221 1073 264 Q1083 395 1083 458 L1083 487 L1073 487 Q1027 485 873 421 Q830 436 783 476 L793 544 L793 893 Q793 917 833 924 Q943 913 943 889 L943 841 L1073 865 L1073 894 Q1073 1033 1033 1144 L1063 1165 ZM1234 851 L1234 589 Q1266 610 1294 611 Q1354 613 1354 535 L1374 536 L1384 585 L1384 624 Q1384 706 1394 886 Q1375 876 1234 851 ZM943 821 L943 724 Q943 530 993 532 L1083 545 L1083 817 L983 784 Q983 800 943 821 Z" /><glyph glyph-name="uni51FA" unicode="&#x51fa;" d="M1384 333 Q1396 255 1387 177 Q1385 156 1383 135 Q1381 81 1369 30 Q1364 11 1353.5 2.5 Q1343 -6 1330 -12 Q1315 -18 1299 -30 Q1292 -35 1280 -34.5 Q1268 -34 1259 -29 Q1248 -21 1238.5 10.5 Q1229 42 1222 80 Q1215 111 1208.5 136 Q1202 161 1194 170 Q1158 210 1108 203 Q1064 194 971 155 Q971 145 970 138 Q969 138 965 136.5 Q961 135 955 134 Q951 132 947 131 Q943 130 943 130 Q928 130 915 132 Q898 125 881 118 Q819 91 766.5 70 Q714 49 687 43 Q637 30 593 2 Q569 -13 534.5 -32.5 Q500 -52 471 -64.5 Q442 -77 434 -72 Q434 -67 425 -47.5 Q416 -28 403 -3 Q388 26 376.5 50.5 Q365 75 366 82 Q370 91 384.5 94 Q399 97 417 98 Q435 99 449.5 102.5 Q464 106 466 116 Q472 143 487 199 Q502 255 514 305.5 Q526 356 521 368 Q517 374 512 379 Q506 387 502 394.5 Q498 402 500 412 Q502 414 524.5 407 Q547 400 578 388 Q609 376 634.5 363.5 Q660 351 668 343 Q678 329 680 312 Q682 295 675 279 Q652 235 646.5 207 Q641 179 644 165 Q647 151 649 148 Q650 147 650 147 Q693 154 759 170 Q754 171 750 172 Q764 173 772.5 178.5 Q781 184 788 199 Q795 453 794 702 Q737 674 702 650 Q697 646 691 643 Q691 643 690 643 Q690 643 690 643 Q686 650 672.5 665 Q659 680 643 696 Q624 715 610 730 Q545 675 460 630 Q375 585 326 564 Q307 555 301 552 Q350 594 397.5 666 Q445 738 475 825 Q482 847 484 863 Q485 873 488 885 Q488 890 475 899.5 Q462 909 445 919 Q433 927 424 933 Q415 939 415 942 Q454 961 471 966 Q480 970 488.5 973.5 Q497 977 507 983 Q533 980 576.5 947.5 Q620 915 647.5 868.5 Q675 822 653 777 Q643 763 629 748 Q703 760 794 780 Q791 960 779.5 1087.5 Q768 1215 743 1251 Q741 1255 742.5 1259 Q744 1263 747.5 1267 Q751 1271 754.5 1273.5 Q758 1276 759 1276 Q775 1286 786 1296 Q795 1304 803.5 1309.5 Q812 1315 824 1314 Q845 1311 874.5 1288 Q904 1265 935 1236 Q959 1213 980.5 1195.5 Q1002 1178 1017 1173 Q998 1124 988 1033.5 Q978 943 974 830 Q1022 847 1063 867 Q1075 872 1090.5 868.5 Q1106 865 1121 859 Q1140 851 1150 851 Q1163 942 1151.5 991 Q1140 1040 1093 1096 Q1080 1113 1099 1124.5 Q1118 1136 1148 1145 Q1172 1153 1190 1162 Q1207 1170 1218 1162 Q1229 1154 1239 1139 Q1249 1125 1261 1113 Q1271 1104 1284 1092 Q1310 1067 1332 1050 Q1339 1042 1331 995 Q1323 948 1306.5 887 Q1290 826 1272.5 776.5 Q1255 727 1243 716 Q1236 711 1224 711.5 Q1212 712 1203 717 Q1193 723 1189 726 Q1185 728 1183 729 Q1181 730 1179 732 Q1177 734 1173 738 Q1170 742 1164 748 Q1156 757 1153.5 761.5 Q1151 766 1151 769 Q1151 770 1150.5 771 Q1150 772 1147.5 772 Q1145 772 1140 771 Q1136 771 1130 771 Q1039 767 972 754 Q969 556 972 382 Q973 290 973 225 Q1105 260 1180 273 Q1186 330 1176 353.5 Q1166 377 1146 393 Q1122 411 1096 459 Q1088 480 1106.5 506.5 Q1125 533 1151.5 549 Q1178 565 1194 554 Q1221 532 1251 516 Q1282 500 1309 477 Q1316 471 1322 464 Q1371 407 1384 333 Z" /><glyph glyph-name="uni7269" unicode="&#x7269;" d="M451 1169 Q527 1171 571 1105 L561 1008 L561 833 Q627 865 651 866 Q697 849 701 829 Q701 770 661 769 L571 775 L561 756 L561 562 L711 596 L711 577 Q562 505 561 465 L551 154 Q523 87 481 64 L471 64 Q441 63 431 198 L431 382 L420 402 Q342 371 240 259 Q143 355 110 429 Q431 499 431 528 L431 741 Q404 740 310 717 Q310 737 290 736 L280 736 Q136 614 80 612 Q250 822 250 987 L270 997 L280 998 Q380 982 380 904 Q380 863 310 766 L320 766 Q355 768 431 799 L420 818 L420 1138 Q420 1153 451 1169 ZM901 1185 L931 1186 Q1051 1097 1051 1026 L1041 957 L1051 958 Q1442 991 1442 1040 Q1602 959 1622 940 Q1578 325 1502 237 Q1502 168 1352 57 L1262 25 Q1202 23 1132 204 L1091 242 Q965 130 851 126 L851 146 Q1034 241 1142 554 Q1192 686 1222 915 L1212 915 Q1111 909 1111 892 L1132 854 Q970 286 731 277 L701 276 Q950 525 1011 820 Q1031 904 1031 928 L1021 927 Q832 756 701 751 L701 761 Q902 997 911 1108 Q911 1116 901 1185 ZM1252 926 Q1342 824 1342 813 Q1262 396 1122 252 L1252 218 Q1432 315 1432 555 Q1442 555 1442 652 L1442 933 L1252 926 Z" /><glyph glyph-name="uni4ECE" unicode="&#x4ece;" d="M1055 1272 L1115 1275 Q1156 1276 1246 1211 Q1226 875 1196 618 Q1346 323 1716 123 Q1471 56 1416 54 Q1267 121 1186 366 Q1166 463 1166 481 L1156 481 Q1107 243 845 43 L775 21 Q1065 417 1065 1040 L1065 1224 L1055 1272 ZM435 1114 L455 1115 Q517 1117 625 995 Q605 963 605 936 Q605 741 565 527 L585 528 Q875 474 875 325 L875 257 Q835 198 775 196 L765 195 Q722 218 575 441 L535 468 Q502 357 314 189 Q122 85 84 83 Q435 354 435 978 L435 1114 Z" /><glyph glyph-name="uni8350" unicode="&#x8350;" d="M994 1477 L1015 1478 Q1125 1482 1173 1382 Q1163 1292 1163 1279 L1173 1280 Q1202 1281 1511 1343 Q1606 1316 1606 1295 L1606 1285 Q1606 1255 1574 1202 Q1379 1205 1289 1202 L1258 1201 Q1075 1194 1047 1122 L899 964 L899 933 Q1416 1013 1416 1054 L1437 1054 Q1503 1057 1627 939 Q1627 924 1585 897 Q1397 931 1363 929 Q878 912 878 861 Q851 721 741 560 Q741 550 752 550 Q720 437 720 294 Q720 176 752 -144 Q714 -176 678 -177 L667 -178 Q611 -180 541 -111 Q573 -110 573 3 L573 227 L562 349 Q411 224 309 187 Q617 539 699 834 L414 752 Q204 806 204 826 L225 837 Q731 878 731 927 L752 1060 L731 1100 L741 1101 Q889 1075 889 984 Q973 1072 973 1170 Q942 1169 710 1130 L710 1110 L731 1111 Q718 1049 699 1048 L636 1046 Q621 1045 573 1105 Q335 1055 277 1033 Q204 1071 172 1070 L172 1080 Q172 1107 551 1175 L551 1216 Q551 1349 594 1350 Q699 1297 699 1201 L1005 1253 Q1015 1373 1015 1427 Q994 1459 994 1477 ZM1279 794 L1363 797 Q1442 787 1448 759 Q1448 681 1216 475 Q1247 476 1247 456 L1247 374 Q1400 380 1479 454 Q1581 433 1616 387 L1616 377 Q1616 349 1511 333 L1363 327 L1258 313 Q1258 266 1268 79 Q1268 -151 1110 -182 Q1065 -184 984 7 L994 8 L1068 0 Q1093 53 1100 205 Q1089 261 1089 287 L1068 286 Q1000 283 868 228 L857 227 Q781 286 762 285 L762 305 Q1079 342 1079 368 L1079 419 L1047 418 L1068 449 L1068 459 L1047 489 L1047 499 L1121 502 Q1268 630 1268 722 Q988 634 899 586 L826 665 Q1279 751 1279 794 Z" /><glyph glyph-name="uni65F6" unicode="&#x65f6;" d="M1214 1241 L1224 1241 Q1447 1227 1447 1190 Q1429 1086 1431 1004 L1441 1005 Q1555 1038 1601 1079 Q1702 1031 1703 1014 L1703 1004 Q1704 963 1665 935 Q1532 949 1503 948 L1443 936 Q1459 681 1461 585 Q1471 133 1331 63 L1321 63 Q1207 59 1135 281 L1135 290 Q1190 273 1246 275 Q1273 408 1279 608 Q1267 702 1265 793 L1262 910 L1252 910 Q1129 905 871 828 Q809 865 789 864 L789 883 Q1251 949 1250 978 Q1236 1157 1235 1202 Q1215 1202 1215 1221 L1214 1241 ZM631 1180 Q701 1155 774 1088 Q736 1000 739 842 L749 413 Q696 343 640 341 Q558 372 557 445 L547 445 Q258 151 220 150 L96 292 Q96 308 266 356 Q266 369 184 432 Q199 674 193 920 L191 1018 L180 1066 L210 1087 Q333 1091 372 1044 Q532 1091 532 1118 Q572 1178 631 1180 ZM384 966 L363 975 L343 975 L348 750 Q352 731 369 731 Q406 745 458 783 L468 784 Q502 785 540 757 L533 1040 Q383 994 384 966 ZM521 698 L430 695 L360 682 L395 439 Q382 439 366 409 L376 409 Q477 469 546 484 L541 708 L521 698 ZM813 718 L883 721 Q1145 713 1148 594 L1150 516 Q1150 486 1050 473 Q848 673 813 699 L813 718 Z" /><glyph glyph-name="uni8FC7" unicode="&#x8fc7;" d="M1140 1370 L1150 1370 Q1289 1375 1381 1320 Q1361 1222 1361 1145 L1361 1135 Q1437 1138 1531 1209 Q1631 1158 1641 1136 Q1641 1098 1601 1066 Q1501 1072 1451 1071 L1371 1068 Q1381 801 1381 700 Q1381 266 1241 190 L1221 190 Q1114 186 1040 406 Q1050 406 1050 416 Q1093 398 1150 400 Q1191 512 1191 751 L1191 945 L1180 1041 Q1113 1039 780 959 Q700 990 700 1005 L700 1014 Q1124 1068 1180 1100 L1170 1119 L1170 1177 Q1170 1228 1160 1341 L1140 1341 L1140 1370 ZM530 1212 Q580 1160 580 1097 L580 1078 Q580 1000 189 957 L189 976 Q382 1040 530 1212 ZM520 959 L540 960 Q640 950 640 876 Q640 796 389 605 L429 607 Q489 609 520 668 Q610 623 610 575 Q608 561 510 416 Q1249 84 1651 99 L1651 89 Q1651 80 1361 -77 Q1058 -50 600 235 L459 356 L449 356 Q262 192 149 160 L149 170 Q479 524 479 580 L469 579 Q414 568 389 567 Q379 566 359 575 Q272 514 239 513 Q419 723 510 862 L500 862 L319 787 Q239 794 239 813 L239 823 Q383 828 520 950 L520 959 ZM740 851 Q1060 863 1060 717 L1060 640 Q1050 610 1000 608 L960 607 Q954 607 720 831 Q724 850 740 851 Z" /><glyph glyph-name="uni6301" unicode="&#x6301;" d="M1135 1401 L1146 1402 Q1206 1404 1266 1329 Q1236 1214 1236 1143 L1246 1144 L1436 1189 Q1526 1178 1526 1134 Q1526 1121 1486 1085 L1386 1091 L1236 1085 L1236 852 Q1462 880 1626 915 Q1690 892 1696 869 L1696 830 Q1696 816 1656 790 L1636 789 Q1502 814 1446 812 L1396 810 Q1269 805 815 711 Q765 738 745 738 L745 757 L1085 828 L1085 1060 Q1035 1058 865 1023 Q815 1050 795 1050 L795 1069 L805 1070 Q880 1072 1085 1109 L1085 1361 Q1087 1374 1135 1401 ZM465 1338 L475 1339 Q528 1341 655 1277 Q625 1111 625 947 L645 947 L715 998 Q803 965 805 943 L805 914 Q805 901 775 884 L615 878 L615 626 L745 670 L745 660 Q615 549 615 529 Q615 304 655 17 Q641 16 625 -13 Q578 -15 424 67 Q444 206 444 261 L444 417 Q307 266 264 265 L154 425 Q398 518 444 562 L444 853 L434 852 Q353 843 254 778 Q120 841 104 840 L104 860 Q158 862 444 911 L434 979 L434 1308 Q434 1323 465 1338 ZM1246 746 L1266 747 Q1456 754 1456 676 L1456 667 L1476 667 Q1521 669 1586 729 Q1640 731 1696 675 L1696 646 Q1696 632 1656 606 Q1586 603 1436 588 Q1436 530 1446 143 Q1446 -100 1266 -106 Q1176 -61 1176 -3 Q1256 18 1256 145 Q1266 208 1266 311 Q1266 372 1256 562 Q915 521 915 472 Q829 527 765 525 L765 545 Q1206 619 1246 620 L1246 630 Q1246 667 1226 736 L1246 746 ZM875 422 L915 424 Q1176 414 1176 278 L1176 201 Q1166 171 1115 169 Q1100 169 855 412 L875 422 Z" /><glyph glyph-name="uni5F85" unicode="&#x5f85;" d="M519 1327 L528 1327 Q675 1257 675 1172 Q675 1049 280 891 Q265 882 234 881 Q528 1178 528 1274 L519 1327 ZM1143 1350 Q1201 1334 1253 1282 Q1226 1204 1226 1104 Q1339 1125 1400 1154 Q1492 1131 1492 1113 L1492 1095 Q1492 1082 1455 1058 L1226 1050 L1226 837 Q1421 862 1575 894 Q1618 895 1657 844 Q1639 787 1612 780 L1593 779 Q1470 801 1419 799 L1354 797 Q1122 771 849 707 L776 732 L776 740 Q776 758 1088 814 L1088 1027 L1079 1027 Q923 1012 886 993 Q840 1018 822 1018 L822 1036 Q1088 1064 1088 1090 L1088 1303 Q1105 1336 1143 1350 ZM537 963 L546 963 Q693 900 693 809 Q693 745 528 625 Q592 583 592 574 Q555 492 546 376 Q546 326 583 22 Q561 3 546 3 Q463 0 381 77 Q399 161 399 211 L399 558 Q211 489 142 486 Q546 800 546 910 L537 963 ZM1235 739 L1253 740 Q1428 746 1428 675 L1428 666 L1446 667 Q1488 668 1547 724 Q1600 726 1657 666 Q1657 657 1612 602 L1575 609 Q1409 598 1409 586 Q1409 484 1419 186 Q1419 -45 1263 -51 Q1171 -20 1171 52 Q1253 55 1253 304 Q1244 462 1244 571 L1235 570 Q932 529 932 488 L923 488 Q843 538 785 536 L785 554 Q984 579 1235 633 Q1235 649 1217 730 L1235 739 ZM877 442 L914 443 Q1171 429 1171 310 L1171 239 Q1171 227 1143 211 L1125 211 Q1062 208 950 373 Q920 381 877 424 L877 442 Z" /><glyph glyph-name="uni7279" unicode="&#x7279;" d="M1136 1380 L1165 1381 Q1253 1333 1261 1310 Q1233 1207 1233 1131 L1242 1132 Q1290 1133 1416 1175 Q1483 1178 1512 1132 L1512 1113 L1483 1075 Q1368 1080 1310 1078 Q1241 1066 1233 1066 L1233 842 Q1506 879 1590 911 Q1686 881 1686 858 Q1672 783 1628 781 Q1464 813 1416 811 Q1252 805 837 706 Q767 741 750 740 L750 759 L760 759 Q1088 812 1088 836 L1088 1051 L866 1015 Q808 1035 808 1050 Q827 1060 837 1061 Q931 1064 1088 1098 L1088 1341 Q1089 1354 1136 1380 ZM528 1255 L576 1257 Q593 1257 663 1185 Q653 1142 644 895 L653 895 Q662 896 750 917 Q790 906 808 873 Q789 816 769 815 L644 811 L644 587 L808 621 L808 611 Q808 603 644 493 L644 185 Q644 95 557 32 Q499 60 499 254 L499 292 L509 404 Q442 402 296 256 L287 256 Q270 262 152 438 L499 525 L499 787 L383 755 Q383 769 345 781 Q190 645 113 633 Q306 855 306 1051 L325 1061 Q423 1064 460 982 Q460 929 383 820 L383 811 L393 811 Q482 833 499 834 L499 1226 Q499 1240 528 1255 ZM1242 748 Q1445 756 1445 672 L1445 662 L1455 663 Q1504 664 1580 733 Q1686 693 1686 662 Q1673 623 1638 604 L1522 600 L1426 587 Q1435 237 1435 157 Q1435 -76 1290 -81 L1252 -83 Q1175 -30 1175 17 Q1261 20 1261 319 Q1261 343 1252 562 Q924 525 924 485 L914 484 Q801 536 769 535 L769 554 L779 554 Q1242 614 1242 636 Q1242 654 1223 738 L1242 748 ZM885 427 L943 429 Q1146 437 1175 279 L1175 213 Q1165 185 1117 183 Q1100 183 866 417 L885 427 Z" /><glyph glyph-name="uni7B49" unicode="&#x7b49;" d="M1032 1045 Q1015 1004 1006 935 Q1134 959 1193 992 Q1243 994 1297 945 Q1297 885 1255 883 Q1206 881 1152 890 Q1087 877 1006 874 L1006 714 Q1327 765 1537 813 Q1603 790 1609 766 L1609 725 L1578 684 Q1447 689 1422 688 Q985 672 361 519 Q268 548 268 566 Q409 601 860 688 L860 859 Q687 823 631 820 Q597 840 580 839 L580 859 Q860 894 860 920 L860 1090 Q878 1132 933 1134 L1026 1077 L1032 1045 ZM1027 613 Q1235 603 1235 561 L1235 540 L1224 520 L1235 520 Q1280 522 1370 595 Q1464 560 1474 529 L1474 508 Q1432 463 1432 457 Q1408 456 1391 466 Q1302 452 1245 450 L1203 448 L1224 77 Q1201 -186 1089 -190 L1027 -192 Q954 -146 954 -84 Q1037 -81 1037 161 L1037 372 L1027 423 Q527 344 527 303 L517 303 Q504 302 434 380 Q494 403 1027 483 L1027 493 L995 602 Q1017 613 1027 613 ZM653 328 L704 330 Q919 338 954 168 L954 97 Q954 77 933 76 L902 75 Q843 73 683 278 Q654 277 631 317 L653 328 ZM540 1150 Q463 1097 369 1048.5 Q275 1000 172 970 Q195 995 238 1039 Q304 1104 379 1185.5 Q454 1267 496 1336 Q494 1357 481.5 1380.5 Q469 1404 454 1421 Q470 1428 487 1434 Q511 1443 530 1452.5 Q549 1462 553 1471 Q571 1466 612.5 1434 Q654 1402 687 1359 Q720 1316 713 1278 Q709 1274 704 1271 Q683 1254 653 1231 Q723 1246 765 1257 Q795 1266 810 1274 Q825 1282 833 1288 Q838 1292 843 1294.5 Q848 1297 854 1298 Q862 1299 873.5 1294.5 Q885 1290 896 1283 Q907 1276 914 1271 Q921 1266 921 1266 Q922 1262 922 1254.5 Q922 1247 922 1241 Q921 1238 921 1237 Q921 1236 920 1231.5 Q919 1227 917 1222.5 Q915 1218 914 1216 Q911 1211 909 1207 Q906 1201 902 1196.5 Q898 1192 888.5 1191.5 Q879 1191 861 1196 Q845 1200 808 1197.5 Q771 1195 724 1187 Q727 1184 729 1180 Q752 1116 752 1058.5 Q752 1001 706 990 Q660 997 648.5 1025.5 Q637 1054 637 1091 Q636 1101 636 1111 Q633 1148 629 1167 Q585 1156 553 1143 L540 1150 ZM1607 1349 Q1608 1345 1608 1337.5 Q1608 1330 1607 1325 Q1607 1322 1607 1321 Q1607 1320 1599 1313.5 Q1591 1307 1578 1299.5 Q1565 1292 1548.5 1288.5 Q1532 1285 1514 1289 Q1489 1295 1420 1286 Q1351 1277 1279 1259 Q1297 1250 1310 1232 Q1333 1168 1333 1110.5 Q1333 1053 1287 1042 Q1262 1051 1240 1083.5 Q1218 1116 1208 1146 Q1213 1197 1201 1239 L1156 1262 Q1072 1189 917 1108 Q934 1134 955 1165 Q986 1210 1019 1265 Q1052 1320 1078 1385 Q1074 1403 1061.5 1422 Q1049 1441 1035 1454 Q1047 1462 1060 1470 Q1079 1482 1093 1493 Q1107 1504 1110 1513 Q1125 1511 1161.5 1488.5 Q1198 1466 1229 1432.5 Q1260 1399 1259 1364 Q1235 1337 1203 1305 Q1339 1328 1419 1350 Q1449 1359 1464 1367 Q1479 1375 1487 1381 Q1492 1385 1497 1387.5 Q1502 1390 1508 1391 Q1516 1392 1532 1386 Q1548 1380 1565 1371.5 Q1582 1363 1594.5 1356 Q1607 1349 1607 1349 Z" /><glyph glyph-name="uni5927" unicode="&#x5927;" d="M853 613 Q903 550 1163.5 379.5 Q1424 209 1763 52 Q1730 47 1677.5 26 Q1625 5 1569 -20 Q1490 -56 1446 -70 Q1278 -12 1150 108.5 Q1022 229 939 354.5 Q856 480 824 553 Q768 320 682 180 Q596 40 507 -30.5 Q418 -101 353 -125 Q288 -149 274 -150 Q273 -150 272 -150 Q363 -97 445 30.5 Q527 158 590.5 325.5 Q654 493 690 669 Q690 669 689 669 Q689 669 688 669 Q611 653 567 645 Q520 637 494 630.5 Q468 624 445 612 L301 689 Q409 696 511.5 715.5 Q614 735 707 760 Q735 934 724.5 1073.5 Q714 1213 656 1285 Q653 1289 654 1299.5 Q655 1310 658.5 1322 Q662 1334 665 1344 Q668 1353 669 1357 Q670 1362 670 1365 Q670 1368 670 1370 Q670 1372 670.5 1375 Q671 1378 673 1386 Q680 1384 689 1382 Q739 1375 797.5 1344.5 Q856 1314 877 1226 Q885 988 864 801 Q924 817 974 827 Q1047 842 1084 856.5 Q1121 871 1140 882 Q1152 889 1163.5 893.5 Q1175 898 1190 900 Q1210 902 1237 894 Q1264 886 1291 874 Q1318 862 1336 852.5 Q1354 843 1354 843 Q1356 837 1355.5 823.5 Q1355 810 1354 800 Q1354 795 1354 793 Q1354 791 1350.5 783 Q1347 775 1343 767 Q1339 759 1336 755 Q1329 747 1324 739 Q1317 728 1307 720 Q1297 712 1274 711 Q1251 710 1206 719 Q1157 728 1055.5 719.5 Q954 711 851 696 Q846 662 840 629 Q847 621 853 613 Z" /><glyph glyph-name="uni54D2" unicode="&#x54d2;" d="M1183 1395 Q1211 1397 1306 1314 L1295 1206 L1295 1012 Q1478 1051 1551 1096 Q1662 1080 1662 1036 Q1636 970 1617 970 Q1590 969 1528 977 L1295 947 L1295 936 Q1310 783 1740 371 L1740 360 Q1656 357 1506 287 Q1272 564 1272 774 L1261 773 Q1261 586 983 397 Q964 386 939 385 Q1150 658 1150 920 Q1054 895 1005 872 L928 912 Q928 853 672 655 L672 644 L705 646 Q794 662 794 713 L816 714 Q833 715 894 642 L894 609 Q894 558 783 422 Q1377 99 1795 114 L1795 103 Q1795 97 1506 -90 Q1298 -98 738 367 Q471 155 371 138 L371 149 Q750 521 750 615 L672 601 L661 601 L605 610 Q585 569 482 530 Q649 722 794 929 L783 929 Q602 857 560 856 L549 855 L494 864 Q471 734 471 659 L471 572 Q471 558 416 517 Q370 515 327 567 L293 566 Q218 563 115 495 Q79 494 15 534 Q37 681 37 815 L4 868 L26 880 L182 874 Q311 879 393 957 L416 958 L505 886 Q679 921 850 1049 Q900 1032 939 977 L939 923 Q965 924 1161 975 L1161 1050 Q1161 1306 1128 1372 L1183 1395 ZM761 1262 Q805 1205 805 1166 L805 1123 Q805 1063 438 1013 L438 1034 Q542 1064 727 1217 Q744 1261 761 1262 ZM149 776 L171 594 Q233 596 338 621 L338 858 Q149 831 149 776 Z" /><glyph glyph-name="uni5E26" unicode="&#x5e26;" d="M1011 1497 Q1138 1442 1139 1422 Q1116 1392 1116 1285 Q1163 1287 1315 1327 Q1467 1298 1467 1264 L1467 1241 Q1448 1195 1385 1193 Q1167 1208 1104 1206 L1104 1081 Q1104 1037 1046 977 L1057 977 Q1254 1007 1350 1044 Q1620 993 1620 827 L1620 793 Q1620 754 1491 732 Q1385 739 1210 778 L1210 801 Q1311 805 1432 923 L1292 929 L1257 928 Q942 916 425 784 Q404 783 355 804 L355 793 Q378 685 378 635 Q378 526 284 461 L238 460 Q220 459 179 526 L179 560 Q240 708 273 869 Q261 889 261 914 L261 925 L273 926 Q299 924 343 826 Q519 878 987 963 L929 1052 L940 1109 L940 1188 L870 1186 L870 1038 Q870 1021 788 956 L765 955 Q749 955 694 1032 L706 1089 L706 1157 Q659 1144 624 1143 Q624 1112 659 974 L589 926 L566 925 Q503 923 472 979 Q484 1057 484 1104 L472 1103 Q428 1102 308 1063 Q223 1094 202 1093 L202 1116 L484 1172 L484 1206 Q484 1298 448 1352 L472 1364 L530 1366 Q617 1369 624 1336 L624 1199 L706 1214 L706 1384 Q706 1402 753 1431 L776 1432 Q832 1434 905 1368 Q870 1282 870 1242 L882 1243 L940 1256 L940 1449 Q940 1472 1011 1497 ZM811 821 L823 821 Q923 825 964 758 L964 656 L975 657 Q1008 658 1093 718 Q1303 698 1303 646 Q1257 558 1257 531 Q1268 333 1268 282 Q1245 156 1151 153 L1139 152 Q1050 149 1022 273 Q1087 275 1093 355 Q1081 531 1081 615 L1046 614 Q959 611 952 554 L964 497 L964 10 Q964 -194 835 -199 Q788 -148 788 -42 L788 287 Q788 383 776 570 Q700 567 648 520 Q648 347 694 147 L601 76 Q539 74 484 140 Q507 370 507 504 L507 572 Q507 631 472 672 L472 684 L507 685 Q554 687 659 668 L659 600 L776 615 L776 785 Q776 802 811 821 Z" /><glyph glyph-name="uni5F53" unicode="&#x5f53;" d="M839 1316 L850 1316 Q897 1318 1006 1225 Q961 1116 961 943 L961 760 L972 761 Q1116 772 1295 869 Q1341 871 1462 724 Q1395 587 1395 313 L1395 65 Q1395 43 1373 43 L1362 42 Q1278 39 1117 98 Q772 85 538 -20 Q380 39 360 38 L360 60 L371 60 Q574 67 1173 229 L1184 251 L1184 294 L1173 402 Q921 392 516 324 Q460 354 438 353 L438 375 Q783 409 1173 509 L1173 682 L1161 681 Q786 668 516 561 Q357 620 338 619 L338 641 L349 641 Q783 688 783 743 L783 1260 Q783 1275 839 1316 ZM1306 1182 L1317 1182 Q1451 1078 1451 1026 Q1451 927 995 848 L995 869 Q1284 1053 1306 1182 ZM427 1053 Q506 1056 561 875 L605 920 L616 920 L616 855 Q616 808 705 729 L683 718 Q394 740 394 944 L394 987 Q401 1052 427 1053 Z" /><glyph glyph-name="uni5230" unicode="&#x5230;" d="M853 1310 Q933 1306 1043 1276 Q1044 1180 935 1172 Q904 1170 825 1212 Q809 1220 776 1218 Q714 1213 509 1159 L509 1150 Q619 1111 620 1033 Q621 990 504 861 L514 862 Q675 893 731 936 L781 920 L781 930 Q736 1036 679 1095 L679 1105 L688 1106 Q958 1039 960 886 L961 866 Q950 770 923 768 L873 764 Q803 803 802 883 L763 852 L733 849 Q636 842 426 788 L426 798 L250 679 L230 677 Q384 876 490 1120 Q479 1138 479 1148 Q463 1146 252 1083 Q176 1115 152 1114 L152 1133 L853 1310 ZM535 796 Q573 799 675 759 L667 643 L668 595 Q741 609 786 652 Q906 633 906 603 L906 593 Q907 580 877 562 L718 550 L669 537 L674 269 L684 269 L881 351 Q990 332 991 292 Q992 267 953 203 Q937 202 834 204 Q520 151 340 90 Q274 114 250 112 L157 130 Q250 141 467 186 Q506 238 501 505 L491 505 L333 474 Q332 493 302 519 L312 520 Q348 523 500 553 L499 640 Q498 679 506 746 Q496 764 496 774 L535 796 ZM1236 412 Q1235 412 1230 408.5 Q1225 405 1217 399.5 Q1209 394 1200 388 Q1187 379 1177.5 372 Q1168 365 1167 365 Q1134 370 1119 397.5 Q1104 425 1098 451 Q1095 463 1091.5 471 Q1088 479 1084 480 Q1087 479 1092 479 Q1094 478 1096 478 Q1092 479 1089 479 Q1086 480 1084 480 Q1076 483 1069 486 Q1079 486 1085.5 490.5 Q1092 495 1097 508 Q1098 518 1098 580 Q1098 642 1097.5 720.5 Q1097 799 1096 858.5 Q1095 918 1094 924 Q1092 927 1087 937 Q1082 947 1076 959 Q1070 971 1065.5 980 Q1061 989 1062 989 Q1097 989 1130 980 Q1144 976 1153 975 Q1169 972 1186 959 Q1203 946 1219 930 Q1244 905 1266 894 Q1239 814 1235.5 718 Q1232 622 1236 537 Q1239 459 1236 412 ZM1541 1267 Q1532 1252 1532.5 1135 Q1533 1018 1538 847 Q1546 586 1545 338 Q1544 90 1515 9 Q1514 7 1511 -4 Q1502 -38 1479.5 -96 Q1457 -154 1421 -180 Q1406 -185 1395.5 -171.5 Q1385 -158 1376 -135 Q1364 -103 1342 -78 Q1310 -47 1269.5 -19.5 Q1229 8 1197 28 Q1171 43 1161 51 Q1169 51 1181 52 Q1211 54 1255.5 58 Q1300 62 1336.5 69 Q1373 76 1380 87 Q1396 124 1398.5 302 Q1401 480 1397 699.5 Q1393 919 1387 1083.5 Q1381 1248 1379 1258 Q1377 1261 1366 1273 Q1355 1285 1340.5 1299 Q1326 1313 1314.5 1324.5 Q1303 1336 1299 1339 Q1303 1340 1307 1340 Q1315 1340 1330.5 1341 Q1346 1342 1363 1344 Q1381 1346 1396.5 1347.5 Q1412 1349 1421 1348 Q1438 1346 1455 1333 Q1472 1320 1489 1304 Q1516 1277 1541 1267 Z" /><glyph glyph-name="uni5E95" unicode="&#x5e95;" d="M928 1397 Q1004 1345 1004 1299 Q1004 1253 700 1205 Q700 1187 634 1166 Q568 1261 568 1283 L586 1293 L643 1295 Q729 1298 928 1397 ZM1298 1245 Q1378 1248 1431 1186 L1431 1176 Q1431 1164 1383 1129 L1355 1128 Q751 1106 254 978 L207 1022 L207 1031 Q1240 1197 1279 1226 Q1283 1245 1298 1245 ZM1146 1065 L1156 1065 Q1242 1003 1270 904 Q1217 801 1108 797 L1108 779 Q1165 775 1165 753 Q1165 713 1146 679 Q1156 665 1156 634 Q1327 658 1364 678 Q1432 654 1459 608 Q1459 595 1431 579 Q1345 595 1308 593 L1175 588 Q1294 134 1459 140 Q1507 141 1564 235 L1583 236 L1583 162 Q1583 110 1592 16 Q1573 -40 1497 -43 Q1227 -53 1099 310 Q1076 383 1061 382 Q1061 365 947 194 Q1175 144 1175 47 Q1175 -9 1127 -47 Q994 -52 957 158 L938 167 L767 -69 L757 -70 Q577 -7 577 62 Q615 78 615 127 L615 770 Q615 789 586 788 L586 806 L596 806 Q647 808 767 776 Q1146 936 1146 1065 ZM387 982 Q475 949 501 913 Q461 99 368 8 Q328 -94 245 -97 Q207 -31 207 39 Q317 43 349 963 Q373 982 387 982 ZM795 740 Q776 668 767 555 Q940 598 1013 601 L1013 610 Q975 698 975 719 Q1025 767 1042 767 L1042 777 L1032 776 Q941 755 795 740 ZM757 197 Q761 178 776 179 Q873 233 1061 401 Q1061 427 1023 565 Q757 524 757 481 L757 197 Z" /><glyph glyph-name="uni5178" unicode="&#x5178;" d="M985 1348 L1006 1349 Q1052 1351 1153 1283 Q1122 1176 1122 1067 L1122 1047 Q1156 1048 1280 1114 Q1332 1095 1427 1017 Q1385 901 1385 771 L1385 567 Q1425 568 1491 621 Q1580 616 1722 497 L1722 487 Q1722 473 1691 455 L1659 454 L1512 479 Q820 454 268 301 Q100 367 78 366 L78 386 L89 387 Q156 389 363 407 Q363 417 373 418 L363 438 Q384 470 394 878 Q384 931 384 979 L415 1001 L426 1001 Q493 1004 573 945 L552 822 Q563 594 605 446 L626 447 L679 459 L679 694 Q595 691 595 722 L595 732 L658 734 Q679 735 679 755 L679 786 Q679 916 616 937 Q633 947 668 949 L668 1235 Q670 1249 721 1277 L742 1278 Q788 1280 879 1212 Q848 1149 848 1017 L848 986 L858 986 L932 999 L932 1305 Q933 1319 985 1348 ZM1111 975 L1111 873 Q1111 853 1195 835 L1195 978 L1111 975 ZM837 914 L837 781 L848 782 Q932 791 932 815 L932 948 Q837 937 837 914 ZM1195 825 Q1195 764 1111 761 L1122 741 L1122 526 L1174 528 Q1206 540 1206 591 L1206 825 L1195 825 ZM837 720 Q848 533 848 486 L911 488 Q927 489 942 520 L942 744 Q837 738 837 720 ZM1195 396 Q1543 298 1543 154 L1543 123 Q1543 70 1491 19 L1459 18 Q1356 14 1269 277 L1174 385 L1195 396 ZM531 331 Q626 283 626 192 Q563 49 531 -46 Q373 -52 373 111 Q427 283 531 331 Z" /><glyph glyph-name="uni7535" unicode="&#x7535;" d="M708 1173 Q929 1181 929 1042 Q929 1021 938 1005 Q1110 1038 1169 1116 Q1200 1136 1226 1137 L1255 1138 Q1351 1079 1390 1031 Q1332 899 1332 694 Q1332 659 1342 462 Q1336 415 1236 365 L1188 364 Q1104 454 1073 452 Q1021 451 929 429 L929 419 Q929 267 1025 237 Q1127 213 1198 215 Q1511 227 1553 442 Q1559 535 1582 536 Q1639 402 1764 319 Q1764 168 1524 97 Q1346 63 1178 57 L1150 56 Q746 41 746 366 L746 394 Q533 340 449 290 Q404 289 334 388 Q353 526 353 594 L353 965 Q356 984 372 985 L410 986 Q512 990 535 926 Q547 935 746 961 L746 1017 Q746 1073 708 1173 ZM929 921 L929 782 Q976 783 1025 813 Q1111 793 1111 770 Q1098 704 1073 703 L929 698 Q929 633 919 493 Q1020 516 1130 547 L1130 687 Q1130 780 1121 965 L1111 965 Q929 953 929 921 ZM516 813 L516 767 L526 674 Q746 717 746 738 L746 896 L737 896 Q516 844 516 813 ZM535 619 L535 610 Q535 433 574 434 Q625 436 746 459 L746 682 Q654 660 535 619 Z" /><glyph glyph-name="uni4E1C" unicode="&#x4e1c;" d="M850 1440 Q1029 1332 1029 1242 L1029 1212 Q1029 1181 977 1087 Q1356 1156 1356 1203 Q1410 1205 1556 1108 L1556 1088 Q1556 1057 1514 1056 Q1390 1072 1356 1071 Q913 1017 913 983 Q913 965 871 900 Q974 904 1093 847 L1082 795 L1082 703 L1093 704 Q1114 705 1272 761 Q1388 725 1388 704 L1388 653 Q1360 602 1346 601 Q1141 614 1082 612 L1082 60 Q1082 -113 987 -137 L903 -140 Q840 -142 787 -42 Q871 -19 871 43 L871 594 L829 592 Q740 589 489 452 L382 594 Q482 595 515.5 627.5 Q549 660 703 965 Q437 875 391 873 L201 937 L212 938 Q745 1015 745 1059 Q855 1322 850 1399 L850 1409 L840 1429 Q850 1430 850 1440 ZM554 596 Q871 641 871 665 L871 757 L861 879 Q604 584 554 596 ZM576 491 L587 492 Q678 495 776 376 L776 345 Q776 190 323 -28 Q584 269 597 461 Q576 461 576 481 L576 491 ZM1135 450 L1166 451 Q1533 465 1599 161 L1599 79 Q1599 65 1567 47 L1525 46 Q1451 43 1293 282 Q1219 364 1114 439 L1135 450 Z" /><glyph glyph-name="uni9673" unicode="&#x9673;" d="M116 1259 Q195 1262 256 1196 L247 1145 L247 1137 Q431 1177 431 1262 L449 1263 Q562 1245 562 1174 L562 1165 Q562 1070 379 887 L370 887 L370 878 Q580 851 580 750 Q598 751 598 624 Q598 472 387 387 L361 386 Q258 510 247 509 L247 526 L256 526 Q289 528 379 505 Q492 554 492 671 Q492 786 344 860 Q344 838 238 789 Q300 844 422 1151 L414 1151 Q294 1087 265 1086 L238 1085 L230 1000 L230 797 Q230 788 238 789 Q221 760 221 737 L221 559 Q221 213 256 -16 Q235 -34 221 -35 Q195 -35 72 19 Q90 84 90 139 L90 1173 L81 1232 L116 1259 ZM1040 489 Q1104 438 1300.5 336.5 Q1497 235 1727 164 Q1659 146 1609 120.5 Q1559 95 1525 74 Q1494 54 1475 46 Q1377 72 1292 137.5 Q1207 203 1142.5 280 Q1078 357 1040 416 Q1040 251 1034.5 133.5 Q1029 16 1014 -19 Q1014 -21 1011 -30 Q1004 -57 985 -104 Q966 -151 937 -172 Q923 -177 914.5 -165.5 Q906 -154 899 -136 Q889 -110 871 -90 Q844 -65 810 -42.5 Q776 -20 749 -4 Q728 9 720 15 Q726 15 736 16 Q762 17 799 20.5 Q836 24 866 29.5 Q896 35 902 44 Q913 69 916.5 213 Q920 357 919 557 Q865 543 824 525 Q829 524 835 524 Q852 522 865 521 Q878 520 879 522 Q887 522 896 516 Q905 510 908.5 499 Q912 488 903 474 Q881 419 805 322.5 Q729 226 636 143 Q543 60 471 46 Q481 56 531 110.5 Q581 165 644.5 239 Q708 313 758 382 Q808 451 819 491 Q819 492 815 498.5 Q811 505 806 512 Q805 513 804 515 Q779 503 762 493 Q750 487 742 483 L620 525 Q653 527 691 533 Q687 536 682 536 Q684 536 688 536 Q691 536 695 535 Q690 536 685 536 Q683 536 681 537 Q678 538 675 550.5 Q672 563 670.5 577.5 Q669 592 670 601 Q668 610 648 660 Q628 710 602 772.5 Q576 835 555.5 883 Q535 931 532 936 Q527 942 537.5 946 Q548 950 564 949 Q583 948 605 943 Q728 956 913 993 Q911 1088 910 1164 Q899 1162 891 1160 Q833 1147 809 1136.5 Q785 1126 771 1117 Q765 1113 758 1108 L644 1211 Q810 1221 908 1240 Q905 1350 904 1355 Q902 1358 887.5 1372.5 Q873 1387 854.5 1405 Q836 1423 821.5 1437.5 Q807 1452 804 1454 Q807 1455 810 1455 Q817 1455 834.5 1458 Q852 1461 872 1465 Q893 1469 911 1472 Q929 1475 936 1475 Q950 1473 964.5 1462.5 Q979 1452 993 1439 Q1016 1417 1037 1409 Q1029 1396 1029 1269 Q1063 1282 1077 1292 Q1085 1297 1091.5 1300 Q1098 1303 1107 1304 Q1119 1306 1135 1300 Q1151 1294 1166.5 1285.5 Q1182 1277 1192.5 1270 Q1203 1263 1203 1263 Q1205 1258 1204.5 1248.5 Q1204 1239 1204 1232 Q1203 1229 1203 1228 Q1203 1226 1201.5 1220.5 Q1200 1215 1197.5 1209 Q1195 1203 1193 1201 Q1189 1195 1186 1190 Q1182 1182 1176 1176.5 Q1170 1171 1156.5 1170.5 Q1143 1170 1116 1177 Q1082 1184 1030 1181 Q1031 1106 1032 1018 Q1181 1050 1235 1069 Q1237 1070 1237 1070 Q1249 1075 1257 1081 Q1269 1091 1284 1092 Q1355 1090 1404.5 1041.5 Q1454 993 1453 951 Q1360 791 1336 691 Q1336 691 1329 687 Q1322 683 1311 676 Q1300 669 1287 662 Q1284 660 1281 658 Q1291 653 1298 649.5 Q1305 646 1305 646 Q1306 642 1306 634.5 Q1306 627 1305 621 Q1305 619 1305 618 Q1305 617 1303 612 Q1301 607 1299 602.5 Q1297 598 1295 597 Q1291 592 1288 588 Q1284 581 1278.5 577 Q1273 573 1260 572.5 Q1247 572 1222 577 Q1196 581 1145 579.5 Q1094 578 1039 573 Q1039 530 1040 489 ZM1218 977 Q1112 961 1033 949 Q1034 936 1034 922 Q1035 877 1035 830 Q1056 836 1067.5 842.5 Q1079 849 1086 854 Q1091 858 1096 860.5 Q1101 863 1107 864 Q1115 865 1126 860.5 Q1137 856 1148 849.5 Q1159 843 1166.5 837.5 Q1174 832 1174 832 Q1175 829 1175 821.5 Q1175 814 1174 809 Q1174 806 1174 805 Q1174 804 1172.5 799.5 Q1171 795 1169.5 790.5 Q1168 786 1167 784 Q1164 780 1162 776 Q1159 769 1155 765 Q1151 761 1141.5 760.5 Q1132 760 1113 765 Q1088 770 1036 766 Q1038 696 1038 625 Q1069 633 1091 638 Q1132 646 1153 654 Q1174 662 1184 668 Q1189 670 1193 672 Q1188 685 1186 696 Q1184 704 1182 710 Q1180 716 1176 716 Q1179 716 1184 715 Q1185 715 1187 715 Q1184 715 1181 716 Q1178 716 1176 716 Q1169 719 1162 720 Q1172 721 1178.5 724 Q1185 727 1190 736 Q1192 743 1197 783 Q1202 823 1207.5 876.5 Q1213 930 1218 977 ZM914 930 Q864 922 837 917 Q779 905 750 893.5 Q721 882 705 873 Q702 871 700 870 Q709 818 734 745 Q828 762 917 793 Q916 863 914 930 ZM814 560 Q868 575 919 590 Q918 670 917 751 Q907 749 900 747 Q851 734 825 722 Q799 710 786 700 L743 720 Q778 620 814 560 Z" /><glyph glyph-name="uni56FE" unicode="&#x56fe;" d="M1274 1439 L1295 1440 Q1538 1433 1538 1377 Q1495 1290 1495 1162 Q1495 885 1516 60 Q1516 -42 1422 -137 Q1303 -142 1200 79 Q1186 79 1169 109 L1169 129 L1232 131 Q1278 133 1316 155 Q1295 941 1295 1277 Q1285 1276 1285 1287 Q866 1220 589 1169 Q589 1180 547 1229 L547 1250 Q1253 1340 1253 1418 Q1257 1439 1274 1439 ZM315 1343 Q414 1347 504 1258 Q462 920 462 481 Q462 332 483 74 Q726 103 1074 166 Q1137 145 1137 128 L1137 118 Q1137 65 1105 55 Q473 15 473 -39 L462 -39 Q365 -43 262 45 Q283 148 283 230 L283 1311 Q283 1319 315 1343 ZM631 1161 L673 1162 Q779 1153 779 1125 L779 1115 L768 1043 Q875 1047 947 1111 Q1063 1085 1063 1013 Q1063 967 937 804 Q1208 633 1274 633 L1274 613 Q1256 612 1105 545 Q1018 552 842 709 L831 709 Q747 647 747 634 Q859 638 947 529 L947 499 Q947 446 916 436 L873 435 Q854 434 757 614 L736 624 L726 623 Q589 537 526 534 L526 555 Q558 556 779 778 Q694 863 694 959 Q545 831 515 830 Q641 972 641 1141 L631 1140 L631 1161 ZM705 980 L705 970 Q730 913 842 852 Q916 982 916 1028 Q756 982 705 980 ZM736 420 Q863 424 958 305 Q968 288 968 265 Q968 210 926 192 Q844 189 789 350 Q776 350 736 409 L736 420 Z" /><glyph glyph-name="uni5EA6" unicode="&#x5ea6;" d="M985 1464 L995 1465 Q1008 1465 1079 1386 L1079 1345 Q1079 1313 763 1252 Q763 1232 710 1230 L689 1229 Q626 1279 626 1339 Q821 1346 985 1464 ZM1301 1282 Q1417 1236 1417 1214 L1417 1194 Q1375 1148 1375 1141 Q1339 1140 1322 1150 Q310 1072 310 1011 Q218 1046 215 1069 Q1280 1226 1280 1271 Q1280 1281 1301 1282 ZM1132 1102 Q1166 1103 1227 1065 Q1206 1027 1206 982 L1206 921 Q1347 939 1396 989 Q1463 992 1564 893 L1564 883 Q1564 869 1533 851 Q1516 851 1396 877 Q1303 863 1238 861 L1206 860 L1206 850 Q1206 759 1227 626 Q1181 594 1153 593 Q1107 605 1069 630 L1048 630 Q942 626 942 595 Q942 554 869 552 Q816 550 774 599 Q795 633 795 661 L795 763 L784 763 Q766 762 721 740 L542 795 Q481 -116 331 -121 Q331 -131 299 -132 L278 -133 Q247 -134 236 8 Q349 12 384 993 L415 1015 Q468 1017 552 938 L542 866 L542 805 Q671 820 795 845 L795 1008 Q795 1025 837 1051 Q942 1042 942 1014 Q921 936 921 870 L932 870 Q974 872 1069 896 L1069 1049 Q1099 1101 1132 1102 ZM921 819 L932 656 L942 656 Q1069 679 1069 702 L1069 845 Q948 820 921 819 ZM1216 595 Q1353 513 1353 406 Q1353 304 1164 144 Q1324 25 1585 -76 L1585 -96 Q1401 -121 1301 -168 Q1136 -111 1016 16 Q771 -156 647 -161 Q869 -16 942 115 Q851 251 805 396 L753 364 L679 443 L700 454 L795 457 L805 508 L826 509 Q826 494 847 469 Q1216 512 1216 595 ZM890 409 Q1000 243 1048 211 Q1216 442 1216 483 L1206 482 Q900 424 890 409 Z" /><glyph glyph-name="uni591A" unicode="&#x591a;" d="M687 1427 L748 1429 Q884 1434 920 1366 Q920 1337 870 1247 L880 1247 Q1050 1280 1123 1335 Q1296 1302 1296 1213 Q1293 1126 981 799 L1012 761 Q1012 730 971 622 L981 622 Q1094 637 1225 720 Q1397 674 1397 588 Q1237 177 788 -92 Q591 -197 504 -200 Q1069 219 1194 610 Q1065 576 900 521 L890 521 Q880 520 880 530 Q853 529 778 438 L778 428 Q890 432 930 267 L920 168 L870 167 Q794 164 697 376 L616 324 L596 324 Q644 394 657 395 Q657 409 606 452 L616 472 L667 464 L697 465 Q788 590 788 664 L778 664 Q511 527 403 523 L403 542 Q523 582 768 801 Q768 816 900 914 Q1083 1164 1083 1235 L1072 1235 L809 1156 L788 1165 Q710 1124 687 1083 Q839 1039 839 931 L839 882 Q839 869 809 852 L788 851 Q714 848 606 1021 L586 1030 Q569 990 515 988 Q555 1024 555 1068 Q540 1068 515 1106 L535 1117 Q589 1109 626 1110 Q723 1297 728 1389 Q687 1402 687 1417 L687 1427 Z" /><glyph glyph-name="uni987E" unicode="&#x987e;" d="M1537 1299 Q1681 1242 1685 1213 L1664 1181 L1495 1185 Q1441 1183 1252 1156 L1252 1146 Q1305 1148 1326 1067 Q1255 932 1147 928 L1147 917 L1179 919 Q1371 951 1421 1009 Q1523 976 1590 923 L1579 821 L1579 658 Q1579 615 1590 546 Q1542 340 1390 334 Q1326 397 1326 526 L1316 526 Q1316 207 926 62 L926 73 Q1200 311 1200 654 L1200 674 Q1200 750 1158 836 L1200 838 Q1316 827 1316 791 L1316 689 Q1316 652 1326 597 Q1316 582 1316 536 L1432 540 Q1442 642 1442 693 Q1428 917 1400 916 Q1162 864 1105 844 L1084 691 L1126 386 L1052 312 Q994 310 947 379 L947 400 Q951 420 968 421 Q957 477 957 502 Q957 603 947 920 L968 931 Q1061 925 1084 925 Q1189 1064 1189 1144 L1179 1143 Q1121 1090 1052 1088 Q957 1084 894 1133 L894 1143 Q1527 1234 1527 1299 L1537 1299 ZM219 1241 L230 1241 Q367 1234 367 1144 Q542 1151 820 1242 Q894 1231 894 1204 L894 1194 Q894 1163 852 1162 Q816 1161 799 1170 Q636 1154 378 1114 L378 961 Q378 474 125 166 L114 166 L114 176 Q251 507 251 875 L251 1109 Q251 1196 219 1231 L219 1241 ZM757 1046 Q864 1005 905 980 Q851 601 778 598 Q754 566 704 565 L641 562 Q599 561 588 713 Q633 674 673 676 Q768 679 768 853 L768 945 L757 965 Q588 946 588 928 Q546 615 546 559 Q558 314 673 319 L683 319 Q799 323 799 517 L799 527 L820 528 Q866 387 915 389 L915 378 Q915 233 778 200 L673 196 Q451 188 451 413 L451 566 Q451 890 409 983 Q420 983 420 993 Q544 967 567 968 Q702 973 757 1046 ZM1305 341 Q1621 267 1621 108 L1621 88 Q1621 33 1569 4 L1537 3 Q1455 0 1379 211 L1284 330 L1305 341 Z" /><glyph glyph-name="uni513F" unicode="&#x513f;" d="M763 1143 Q984 1120 984 1069 Q984 990 963 793 Q963 354 1100 359 Q1100 331 1248 324 L1269 324 Q1501 333 1501 527 L1501 578 L1532 579 Q1551 470 1659 390 Q1659 300 1522 201 Q1359 175 1269 171 Q795 154 795 573 Q784 730 784 848 Q784 867 795 1032 L763 1143 ZM499 1093 L510 1093 Q658 1063 658 945 L658 935 Q557 518 341 301 Q179 183 141 182 L141 192 Q398 501 510 1052 L499 1093 Z" /><glyph glyph-name="uni4F60" unicode="&#x4f60;" d="M845 1339 Q999 1301 1045 1220 L1045 1181 Q1045 1102 955 1003 L965 1004 Q1416 1048 1416 1117 Q1416 1146 1436 1147 Q1512 1150 1586 1065 L1586 1046 Q1586 888 1196 634 Q1206 440 1206 343 L1206 198 Q1206 -35 1105 -38 L1035 -41 Q965 4 965 63 Q1025 65 1025 133 L1025 841 Q1025 854 975 888 Q975 874 945 858 Q906 856 855 903 Q761 828 615 729 L605 729 L605 739 Q855 1063 855 1300 Q841 1300 825 1328 L845 1339 ZM354 1234 Q595 1198 595 1078 Q595 991 495 880 Q495 870 505 871 L474 550 L484 492 Q484 275 515 18 Q478 -13 444 -14 L424 -15 Q392 -16 294 39 L294 68 Q324 69 324 118 L324 680 L314 680 L154 557 L144 557 L144 567 Q374 879 374 1157 Q374 1190 344 1224 Q354 1224 354 1234 ZM995 888 Q1119 893 1206 838 Q1196 741 1196 692 L1196 663 Q1338 826 1376 990 L1376 999 Q995 933 995 888 ZM795 581 L805 581 Q876 584 945 499 L945 450 Q945 329 585 156 Q805 402 805 552 Q795 571 795 581 ZM1356 582 Q1656 500 1656 311 Q1636 175 1606 174 Q1492 170 1446 420 L1356 562 L1356 582 Z" /><glyph glyph-name="uni60A8" unicode="&#x60a8;" d="M891 1385 Q1064 1357 1064 1258 Q1029 1173 995 1130 L1003 1130 Q1340 1164 1340 1201 Q1340 1234 1357 1235 Q1464 1239 1478 1156 L1478 1147 Q1478 1047 1176 835 Q1176 807 1185 593 Q1185 418 1098 415 L1055 413 Q995 449 995 495 Q1047 511 1047 572 Q1047 698 1038 1014 L1003 1038 Q1003 1013 969 1012 Q933 1022 917 1052 Q742 920 719 919 Q908 1182 908 1352 L891 1377 L891 1385 ZM477 1353 L485 1354 Q684 1326 684 1227 L684 1210 Q684 1148 606 1049 Q589 792 589 747 Q589 702 615 406 Q566 379 546 378 Q441 412 425 449 Q438 449 451 475 L451 876 Q396 837 201 666 L192 666 Q494 1108 494 1245 L494 1312 L477 1337 L477 1353 ZM1021 1039 Q1115 1042 1185 995 L1176 936 L1176 860 L1185 861 Q1314 1063 1314 1116 Q1021 1077 1021 1039 ZM865 874 Q986 834 986 753 Q986 640 710 476 L710 484 Q853 685 865 807 L865 849 L857 866 Q865 866 865 874 ZM1280 848 Q1530 749 1530 639 L1530 606 Q1525 489 1487 487 L1470 487 Q1386 484 1349 691 Q1311 770 1262 830 Q1266 847 1280 848 ZM961 393 Q1125 381 1125 257 L1125 223 Q1125 205 1065 188 Q851 355 814 354 L814 371 Q883 390 961 393 ZM1367 399 L1436 402 Q1608 408 1608 266 L1608 241 Q1603 216 1539 213 L1531 213 Q1395 331 1298 380 Q1329 398 1367 399 ZM481 377 Q508 378 533 204 Q495 10 395 6 L386 6 Q352 16 352 80 Q455 286 473 377 L481 377 ZM581 270 L590 271 Q893 48 1280 62 L1323 63 Q1341 64 1341 81 Q1315 180 1315 239 L1332 239 Q1332 197 1487 161 L1496 120 Q1442 -66 1315 -71 L1289 -72 Q866 -87 590 237 L581 270 Z" /><glyph glyph-name="uni6700" unicode="&#x6700;" d="M1585 837 Q1587 832 1587.5 821.5 Q1588 811 1588 803 Q1588 799 1588 798 Q1588 796 1587 790 Q1586 784 1584.5 777.5 Q1583 771 1582 769 Q1576 759 1551 763.5 Q1526 768 1494 778 Q1453 791 1419 795 Q1327 802 1173 782 Q1019 762 848 729 Q869 717 886 705 Q908 690 924 683 Q894 586 895 387.5 Q896 189 906 4 Q914 -171 910 -232 Q910 -232 904 -236 Q898 -240 889 -246.5 Q880 -253 870 -260 Q855 -270 844 -278 Q833 -286 832 -286 Q794 -281 774 -251 Q754 -221 743 -193 Q738 -180 733.5 -171.5 Q729 -163 724 -162 Q727 -162 733 -163 Q735 -164 737 -164 Q733 -163 729 -163 Q726 -162 723 -162 Q715 -158 706 -155 Q718 -154 725.5 -149.5 Q733 -145 738 -130 Q739 -120 743 -34.5 Q747 51 752 173 Q675 119 590 51 Q505 -17 441 -89 Q421 -111 397 -111 Q373 -111 359 -88 Q344 -62 321.5 -34.5 Q299 -7 279.5 11.5 Q260 30 253 29 Q313 46 448 99 Q427 132 419 166 Q415 180 411.5 189 Q408 198 404 199 Q407 199 413 198 Q415 197 417 197 Q413 198 409 198 Q406 199 403 199 Q394 203 386 206 Q398 207 405 211.5 Q412 216 418 231 Q419 241 419.5 297.5 Q420 354 419 426.5 Q418 499 417 559 Q416 619 415 635 Q302 607 291 600 L183 692 Q234 696 399 721.5 Q564 747 764.5 781.5 Q965 816 1122 844.5 Q1279 873 1312 883 Q1343 893 1359 903.5 Q1375 914 1383 922 Q1388 927 1393 930.5 Q1398 934 1404 935 Q1414 936 1442 921.5 Q1470 907 1503 887.5 Q1536 868 1560.5 852.5 Q1585 837 1585 837 ZM759 378 Q762 445 764 505 Q763 503 763 502 Q759 496 743.5 489.5 Q728 483 709 480 Q690 477 675 482 Q664 485 637.5 482 Q611 479 581 474 Q573 405 575 338 Q591 345 608 351 Q621 357 634 362 Q651 368 659.5 373.5 Q668 379 673 383 Q676 385 679.5 387 Q683 389 687 390 Q694 390 716.5 386 Q739 382 759 378 ZM578 150 Q674 188 753 221 Q755 272 757 324 Q742 318 723 315.5 Q704 313 690 317 Q677 321 642 316.5 Q607 312 575 305 Q576 277 577 251 Q579 194 578 150 ZM768 684 Q766 688 764 696 Q762 702 759 712 Q639 688 537 664 Q548 655 557 646 Q586 617 611 604 Q595 560 587 514 Q590 515 593 516 Q606 521 619 527 Q636 533 644.5 538.5 Q653 544 658 547 Q661 550 664.5 551.5 Q668 553 672 554 Q678 555 697.5 551.5 Q717 548 737 543.5 Q757 539 765 538 Q767 602 768 641.5 Q769 681 768 684 ZM1348 341 Q1463 290 1526 211 Q1589 132 1559 33 Q1478 4 1437.5 27.5 Q1397 51 1369 94 Q1356 111 1342 127 Q1308 163 1227 228 Q1131 157 1054 126 Q977 95 939 86 Q921 82 916 79 Q929 92 956 114 Q1034 176 1143 296 Q1089 337 1065 355 Q1047 367 1027 374 Q1012 379 1000.5 386 Q989 393 987 406 Q1094 416 1212 388 Q1277 483 1299 595 Q1254 593 1224.5 586 Q1195 579 1138 559 Q1119 553 1095 545 L1016 604 Q1076 612 1153 636 Q1230 660 1266 676 Q1285 685 1293 693.5 Q1301 702 1305 709 Q1308 713 1310.5 715.5 Q1313 718 1317 720 Q1320 720 1341.5 711.5 Q1363 703 1390.5 691.5 Q1418 680 1438.5 670.5 Q1459 661 1461 659 Q1478 638 1481 599.5 Q1484 561 1465 500 Q1408 408 1348 341 ZM455 1206 Q416 1288 402 1297 Q406 1298 410 1298 Q411 1298 412 1298 Q429 1298 446 1297 Q474 1295 501 1294 Q530 1292 547 1288.5 Q564 1285 581 1279 Q596 1274 619 1268 Q619 1268 619 1268 Q619 1268 618 1268 Q692 1279 780.5 1297 Q869 1315 926 1327 Q937 1329 946 1331 Q954 1333 969 1344 Q984 1355 1002 1370 Q1026 1390 1048.5 1405.5 Q1071 1421 1082 1422 Q1103 1419 1128.5 1401 Q1154 1383 1180 1361 Q1221 1324 1251 1312 Q1213 1219 1204 1155.5 Q1195 1092 1195 1039 Q1195 997 1190 952 Q1189 951 1174 935 Q1159 919 1140 899 Q1120 878 1105 862 Q1090 846 1088 845 Q1045 848 1027.5 869 Q1010 890 1005 911 Q1001 920 998 926 Q995 932 990 933 Q993 933 998 932 Q1001 932 1005 932 Q1000 932 995 933 Q992 933 989 933 Q979 937 968 939 Q984 941 993 947 Q892 930 798.5 911 Q705 892 670 884 Q657 881 647 878 Q647 878 647 877 Q648 876 648 875 Q637 875 621 865 Q605 855 589.5 843 Q574 831 566 823 Q562 819 561 819 Q510 821 487 835 Q464 849 455 863 Q450 869 445 873 Q440 877 434 878 Q438 877 444 877 Q448 877 452 876 Q445 877 438 878 Q436 878 433 878 Q429 880 430.5 894.5 Q432 909 436.5 926 Q441 943 446 954 Q449 965 456.5 1014.5 Q464 1064 466.5 1120 Q469 1176 455 1206 ZM600 1196 Q595 1138 601 1085 Q693 1112 758 1134 Q778 1140 789 1144 Q808 1150 818 1156.5 Q828 1163 833 1169 Q836 1172 839 1174.5 Q842 1177 846 1177 Q852 1178 867.5 1173 Q883 1168 901.5 1161 Q920 1154 933.5 1149 Q947 1144 947 1144 Q947 1140 947 1133 Q947 1126 947 1121 Q947 1119 947 1118 Q947 1117 946 1112.5 Q945 1108 944 1104 Q943 1100 942 1099 Q940 1094 939 1091 Q937 1085 934 1081 Q931 1077 925 1077 Q919 1077 907 1083 Q895 1087 843 1078.5 Q791 1070 726 1055 Q661 1040 610 1025 Q617 984 628 938 Q701 948 789 965.5 Q877 983 936 995 Q953 999 964 1001 Q988 1006 1008 1012 Q1009 1134 1005 1283 Q895 1263 796 1242.5 Q697 1222 660 1214 Q623 1206 600 1196 Z" /><glyph glyph-name="uni9AA4" unicode="&#x9aa4;" d="M1316 1448 Q1416 1404 1416 1383 L1416 1364 Q1416 1344 1396 1344 L1276 1339 Q1211 1337 1075 1322 Q1091 1284 1106 1285 L1096 1168 L1096 867 Q1136 869 1186 803 Q1186 790 1156 773 L1096 771 L1096 761 Q1086 557 995 554 Q975 572 955 756 L895 754 Q875 750 875 733 Q885 734 885 724 Q865 721 865 704 Q845 703 765 729 Q756 729 705 688 L575 723 L575 742 L585 742 Q735 748 735 796 Q745 833 745 884 Q745 963 735 1233 Q685 1202 655 1201 Q599 1228 575 1227 L575 1246 Q972 1309 1296 1427 Q1300 1447 1316 1448 ZM1536 1320 Q1606 1246 1606 1196 L1606 1148 Q1606 1077 1496 930 L1496 921 Q1542 897 1756 736 L1756 727 Q1689 724 1576 672 Q1519 684 1386 830 Q1386 823 1266 719 Q1376 656 1376 596 Q1301 536 1256 534 L1266 515 Q1246 363 1246 252 L1246 -97 Q1246 -111 1186 -147 L1176 -148 Q1162 -148 1116 -82 L1126 -14 L1126 490 Q1070 479 1045 478 L1045 468 Q1106 407 1106 402 L1106 383 Q1106 284 775 167 Q1025 398 1025 458 Q1015 457 1015 467 Q890 443 865 442 L865 462 Q1256 621 1256 718 Q1202 677 1156 676 L1156 685 Q1298 813 1346 906 Q1266 1083 1266 1145 L1216 1134 L1176 1190 Q1256 1208 1256 1251 L1276 1252 Q1276 1223 1296 1224 Q1526 1259 1526 1319 L1536 1320 ZM785 1244 Q875 1199 875 1179 Q855 1117 855 1111 L865 1111 L955 1134 L955 1279 Q825 1245 785 1244 ZM1316 1166 Q1382 1028 1416 1005 Q1436 1025 1526 1222 L1516 1222 Q1363 1195 1316 1166 ZM485 1117 Q552 1119 635 1025 Q535 764 535 585 Q571 587 615 627 Q755 588 755 545 Q652 56 595 54 Q547 -25 485 -27 L465 -28 Q427 -18 334 151 L354 152 Q458 146 475 147 Q540 149 575 325 Q556 315 545 314 Q435 316 435 330 Q425 329 184 272 L44 296 L44 315 Q243 323 445 417 Q575 370 575 335 L585 335 Q605 508 605 539 Q480 535 244 458 Q180 482 174 504 Q214 551 214 661 Q204 864 204 942 Q258 983 304 984 L364 909 Q334 784 334 724 L334 549 L384 551 L405 561 L395 580 Q425 760 445 1018 L425 1018 Q294 1013 124 949 Q84 967 54 965 L54 985 Q465 1063 465 1116 L485 1117 ZM855 1072 L855 956 L865 956 Q890 957 955 979 L955 1085 L855 1072 ZM885 918 L855 917 L865 801 Q912 822 955 824 L955 930 L885 918 ZM1506 475 Q1586 439 1586 371 Q1484 293 1366 276 L1366 266 Q1544 84 1656 64 L1656 44 L1486 -1 Q1326 88 1326 168 Q1256 301 1256 369 L1276 380 Q1333 294 1346 295 L1356 295 Q1466 383 1506 475 ZM1025 264 L1045 265 Q1106 233 1106 179 Q1106 91 775 -26 Q1008 173 1025 264 Z" /><glyph glyph-name="uni6444" unicode="&#x6444;" d="M1265 1402 Q1360 1346 1360 1332 L1360 1304 Q1360 1286 1331 1285 Q1236 1295 1236 1309 Q1219 1299 1208 1299 Q1250 1245 1255 1246 Q1246 1061 1246 970 L1246 786 Q1276 787 1464 849 L1559 779 L1559 770 L1531 732 L1483 739 L1388 736 Q1236 730 1236 694 Q1236 670 1180 591 L1199 545 Q1445 590 1445 655 L1455 656 Q1578 587 1578 486 Q1557 416 1398 259 Q1648 25 1701 22 L1701 -6 Q1598 -10 1512 -68 Q1341 38 1284 163 Q1174 76 1113 74 L1113 83 Q1236 199 1236 234 Q1208 276 1170 471 L1142 451 L1132 451 Q1085 491 1085 523 Q1170 537 1170 581 L1161 581 Q1144 571 1123 570 L1113 616 L1113 708 L1018 704 L1018 649 L1009 649 Q983 648 876 681 L819 679 Q761 676 696 628 Q583 667 582 679 L582 688 Q876 699 876 745 Q885 781 885 819 L885 1232 L876 1232 Q829 1202 800 1201 Q705 1245 705 1253 L705 1262 L734 1263 Q931 1270 1255 1392 Q1255 1402 1265 1402 ZM923 1261 L923 1252 Q997 1235 1028 1191 Q1018 1168 1018 1090 Q1113 1112 1113 1130 L1113 1286 L1104 1286 Q1038 1284 923 1261 ZM402 1169 Q520 1129 534 1100 Q506 853 506 823 Q563 825 563 862 L572 863 Q620 864 658 820 L658 801 L629 764 L534 769 L506 768 L506 548 L601 579 L610 579 L610 561 Q506 496 506 465 Q506 276 534 16 Q512 -3 496 -4 Q455 -5 354 65 L364 175 L364 359 Q249 226 240 226 L145 360 L145 369 Q167 395 364 469 L364 736 L335 734 Q219 684 212 684 Q98 729 98 744 L364 791 L364 1140 Q364 1153 402 1169 ZM999 1034 L999 933 Q1113 953 1113 974 L1113 1038 Q1113 1057 1094 1056 L1018 1053 Q999 1050 999 1034 ZM999 896 L999 850 L1009 741 Q1093 753 1113 754 L1113 900 L999 896 ZM980 629 Q1056 539 1056 467 L1056 439 Q1056 359 933 187 L1218 -23 L1218 -33 Q1072 -57 1028 -104 Q942 -63 819 82 Q681 -78 582 -92 L572 -93 L572 -74 Q671 -15 781 163 Q743 226 686 435 L648 415 Q610 451 610 496 Q686 499 686 545 L705 546 Q705 518 724 519 Q971 557 971 629 L980 629 ZM1227 491 L1312 311 Q1436 475 1436 545 Q1292 521 1227 491 ZM743 455 Q812 313 857 267 Q961 495 961 518 Q743 469 743 455 Z" /><glyph glyph-name="uni4E8C" unicode="&#x4e8c;" d="M1213 1098 Q1294 1084 1355 993 L1355 975 Q1355 947 1317 946 Q1128 985 1099 984 Q947 978 397 848 Q325 865 283 908 L283 917 L1213 1098 ZM1545 531 Q1652 489 1659 462 L1659 434 Q1640 351 1612 350 L1602 350 Q1423 371 1346 368 L1327 367 Q926 353 264 200 Q158 251 141 251 L141 269 L1545 531 Z" /><glyph glyph-name="uni8BBF" unicode="&#x8bbf;" d="M1246 1366 Q1322 1282 1322 1221 Q1322 1087 876 1021 L876 1040 Q1148 1166 1228 1337 Q1228 1365 1246 1366 ZM601 1223 L630 1224 L696 1098 Q696 994 298 964 L250 962 L250 980 Q601 1108 601 1223 ZM1503 1081 Q1569 1083 1692 987 L1692 978 Q1692 965 1664 949 Q1620 947 1512 962 Q1478 961 1171 922 Q1237 867 1237 786 Q1237 765 1199 693 L1218 694 Q1358 699 1474 740 Q1531 724 1607 635 L1389 167 Q1258 -58 1104 -63 Q1008 -67 990 89 L971 152 L981 153 Q1032 118 1066 119 L1133 121 Q1277 226 1389 562 Q1389 627 1398 636 Q1364 653 1322 652 L1190 647 Q1059 415 943 289 Q773 154 696 151 L696 161 Q986 467 1114 883 L1114 911 Q1026 907 905 820 L696 859 L696 877 Q1503 1020 1503 1081 ZM554 918 Q637 889 706 822 L706 813 Q639 765 639 572 L639 526 L649 526 L772 623 L772 604 Q668 408 506 172 Q487 98 487 80 L478 79 Q429 77 269 173 Q497 354 497 392 Q516 462 516 522 L516 797 L487 796 Q454 795 250 705 Q222 704 108 736 L108 755 L127 755 Q287 761 516 880 Q516 895 554 918 Z" /><glyph glyph-name="uni623F" unicode="&#x623f;" d="M890 1458 Q966 1409 966 1360 L966 1351 Q966 1315 719 1250 Q719 1237 672 1211 Q615 1292 615 1338 L643 1339 Q763 1343 890 1458 ZM1156 1293 Q1203 1295 1270 1242 Q1241 1158 1241 1103 L1241 956 Q1241 938 1213 937 Q1194 936 1042 949 Q1080 887 1080 840 L1080 831 Q1063 729 871 722 Q670 734 643 733 L643 751 Q811 757 1023 939 L1023 948 L1013 948 Q662 906 549 858 Q518 875 492 874 L492 865 Q492 714 473 589 Q617 594 928 669 L928 679 Q919 697 919 706 L938 716 L994 681 Q1374 750 1421 798 Q1471 798 1592 712 L1592 703 Q1592 675 1554 674 Q1534 673 1421 687 L1023 645 L1023 636 Q1032 620 1032 600 L1032 563 Q1032 541 1004 479 L1013 480 Q1100 483 1251 516 L1270 516 Q1283 517 1364 428 Q1175 -148 947 -157 L938 -157 Q851 -160 833 5 L814 41 L824 41 Q890 7 919 8 L938 8 Q1086 14 1184 431 Q1142 448 1061 445 L994 442 Q895 305 805 206 Q613 61 568 59 Q900 490 900 622 Q775 618 662 531 L643 531 Q609 529 473 570 Q404 7 245 2 Q213 1 207 147 Q311 151 368 1228 L387 1238 L406 1238 Q441 1240 539 1170 Q800 1179 1127 1274 Q1127 1292 1156 1293 ZM558 1115 L511 1123 L511 921 Q749 929 1080 1015 L1080 1199 L1070 1198 Q922 1193 558 1115 Z" /><glyph glyph-name="uni5206" unicode="&#x5206;" d="M728 1021 Q724 1017 719 1013 Q671 975 586 914 Q501 853 391.5 793 Q282 733 160 698 Q184 724 230 770 Q299 839 377.5 924 Q456 1009 501 1082 Q498 1104 485 1128.5 Q472 1153 456 1171 Q473 1178 491 1185 Q516 1195 536 1204.5 Q556 1214 560 1224 Q579 1218 622.5 1184.5 Q666 1151 700.5 1106 Q735 1061 728 1021 ZM1014 1305 Q1041 1296 1094 1239 Q1142 1187 1224.5 1118.5 Q1307 1050 1434.5 988 Q1562 926 1746 894 Q1715 883 1661 852.5 Q1607 822 1553 790 Q1498 756 1469 740 Q1344 774 1256.5 855.5 Q1169 937 1114.5 1026.5 Q1060 1116 1034 1174 Q1019 1205 1011 1217 Q1004 1226 999 1236 Q992 1251 975.5 1264.5 Q959 1278 912 1289 Q947 1294 963 1302 Q974 1306 985 1308 Q996 1310 1014 1305 ZM1058 795 Q1060 796 1086 787.5 Q1112 779 1150 762.5 Q1188 746 1224.5 724.5 Q1261 703 1282 679 Q1253 637 1221 500 Q1198 408 1163.5 298.5 Q1129 189 1075 85 Q1067 73 1034.5 48.5 Q1002 24 968.5 2.5 Q935 -19 926 -23 Q892 -33 874.5 -5.5 Q857 22 844 63 Q835 90 823.5 114.5 Q812 139 795 154 Q812 156 838 155 Q886 151 930 163 Q942 180 973 260 Q1004 340 1030.5 455 Q1057 570 1053 688 Q943 661 826 623 Q848 607 864 586 Q880 565 874 543 Q869 537 858 522 Q822 471 742.5 377 Q663 283 560 197.5 Q457 112 350 88 Q467 197 580.5 358.5 Q694 520 738 596 Q632 563 584 561 L516 684 Q623 672 736.5 693 Q850 714 932 741 Q1014 768 1027 775 Q1027 775 1027 775 Q1027 775 1027 775 Q1028 776 1030 778 Q1035 782 1042.5 787 Q1050 792 1058 795 Z" /><glyph glyph-name="uni7ED1" unicode="&#x7ed1;" d="M855 1344 Q897 1338 990 1253 L972 1148 L981 1148 Q1011 1149 1071 1195 Q1162 1182 1162 1146 Q1140 1093 1125 1092 L972 1086 L972 929 L963 912 L981 912 Q1042 958 1071 959 Q1166 963 1171 919 Q1171 893 1116 865 Q1055 871 1017 870 L981 869 Q963 866 963 851 L963 755 L954 693 L963 693 Q996 712 1089 742 Q1187 708 1198 676 Q1181 636 1162 631 L1116 629 L1089 646 L1044 644 Q945 640 945 597 Q900 133 747 127 Q735 127 693 247 Q680 247 639 298 L639 306 Q755 311 774 530 Q774 536 783 582 L774 582 Q664 552 621 550 Q605 550 576 566 L278 450 L206 396 Q179 429 152 507 Q239 574 413 831 L413 848 Q295 798 188 648 Q176 647 98 767 Q244 893 323 1229 Q323 1272 341 1273 Q468 1155 468 1129 Q457 1126 242 842 L251 842 Q468 950 468 1033 L486 1034 Q594 982 594 951 Q524 793 296 538 Q486 587 486 650 L513 651 Q593 607 594 593 Q613 602 792 644 Q801 762 801 818 L801 827 Q688 797 666 796 Q624 821 612 820 L612 838 Q782 844 810 880 L810 1002 L819 1046 L810 1046 Q755 1044 630 1004 Q588 1029 576 1028 L576 1046 Q603 1047 819 1098 L819 1308 Q819 1322 855 1344 ZM1549 1273 Q1666 1237 1666 1173 Q1666 1087 1477 878 L1477 869 Q1675 876 1702 650 L1702 642 Q1702 433 1468 371 L1441 370 Q1365 490 1342 489 L1342 271 Q1342 -43 1243 -47 Q1207 4 1207 109 L1207 1008 Q1207 1021 1234 1035 L1243 1035 Q1300 1037 1351 969 Q1342 850 1342 803 Q1377 804 1522 1150 L1513 1150 Q1289 1063 1252 1062 Q1171 1064 1171 1085 L1171 1094 Q1494 1162 1531 1264 L1549 1273 ZM1432 850 Q1390 794 1342 786 L1342 515 Q1456 493 1486 494 Q1559 497 1585 646 L1585 672 Q1585 800 1432 850 ZM585 418 Q570 378 287 206 Q260 177 260 162 L242 161 Q160 235 152 298 Q197 299 585 418 Z" /><glyph glyph-name="uni9022" unicode="&#x9022;" d="M865 1432 L885 1433 Q1034 1432 1034 1371 Q1014 1309 1014 1293 Q1220 1356 1222 1397 Q1371 1376 1371 1297 Q1371 1239 1212 1041 L1212 1032 Q1382 951 1728 849 L1728 839 Q1547 746 1519 745 Q1356 739 1103 932 Q759 679 647 675 L647 685 Q953 911 1024 996 L1024 1006 Q925 1117 925 1165 L925 1204 L935 1204 Q1000 1144 1093 1095 L1113 1095 L1212 1310 Q999 1225 964 1224 L944 1233 Q799 1071 726 1033 L716 1033 L716 1042 Q875 1231 875 1375 L875 1384 Q875 1403 845 1402 L845 1412 Q849 1431 865 1432 ZM459 1177 L469 1177 Q528 1145 528 1064 Q528 974 161 936 L161 955 Q459 1101 459 1177 ZM548 969 Q657 954 657 877 L657 868 Q657 782 379 560 Q518 583 518 642 L538 642 Q617 591 617 540 Q617 493 508 353 L508 344 Q1003 122 1063 124 Q1044 160 1044 229 L1044 334 Q897 300 796 268 Q764 286 746 285 L746 295 Q746 312 1044 382 L1044 402 L1034 488 Q855 443 835 442 Q796 455 796 469 L1034 526 L1034 641 L865 597 Q825 610 825 624 L1034 680 L1034 718 Q1034 753 1024 804 Q1039 843 1054 844 L1063 844 Q1146 847 1192 781 L1182 723 Q1291 766 1331 767 Q1391 750 1391 721 Q1376 682 1361 682 L1182 675 L1182 560 L1401 626 Q1454 628 1470 590 L1440 541 L1371 548 L1182 522 L1182 416 L1192 417 Q1236 418 1470 484 Q1536 460 1549 430 L1549 420 L1529 390 Q1517 390 1430 396 Q1182 378 1182 349 L1182 263 Q1159 118 1103 116 L1103 106 Q1373 39 1668 21 L1668 12 Q1363 -124 1341 -125 Q1057 -135 568 202 Q508 273 459 294 L449 294 Q182 82 72 69 L72 78 Q441 407 469 534 L369 531 L320 539 Q241 459 191 457 Q390 667 508 843 L508 853 Q305 778 280 777 Q272 777 201 784 L201 793 Q213 808 459 889 L548 969 Z" /><glyph glyph-name="uni98CE" unicode="&#x98ce;" d="M315 1255 L326 1255 Q550 1218 557 1151 Q1211 1216 1211 1277 Q1230 1288 1253 1289 L1264 1289 Q1324 1258 1348 1221 Q1295 1066 1295 790 Q1295 379 1401 212 L1411 213 Q1530 291 1612 332 Q1612 322 1622 322 Q1591 269 1591 219 Q1591 160 1612 97 Q1595 51 1548 24 L1517 22 Q1137 9 1137 560 L1137 835 Q1137 1162 1106 1161 Q905 1154 557 1069 L557 886 Q584 887 810 783 L810 793 Q853 890 874 1020 Q853 1019 853 1039 L853 1060 L863 1060 Q969 1064 1032 893 Q1032 807 937 695 Q1081 531 1095 436 Q1082 343 1053 342 L1011 341 Q895 417 832 559 L821 559 Q606 367 568 366 Q726 565 747 668 Q559 854 547 855 L547 783 Q547 194 294 70 Q256 48 210 46 L178 45 L178 66 Q318 71 357 746 L357 981 Q357 1169 315 1255 Z" /></font>
</defs>
</svg>
