<?xml version="1.0" standalone="no"?><!DOCTYPE svg PUBLIC "-//W3C//DTD SVG 1.1//EN" "http://www.w3.org/Graphics/SVG/1.1/DTD/svg11.dtd" ><svg xmlns="http://www.w3.org/2000/svg"><metadata></metadata><defs><font id="fonteditor" horiz-adv-x="2200"><font-face font-family="e°u[_+OS" font-weight="400" font-stretch="normal" units-per-em="2048" panose-1="3 0 6 0 0 0 0 0 0 0" ascent="1400" descent="-500" x-height="0" bbox="-233 -622 2152 1820" underline-thickness="150" underline-position="-217" unicode-range="U+0027-ff0d" /><missing-glyph horiz-adv-x="2200" d="M781 -362 L781 1359 L2020 1359 L2020 -362 L781 -362 ZM877 -266 L1924 -266 L1924 1263 L877 1263 L877 -266 Z" /><glyph glyph-name="quotesingle" unicode="&#39;" d="M201 1147 Q201 1148 203 1148 Q243 1164 294 1149 Q297 1148 298 1147 Q298 1144 298 921 Q288 884 273 859 Q259 829 243 833 Q229 836 219 860 Q217 857 201 924 L201 1147 Z" /><glyph glyph-name="parenleft" unicode="(" d="M298 1145 Q300 1149 305 1151 Q338 1167 365 1156 Q396 1141 404 1086 Q405 1080 403 1076 Q351 995 316 902 Q224 661 256 388 Q264 328 275 278 Q280 233 293 172 Q307 97 343 -31 Q373 -127 375 -142 Q381 -173 368 -170 Q337 -160 278 -55 Q279 -59 272 -46 Q264 -32 255 -13 Q235 28 231 37 Q214 75 205 97 Q178 167 164 214 Q157 236 153 254 Q150 264 149 269 Q141 302 132 373 Q95 677 198 946 Q238 1053 298 1145 Z" /><glyph glyph-name="parenright" unicode=")" d="M129 1076 Q128 1080 129 1084 Q134 1117 153 1135 Q180 1164 233 1139 Q239 1136 242 1132 Q286 1040 318 924 Q328 890 348 792 Q364 677 364 656 Q369 586 369 589 L370 521 L370 487 Q370 488 368 453 L364 386 Q364 370 358 326 L350 266 Q348 254 344 233 Q340 222 333 198 Q324 164 320 153 Q318 144 313 129 Q307 110 305 103 Q302 94 295 77 Q288 58 284 50 Q283 47 263 -2 Q248 -39 241 -51 Q169 -193 157 -166 Q147 -143 176 -24 Q175 -29 208 132 Q212 156 217 194 Q223 239 224 247 Q226 257 226 269 Q227 284 227 286 Q228 295 228 300 L234 348 Q239 378 239 396 L243 458 Q245 492 245 490 L244 521 L244 584 Q244 578 239 646 Q239 660 224 770 Q205 862 197 891 Q168 996 129 1076 Z" /><glyph glyph-name="comma" unicode="," d="M232 185 Q241 183 241 183 Q292 170 305 123 Q305 123 309 111 L309 81 L306 75 Q295 1 240 -51 Q208 -81 114 -116 Q148 -71 157.5 -54 Q167 -37 178 -9 Q115 -5 97 58 Q97 58 94 63 L94 93 Q96 100 97 100 Q110 165 178 182 L191 185 L232 185 Z" /><glyph glyph-name="hyphen" unicode="-" d="M30 601 Q35 607 35 608 Q55 658 111 658 Q175 659 349 665 Q351 666 407 671 L552 671 Q568 667 569 667 Q774 654 777 653 Q793 652 988 623 L988 612 Q925 592 922 591 Q858 581 691 558 Q575 542 100 521 Q68 520 44 550 Q43 550 30 569 L30 601 Z" /><glyph glyph-name="zero" unicode="0" d="M660 1107 L686 1107 Q753 1092 753 1066 Q753 1057 743 1035 L717 1040 Q691 1040 649 1014 L649 1003 Q835 949 915 853 Q977 728 977 603 Q977 378 748 213 Q631 135 509 135 L467 135 Q331 135 254 281 Q223 319 223 395 L223 442 Q247 705 400 936 Q436 970 436 988 Q431 988 389 1050 L400 1055 Q476 1045 483 1045 L488 1045 Q500 1045 582 1097 Q631 1107 660 1107 ZM571 941 Q429 789 374 509 Q348 416 348 327 Q355 234 379 234 L395 234 Q652 234 811 499 Q852 600 852 681 Q852 850 769 879 Q657 941 571 941 Z" /><glyph glyph-name="one" unicode="1" d="M527 1339 Q557 1339 610 1250 Q631 1214 631 1067 Q573 741 537 490 Q516 357 511 130 Q516 104 516 36 L516 17 Q495 -8 495 -13 Q443 -13 355 96 Q355 665 501 1201 Q516 1339 527 1339 Z" /><glyph glyph-name="four" unicode="4" d="M751 1334 Q803 1319 803 1303 Q803 1292 792 1292 Q803 1273 803 1251 L803 1173 Q766 867 766 809 L771 772 L745 559 Q1037 663 1037 746 Q1037 752 1042 762 Q1042 823 959 1001 L969 1006 L1021 933 Q1182 826 1182 689 L1182 658 Q1182 558 870 450 Q742 405 725 393 L725 346 Q725 334 730 325 Q704 64 667 13 Q667 -3 605 -13 Q605 -39 589 -39 L584 -39 Q559 -25 558 -18 Q569 30 569 39 Q569 62 563 195 L584 361 Q340 304 319 304 L272 304 Q110 304 59 439 L59 471 Q59 621 179 897 Q244 1070 371 1292 Q439 1263 439 1219 L439 1199 Q439 1183 371 1027 Q262 786 199 580 L168 398 L189 398 Q237 398 600 512 Q641 809 657 1037 Q711 1329 740 1329 L751 1334 Z" /><glyph glyph-name="eight" unicode="8" d="M456 1370 L531 1344 Q531 1365 574 1370 Q981 1292 981 1086 L981 1075 Q981 917 643 775 Q591 753 552 753 L568 732 Q546 716 525 716 L525 711 Q793 671 960 528 Q1014 448 1014 405 L1014 362 Q1014 212 584 45 Q539 40 509 40 L488 40 Q252 40 182 255 L182 287 Q182 440 327 646 Q386 748 434 748 L434 753 Q295 753 187 893 Q166 931 166 984 Q166 1211 381 1349 Q404 1365 456 1370 ZM584 1279 L542 1236 Q515 1252 515 1268 Q412 1232 338 1113 Q289 1018 289 957 L289 877 Q289 850 386 845 L434 845 Q620 845 853 1065 Q869 1103 869 1113 L869 1167 Q861 1255 584 1279 ZM450 657 Q431 606 354 464 Q289 321 289 228 Q289 126 429 126 Q586 140 837 308 Q896 378 896 410 L896 442 Q896 539 719 582 Q505 619 450 657 Z" /><glyph glyph-name="colon" unicode=":" d="M320 819 Q362 819 392 789 Q422 759 422 716 Q422 674 392 644 Q362 614 320 614 Q277 614 247.5 644 Q218 674 218 716 Q218 759 247.5 789 Q277 819 320 819 ZM320 336 Q362 336 392 306 Q422 276 422 233 Q422 191 392 161 Q362 131 320 131 Q277 131 247.5 161 Q218 191 218 233 Q218 276 247.5 306 Q277 336 320 336 Z" /><glyph glyph-name="A" unicode="a" d="M570 1372 Q702 1372 702 1304 Q725 1304 778 687 L793 508 L844 508 Q890 508 890 462 Q890 444 806 419 Q806 362 891 -61 L868 -84 Q828 -84 792 -48 Q783 -48 731 28 Q726 28 668 92 L678 112 Q703 112 754 74 L754 61 Q726 186 696 390 Q435 325 354 269 Q354 256 352 256 L350 260 Q350 246 330 236 L324 236 Q307 236 286 250 Q241 83 206 20 L180 20 Q151 20 149 30 L135 28 Q109 39 105 58 Q119 69 130 136 Q256 565 467 1134 Q546 1326 570 1372 ZM627 1208 Q322 396 322 363 Q418 415 685 478 L619 1208 L627 1208 Z" /><glyph glyph-name="F" unicode="f" d="M622 1428 Q734 1405 741 1345 Q744 1317 636 1302 Q591 1276 568 1255 L555 1255 Q543 1255 524 1281 L524 1291 L523 1288 L531 1288 Q305 1218 209 1218 L209 1234 Q230 1234 266 1129 Q281 838 280 730 L274 730 L643 784 L643 770 Q623 770 571 823 L595 837 Q637 822 759 808 Q835 785 862 767 Q863 759 875 748 Q880 698 802 691 Q724 668 355 627 L280 627 Q244 22 246 6 Q251 -2 255 -18 Q238 -23 228 -46 Q168 -30 132 13 Q131 22 97 53 L95 61 Q90 111 103 317 L97 374 Q115 374 122 642 Q126 642 127 632 Q65 643 16 711 L14 730 Q30 771 58 771 Q87 771 108 739 L103 725 L137 725 Q139 725 147 1020 Q146 1157 138 1223 Q72 1223 -4 1294 Q-2 1317 14 1317 L116 1317 Q186 1317 509 1410 Q585 1428 622 1428 Z" /><glyph glyph-name="I" unicode="i" d="M436 1330 Q603 1300 603 1231 L603 1205 Q584 1169 530 1151 Q460 879 413 238 Q419 201 419 147 L617 147 Q619 147 619 149 L619 161 Q619 161 558 216 Q563 242 583 242 Q793 171 793 102 Q799 71 799 60 L758 26 L395 26 Q395 20 365 -10 Q152 -10 78 116 L78 125 Q80 147 99 147 L248 147 Q262 147 262 244 L262 339 Q305 917 354 1112 L261 1096 Q68 1096 26 1229 Q212 1229 405 1297 Q405 1314 436 1330 Z" /><glyph glyph-name="Q" unicode="q" d="M654 1355 L660 1355 Q890 1310 890 1228 Q915 1193 915 1140 Q915 1105 902 1065 Q1205 924 1205 619 L1205 604 Q1205 472 1045 281 Q1133 86 1177 62 Q1220 -5 1220 -76 Q1209 -76 1196 -101 Q1103 -101 994 99 Q986 99 970 126 Q970 144 968 144 Q945 189 945 189 L949 189 Q698 -21 534 -21 L514 -21 Q215 -21 79 341 Q64 395 59 499 Q59 950 534 1318 Q605 1355 654 1355 ZM219 499 L219 389 Q219 194 374 103 Q380 99 394 99 Q609 99 868 351 Q823 452 697 642 Q669 654 669 706 L688 715 Q825 687 825 639 Q862 604 951 452 Q1040 574 1040 660 L1040 720 Q1040 909 855 985 Q855 970 835 970 Q819 972 784 1021 Q644 1055 629 1055 Q629 1045 609 1045 L604 1045 Q592 1045 574 1072 L574 1088 Q605 1130 644 1130 Q685 1130 790 1103 L790 1185 Q790 1236 753 1240 Q635 1240 422 984 Q257 793 229 597 Q219 548 219 499 Z" /><glyph glyph-name="S" unicode="s" d="M562 1239 Q629 1239 691 1159 L696 1131 L696 1110 Q680 983 657 923 Q621 923 612 992 Q616 1034 616 1061 L616 1120 L598 1120 Q493 1120 346 922 Q288 837 288 765 Q288 714 467 686 Q960 631 960 584 Q1084 534 1084 407 Q1017 223 783 104 Q548 -35 394 -35 L382 -35 Q170 -35 117 152 Q82 181 76 405 L94 417 Q139 393 144 371 L144 312 Q177 176 210 124 Q226 103 262 103 Q490 103 769 295 Q872 346 955 483 Q894 508 500 553 Q297 606 242 681 Q184 788 180 828 L180 844 Q180 1030 441 1213 Q500 1239 562 1239 Z" /><glyph glyph-name="T" unicode="t" d="M598 1277 L622 1277 Q701 1236 752 1236 L871 1236 Q885 1236 910 1242 Q1014 1186 1033 1153 L1026 1153 L1039 1121 Q1024 1121 1013 1098 Q694 1098 694 1077 Q694 1009 666.5 696.5 Q639 384 618 20 Q601 -66 582 -66 Q526 -66 489 28 Q466 39 466 76 Q466 278 486 312 L513 294 L505 294 L563 1071 L570 1071 Q85 1009 -27 944 Q-37 944 -45 940 Q-116 940 -146 1016 Q-146 1019 -163 1042 L-163 1049 Q-163 1082 66 1150 Q480 1223 589 1223 Q598 1244 598 1277 Z" /><glyph glyph-name="V" unicode="v" d="M668 1362 L789 1362 Q888 1362 1106 1264 Q1200 1167 1200 1063 Q1200 951 1047 675 Q945 433 763 197 Q719 127 606 -4 Q606 -51 557 -74 Q543 -67 544 -67 Q490 -118 455 -118 L449 -118 Q381 -118 336 -40 Q390 66 422 66 L422 73 Q422 88 349 279 Q236 712 153 863 Q61 901 26 993 L26 1011 L72 1011 Q284 943 284 868 Q394 715 542 168 L536 168 Q593 230 797 548 Q989 950 1005 1004 Q1028 1112 1028 1160 Q1028 1206 936 1206 Q711 1210 682 1293 Q682 1301 642 1349 L668 1362 Z" /><glyph glyph-name="a" unicode="a" d="M559 838 L593 838 Q719 814 753 767 Q783 709 783 680 L783 673 Q783 617 738 581 Q704 592 704 621 L704 684 Q704 737 664 752 Q659 752 633 759 Q442 714 295 584 Q168 514 115 361 Q111 332 107 324 Q107 249 271 165 Q294 155 308 155 L400 155 Q562 155 787 458 Q791 458 807 658 Q807 699 854 749 Q917 749 938 712 L934 683 L934 629 Q934 605 912 538 Q912 536 905 444 L905 400 Q905 247 969 191 Q981 166 995 166 Q995 166 1029 188 L1061 188 Q1108 188 1108 143 Q1089 88 1056 72 Q936 72 834 225 Q793 310 793 345 L805 345 Q687 152 491 87 L367 79 Q178 79 18 299 Q6 335 6 359 L6 370 Q6 495 172 640 Q375 792 482 816 Q541 838 559 838 Z" /><glyph glyph-name="b" unicode="b" d="M242 1391 Q325 1381 345 1317 Q339 1280 338 1276 Q346 995 338 839 L334 785 Q378 818 522 818 L550 818 Q710 818 819 728 Q950 627 941 483 Q928 252 605 71 Q421 -10 356 -10 Q195 -10 63 113 L34 156 L55 166 L61 166 Q93 166 140 120 Q228 78 272 78 Q340 78 552 177 Q814 361 822 497 L826 561 Q832 670 670 731 Q664 734 534 738 Q419 738 346 673 L327 648 Q310 212 305 123 L282 106 Q250 106 143 243 L182 934 Q183 947 181 947 L182 943 L184 970 Q185 983 189 983 Q188 967 183 967 Q197 1123 201 1198 L207 1315 Q229 1391 242 1391 Z" /><glyph glyph-name="c" unicode="c" d="M557 873 Q722 846 722 786 Q730 786 730 746 Q716 695 704 695 L696 695 Q672 695 658 774 Q658 777 608 782 Q480 782 260 549 Q146 357 146 220 L146 188 Q146 132 238 90 L348 90 Q546 90 863 223 Q864 234 900 240 Q938 235 938 213 Q932 195 729 87 Q602 -10 441 -10 Q417 -15 336 -15 Q124 -15 26 212 L26 233 Q26 480 230 693 Q435 873 557 873 Z" /><glyph glyph-name="e" unicode="e" d="M505 865 L510 865 Q774 838 774 691 Q774 555 641 471 Q555 402 440 362 Q266 319 168 318 Q168 162 314 129 Q385 113 510 108 Q702 108 809 164 Q886 154 886 132 L886 113 Q781 35 744 35 Q689 13 591 13 L553 13 Q362 13 216 79 Q110 147 61 256 Q53 274 41 323 Q8 323 -70 380 Q-67 405 -50 405 L47 405 L47 398 Q47 538 223 712 Q409 865 505 865 ZM188 418 L178 418 Q335 439 448 498 Q645 618 645 696 Q649 719 649 738 L649 755 Q649 763 600 766 L583 766 Q458 766 234 517 Q196 452 188 418 Z" /><glyph glyph-name="g" unicode="g" d="M559 921 L640 921 Q770 884 770 804 Q770 742 699 742 Q680 765 680 785 L680 812 Q580 812 537 763 Q362 660 340 603 Q220 475 220 333 Q220 233 318 221 Q361 217 401 217 Q626 217 773 338 L773 561 Q773 646 799 646 Q882 612 882 563 Q928 475 928 411 Q913 267 886 267 Q891 158 891 104 L891 -218 Q891 -422 648 -562 Q576 -596 522 -596 L447 -596 Q282 -596 173 -342 Q167 -321 167 -306 Q167 -121 562 2 L569 2 Q582 2 599 -27 Q583 -46 489 -82 Q372 -139 325 -210 Q277 -282 271 -339 Q271 -407 362 -473 L401 -473 Q607 -473 742 -245 Q773 -179 773 -45 L773 183 L782 183 Q643 94 480 94 Q199 94 135 282 Q97 341 97 407 Q97 601 325 793 Q516 921 559 921 Z" /><glyph glyph-name="h" unicode="h" d="M151 1265 Q224 1265 224 1181 Q277 1107 270.5 1009 Q264 911 245 777 Q389 898 555.5 866.5 Q722 835 798 700 Q827 659 833 335 Q863 375 948 507 Q985 499 985 482 L985 466 Q918 370 918 333 Q918 296 845 154 Q821 -16 787 -16 Q746 -16 692 64 Q717 253 717 383 L717 604 Q717 725 669 725 Q638 748 576 748 Q369 739 283.5 628.5 Q198 518 213 310 Q208 -2 188 -2 L176 -11 Q140 -11 49 84 Q49 107 53 107 Q56 426 126 1124 Q126 1138 125 1138 L126 1135 Q126 1144 130 1153 L126 1192 Q129 1265 151 1265 Z" /><glyph glyph-name="i" unicode="i" d="M261 855 Q384 822 384 740 Q389 740 389 710 L389 599 Q369 482 369 466 L369 38 Q349 16 349 7 Q286 7 215 109 L215 122 Q215 244 210 331 Q220 556 235 730 L235 790 Q235 855 261 855 ZM297 1210 L311 1210 Q441 1168 441 1145 L451 1110 Q451 1081 345 1036 Q345 1025 276 992 Q204 992 179 1069 L153 1106 L153 1129 Q153 1148 213 1162 Q213 1170 297 1210 Z" /><glyph glyph-name="k" unicode="k" d="M115 1349 Q233 1288 236 1239 Q235 1188 237 1164 L261 835 Q266 765 266 550 Q488 752 743 949 Q742 957 707 999 Q736 1019 770 1021 L808 1025 Q942 990 945 959 Q955 941 957 914 Q922 861 717 706 Q656 654 588 607 L588 617 Q589 617 684 512 Q729 475 827 312 Q959 154 968 34 Q955 16 957 2 L932 0 Q832 9 790 65 Q790 71 756 100 L753 139 Q752 148 740 170 Q752 170 749 248 Q608 460 578 490 Q523 562 520 561 Q316 432 265 427 L272 331 Q296 313 297 292 Q279 243 280 243 L284 228 Q258 30 233 -13 L219 -15 Q165 -19 120 57 Q99 55 97 80 L96 92 Q122 172 119 392 L113 403 Q121 426 119 459 L115 505 Q118 840 114 886 L95 1152 Q90 1347 115 1349 Z" /><glyph glyph-name="l" unicode="l" d="M253 1405 Q340 1383 340 1305 Q344 1299 344 1258 Q344 1185 304 436 L304 307 Q359 408 379 408 Q406 401 406 374 Q377 329 356 165 Q339 165 321 -20 Q312 -20 300 -47 Q241 -47 193 54 Q175 67 169 230 Q169 732 231 1292 Q235 1356 235 1395 L253 1405 Z" /><glyph glyph-name="m" unicode="m" d="M1016 865 L1061 865 Q1139 858 1212 809 Q1340 706 1340 584 Q1343 584 1356 483 Q1352 406 1352 347 L1352 267 L1400 324 Q1454 319 1425 274.5 Q1396 230 1352 105 L1352 60 Q1336 27 1317 27 Q1260 27 1208 100 Q1208 121 1229 121 L1229 496 Q1229 709 1143 764 Q1105 787 1051 787 Q918 737 918 686 Q874 638 840 510 Q798 338 798 277 Q803 199 811 162 L811 124 Q811 85 785 77 L780 77 Q746 77 699 153 Q675 166 675 177 L675 438 Q675 526 679 677 Q679 760 573 775 Q544 779 479 779 L470 779 Q404 779 326 657 Q212 293 212 136 L212 72 Q198 44 181 44 Q140 44 72 124 L72 136 Q93 371 93 410 Q105 510 105 582 L105 672 L93 775 Q93 786 105 817 Q199 797 199 728 Q224 641 224 621 L210 621 Q232 709 323 809 Q384 848 408 848 L557 848 Q623 848 729 767 Q790 687 790 638 L777 638 Q829 765 898 822 Q973 865 1016 865 Z" /><glyph glyph-name="n" unicode="n" d="M535 812 Q708 786 791 719 Q965 589 965 401 Q1067 532 1067 478 Q1014 338 1014 332 Q1014 295 951 133 Q951 96 896 -3 Q841 -3 780 72 L780 105 Q826 206 826 295 L826 386 Q826 632 679 686 Q679 705 583 719 L571 719 Q467 719 396 640 Q311 492 260 275 Q226 15 187 15 L182 15 Q140 15 90 79 Q67 79 67 117 Q86 117 85 739 Q90 757 90 768 Q81 783 81 807 Q114 807 202 760 Q225 731 238 551 L238 556 L230 556 Q313 771 381 771 Q469 812 535 812 Z" /><glyph glyph-name="o" unicode="o" d="M392 877 Q518 877 776 756 Q951 610 951 479 L951 461 Q951 208 565 63 Q499 49 365 49 Q173 49 52 329 Q43 379 43 398 Q43 516 118 714 Q122 714 97 748 L97 759 Q159 823 246 873 Q296 873 392 877 ZM166 349 Q166 249 272 158 L291 154 L379 154 Q591 154 785 377 Q824 475 824 532 Q824 720 454 768 L410 768 Q259 768 259 722 Q166 499 166 349 Z" /><glyph glyph-name="p" unicode="p" d="M260 984 L285 982 Q352 920 349 884 Q476 893 564 885 L613 881 Q846 810 841 760 Q905 680 893 544 Q875 343 571 120 Q406 30 355 35 L314 38 L306 -1 L287 -212 Q284 -240 285 -284 L277 -284 Q280 -251 306 -248 L334 -251 Q347 -252 358 -276 L357 -290 Q355 -314 296 -423 Q302 -470 300 -491 Q272 -517 254 -515 Q262 -555 261 -568 L241 -575 L214 -572 Q176 -545 178 -532 L184 -465 Q129 -406 138 -302 Q122 -301 145 14 L155 124 Q67 236 73 300 L74 318 L84 336 Q111 334 146 251 L166 234 Q176 288 179 324 L212 683 L218 683 Q119 647 114 591 L95 584 L86 585 Q19 591 -33 713 Q-26 788 212 867 Q223 872 229 871 L237 966 Q241 986 260 984 ZM352 733 Q352 503 326 215 Q493 261 654 472 Q727 566 736 662 Q743 739 709 742 Q525 759 352 733 Z" /><glyph glyph-name="r" unicode="r" d="M220 449 Q348 793 484.5 789.5 Q621 786 653 718 L593 690 L571 690 Q571 664 446 612 Q365 555 247 281 L276 -16 Q252 -46 252 -57 Q174 -57 82 74 Q88 325 88 464 L88 492 Q88 514 70 671 L70 785 Q75 828 99 828 Q222 810 222 727 Q231 727 220 449 Z" /><glyph glyph-name="s" unicode="s" d="M371 907 L396 907 Q578 874 578 727 Q575 711 541 675 Q506 675 503 772 Q482 801 472 805 L427 805 Q328 805 228 647 L228 576 Q228 552 512 487 Q764 401 764 339 Q771 339 771 277 L771 264 Q771 193 633 100 Q565 41 486 8 Q438 -19 333 -32 Q109 -32 -5 258 Q-5 271 -9 279 Q-5 318 17 404 L29 404 Q57 404 66 379 L66 372 Q66 353 50 306 Q57 232 158 128 Q191 88 241 88 Q421 88 651 306 Q665 325 665 337 Q620 371 321 445 Q153 509 153 569 Q125 610 125 641 L125 680 Q125 790 308 897 Q348 907 371 907 Z" /><glyph glyph-name="t" unicode="t" d="M311 1215 Q328 1215 380 1165 Q513 1094 513 990 L513 953 Q513 927 505 877 L497 877 Q687 914 745 933 L745 927 Q719 927 699 979 L720 989 L728 989 Q899 944 899 848 Q868 806 800 792 L483 724 Q465 449 460 155 L671 302 L684 302 Q698 302 708 278 L708 266 Q664 234 650 149 Q501 -40 450 -40 Q379 -40 342 64 Q326 70 326 104 L326 281 Q326 531 344 701 L351 701 Q248 690 207 690 L198 690 Q39 685 39 735 L10 784 Q10 804 51 819 Q67 807 77 807 L171 807 Q350 831 350 841 Q378 1043 378 1067 Q314 1131 302 1195 L311 1215 Z" /><glyph glyph-name="u" unicode="u" d="M692 821 Q759 821 777 785 Q772 618 763 567 Q767 315 779 248 L766 248 Q766 271 785 271 L793 271 L794 270 L871 453 L894 453 L870 142 Q879 121 879 79 L879 11 L854 -26 Q794 -9 773 27 Q635 198 635 340 L635 323 Q565 190 499 123 Q397 4 296 4 Q166 4 106 120 Q53 184 53 275 Q72 657 111 793 Q114 793 114 798 Q222 789 222 703 Q203 533 189 224 Q204 122 221 122 Q313 127 502 341 Q635 524 635 611 Q664 821 692 821 Z" /><glyph glyph-name="y" unicode="y" d="M848 934 Q986 934 986 856 Q898 752 809 520 L569 88 Q354 -339 264 -474 L233 -498 Q176 -498 92 -418 L92 -371 Q92 -167 142 39 L161 39 Q174 39 187 15 L171 -82 Q221 -214 209 -203 Q209 -212 446 240 Q326 343 306 418 Q255 485 80 798 Q73 799 28 857 L28 881 L43 881 Q190 881 329 599 Q420 452 457 408 L484 422 Q528 422 528 370 L528 364 L517 364 L797 893 Q836 934 848 934 Z" /><glyph glyph-name="z" unicode="z" d="M445 856 L663 856 Q820 825 820 762 Q823 762 823 734 L823 732 Q819 675 609 524 L569 487 Q672 467 672 445 Q678 425 678 416 L654 396 Q596 414 496 431 L498 431 Q203 186 183 138 L172 138 Q230 140 267 140 L791 140 Q789 149 729 204 L739 227 Q885 170 885 130 Q902 116 902 80 L879 61 L777 61 Q738 61 728 58 Q691 61 662 61 L583 61 Q106 61 106 91 Q95 112 80 126 L80 142 Q80 167 145 231 Q145 251 372 448 Q335 448 293 509 Q314 522 326 522 L372 522 Q392 522 445 510 Q652 696 652 704 Q710 757 712 770 L649 770 Q552 770 264 759 L211 759 Q142 759 113 813 Q103 813 103 829 L103 831 Q103 845 145 850 L163 847 L224 847 Q254 847 445 856 Z" /><glyph glyph-name="uni3044" unicode="&#x3044;" d="M1416 1059 Q1702 983 1702 929 Q1759 929 1801 805 L1801 799 Q1794 684 1794 607 L1757 564 Q1689 577 1664 626 Q1661 643 1602 737 Q1580 926 1472 966 Q1472 977 1404 1053 L1416 1059 ZM412 1003 Q573 935 573 855 Q605 794 605 737 Q667 827 710 873 Q735 865 747 842 L747 836 L735 817 L735 719 L753 631 Q725 248 685 248 Q685 241 679 241 Q596 241 511 396 Q471 396 431 638 Q412 886 399 966 Q399 984 412 1003 Z" /><glyph glyph-name="uni304C" unicode="&#x304c;" d="M976 1408 Q1007 1380 1120 1313 Q1169 1269 1169 1167 Q1169 1090 1113 954 L1154 954 Q1327 954 1438 796 Q1499 654 1499 562 L1499 513 Q1499 310 1355 17 Q1302 -118 1154 -203 L1072 -224 Q969 -224 866 -99 Q810 -53 810 17 Q823 24 831 24 Q852 24 969 -73 Q992 -86 1010 -86 Q1095 -76 1203 79 Q1203 103 1292 293 Q1341 409 1361 581 Q1361 777 1286 844 L1251 850 L1135 850 Q1059 850 1059 816 Q850 320 762 148 Q586 -155 500 -155 Q425 -85 425 -58 L425 65 Q427 79 439 79 Q493 79 493 -11 L508 -11 L666 252 Q756 437 900 788 L894 788 Q875 788 542 644 Q497 630 480 630 L397 630 Q259 656 259 685 L259 693 Q284 713 631 857 Q843 954 969 954 Q1045 1121 1045 1270 Q1045 1287 962 1382 L962 1395 Q964 1408 976 1408 ZM1413 1023 Q1673 929 1723 831 Q1785 773 1785 666 Q1772 666 1751 625 L1744 625 Q1627 625 1559 797 Q1553 797 1400 1003 L1400 1010 Q1402 1023 1413 1023 ZM1464 1442 Q1669 1368 1709 1290 Q1758 1244 1758 1159 Q1748 1159 1731 1127 L1726 1127 Q1634 1127 1579 1263 Q1575 1263 1454 1426 L1454 1431 Q1456 1442 1464 1442 ZM1647 1523 Q1852 1449 1892 1371 Q1941 1325 1941 1241 Q1931 1241 1914 1208 L1909 1208 Q1816 1208 1762 1344 Q1758 1344 1636 1508 L1636 1513 Q1638 1523 1647 1523 Z" /><glyph glyph-name="uni4E00" unicode="&#x4e00;" d="M1242 749 Q1369 740 1460 740 L1469 740 Q1524 740 1621 749 Q1671 735 1781 588 L1781 541 Q1593 588 1488 588 L1233 588 Q840 588 523 446 Q419 478 419 626 Q475 626 1242 749 Z" /><glyph glyph-name="uni4E0A" unicode="&#x4e0a;" d="M711 1205 Q928 1100 928 945 Q884 513 884 278 L884 174 Q1272 208 1430 208 L1656 208 Q1828 183 1828 53 Q1818 53 1759 26 L1291 44 Q989 44 191 -103 Q148 -91 148 -43 L148 10 Q148 38 173 70 Q234 64 234 53 Q627 131 711 131 L711 140 Q711 151 693 234 Q702 387 719 546 Q711 620 711 667 L719 702 Q711 717 711 746 Q711 765 719 780 Q719 789 711 789 L719 876 L719 919 Q719 1001 650 1127 L650 1135 L711 1205 ZM1256 685 Q1375 643 1387 616 L1387 529 Q1347 475 1083 434 Q983 451 962 451 Q945 443 936 443 Q962 474 962 503 L936 564 Q936 626 1256 685 Z" /><glyph glyph-name="uni4E0B" unicode="&#x4e0b;" d="M1367 1285 Q1755 1249 1755 1161 Q1764 1161 1764 1133 L1764 1114 Q1764 1065 1736 1057 L1717 1057 Q1537 1080 1537 1105 Q1530 1105 1481 1095 Q1241 1123 1178 1123 Q293 840 269 840 L213 840 Q137 869 137 1001 L137 1020 Q137 1053 279 1095 Q302 1095 411 1076 L1131 1265 L1149 1256 Q1244 1285 1367 1285 ZM1140 1048 Q1442 936 1442 830 Q1424 755 1339 755 Q1092 881 1092 981 L1092 1010 Q1097 1030 1140 1048 ZM923 1001 Q961 1001 1074 972 Q1064 816 1064 736 L1064 -2 Q1031 -58 969 -88 Q894 -88 799 64 Q887 919 923 1001 Z" /><glyph glyph-name="uni4E0D" unicode="&#x4e0d;" d="M1340 1094 Q1424 1094 1459 942 Q1428 925 1391 925 L1264 925 Q1222 925 1137 916 L1137 900 Q1188 824 1188 781 L1010 654 Q1036 280 1036 79 Q972 -31 917 -31 Q781 -31 697 87 L697 95 L782 95 Q875 113 875 189 Q850 234 850 502 L841 502 Q295 54 198 54 L164 54 Q147 54 147 70 L147 95 Q670 613 832 696 L832 730 Q832 773 850 832 Q818 832 536 696 Q308 776 308 874 Q481 933 1036 1043 Q1179 1094 1340 1094 ZM866 849 L866 840 L883 840 Q916 849 942 849 Q942 836 968 823 Q1010 836 1010 882 L1010 891 Q886 849 866 849 ZM1475 544 Q1829 423 1898 265 L1898 248 Q1898 202 1865 189 Q1364 385 1196 493 L1196 502 Q1199 518 1213 518 L1349 518 Q1455 518 1475 544 Z" /><glyph glyph-name="uni4E0E" unicode="&#x4e0e;" d="M603 1440 Q812 1381 812 1317 L793 1223 L812 1100 Q996 1232 1058 1232 Q1190 1191 1190 1157 L1190 1128 Q1190 1022 793 958 Q783 908 774 645 Q822 674 840 674 L935 665 Q1185 769 1361 769 L1540 769 Q1729 625 1729 532 Q1689 323 1323 -102 L1171 -244 L1153 -244 Q1102 -244 963 135 L973 135 Q996 135 1162 -54 Q1472 377 1503 504 L1503 599 Q1503 628 1389 645 Q1260 645 632 494 L632 504 Q585 612 585 655 Q613 837 613 920 L613 996 Q613 1133 603 1422 Q594 1422 594 1431 Q603 1431 603 1440 ZM1181 485 Q1351 485 1380 324 Q1249 295 859 267 Q683 192 339 97 Q169 144 169 192 L169 201 Q1003 428 1181 485 Z" /><glyph glyph-name="uni4E16" unicode="&#x4e16;" d="M1326 1241 Q1465 1209 1491 1159 L1441 765 L1513 765 Q1632 765 1699 661 Q1684 602 1657 567 Q1496 598 1398 598 Q1346 508 1346 412 L1346 391 Q1450 322 1450 267 Q1191 215 953 123 L901 123 Q822 123 807 226 L807 340 L787 340 Q742 340 621 288 L621 173 Q621 70 673 8 Q707 29 735 29 L1005 29 L1067 18 Q1290 18 1481 91 Q1678 26 1678 -13 L1678 -44 Q1678 -89 1657 -127 Q1506 -117 1378 -95 Q1287 -106 1223 -106 L1119 -106 Q1096 -106 1077 -95 Q1009 -127 911 -127 L694 -127 Q455 -127 455 142 L455 195 Q244 101 145 101 L114 101 Q62 128 62 184 L62 236 Q62 254 259 308 Q451 395 455 412 L455 578 L466 681 Q414 708 414 765 Q418 785 435 785 Q694 726 694 681 L694 651 Q663 526 663 495 Q781 526 839 578 Q849 840 849 962 L849 1013 Q849 1036 860 1055 Q849 1069 839 1169 L860 1169 Q1039 1169 1067 878 Q1067 843 1057 661 L1098 661 Q1229 661 1253 931 L1253 1055 Q1181 1129 1181 1179 Q1181 1214 1326 1241 ZM1025 412 L1025 319 L1057 319 Q1146 319 1191 391 L1191 505 L1181 505 Q1080 505 1025 412 Z" /><glyph glyph-name="uni4E1A" unicode="&#x4e1a;" d="M944 1043 Q1170 981 1170 856 Q1082 248 1082 121 L1093 121 Q1177 121 1603 179 Q1684 179 1819 31 L1819 2 L1809 2 Q1593 61 1412 49 Q782 -5 320 -129 Q81 -37 114 -23 Q379 19 540 50 Q405 379 405 473 L424 473 L640 268 L651 268 Q664 268 680 297 L680 375 Q680 532 611 896 L622 896 Q866 804 866 709 L866 680 Q866 346 886 110 L935 100 L944 100 Q1024 499 1024 906 Q944 967 944 1023 L944 1043 ZM1347 719 Q1379 713 1515 552 Q1457 414 1151 130 L1141 130 Q1185 269 1328 602 L1328 700 Q1331 719 1347 719 ZM690 277 L690 81 L788 90 Q743 145 699 277 L690 277 Z" /><glyph glyph-name="uni4E1C" unicode="&#x4e1c;" d="M789 1440 L818 1440 Q979 1440 1073 1289 Q1244 1289 1300 1204 L1300 1185 Q1275 1136 1007 1052 Q1007 1026 922 910 Q1018 901 1111 864 Q1054 699 1054 589 Q1085 570 1111 570 L1215 570 Q1215 608 1234 608 L1244 608 Q1386 608 1452 504 L1452 466 L1376 466 Q1230 466 1054 400 L1054 352 Q1054 -221 988 -244 L979 -244 Q913 -244 723 -73 L723 -64 L780 -54 Q818 -64 846 -64 Q897 -64 903 97 L903 305 Q887 343 836 343 Q777 277 704 277 L685 277 Q589 277 420 447 Q521 661 770 995 L770 1015 Q641 930 534 930 Q429 930 429 1015 Q429 1103 742 1157 Q789 1242 789 1270 Q789 1321 761 1422 L789 1440 ZM628 437 L694 419 Q903 459 903 551 Q913 645 913 693 Q913 722 903 873 L893 873 Q880 869 628 437 ZM1300 295 Q1431 272 1631 59 L1631 31 Q1631 -19 1442 -64 L1423 -64 Q1366 -26 1366 97 L1366 135 Q1300 211 1300 277 L1300 295 ZM657 201 Q531 -121 429 -121 Q269 -58 269 115 L269 182 Q290 182 449 87 Q587 201 657 201 Z" /><glyph glyph-name="uni4E24" unicode="&#x4e24;" d="M1220 1251 Q1285 1223 1305 1176 L1305 1166 Q1305 1135 1022 1072 Q870 1034 719 977 L709 977 L709 967 Q775 967 775 949 Q775 896 757 798 Q1012 842 1012 911 Q1012 1081 1145 1081 Q1171 1006 1202 986 Q1183 939 1183 920 Q1404 977 1485 977 Q1595 936 1693 750 Q1693 412 1523 -45 Q1505 -54 1495 -54 Q1420 -47 1192 126 L1192 135 Q1192 165 1372 201 Q1418 201 1485 769 L1485 807 Q1474 873 1438 873 Q1163 816 1163 750 L1163 665 Q1260 665 1428 494 Q1428 421 1296 371 Q1285 371 1117 504 L1107 504 Q1003 324 918 324 L908 343 Q994 556 994 741 L984 741 Q719 671 719 608 L719 599 Q906 535 918 504 Q927 487 927 466 Q877 372 852 362 Q744 472 700 485 Q601 239 511 239 L511 258 Q511 314 567 608 L558 608 L492 599 L407 693 L407 712 Q615 712 615 835 Q626 835 643 930 L634 930 Q566 883 530 883 L511 883 Q302 967 302 1052 L302 1081 L350 1072 Q1077 1251 1220 1251 ZM227 627 L274 627 Q377 627 473 523 L464 409 L473 343 Q454 276 454 239 Q454 209 464 60 L445 60 Q338 60 274 277 Q274 301 208 618 L227 627 Z" /><glyph glyph-name="uni4E2A" unicode="&#x4e2a;" d="M865 1376 Q1035 1275 1035 1148 L1035 1139 Q424 386 155 335 L155 344 Q155 391 363 590 Q799 1075 799 1168 Q827 1325 865 1376 ZM1092 1073 Q1380 1021 1735 581 Q1735 561 1745 476 Q1737 476 1688 467 Q1470 498 1470 515 L1470 524 Q1498 559 1498 590 Q1092 1049 1092 1054 L1092 1073 ZM808 789 L817 789 Q881 789 1044 741 L1044 675 Q1044 636 1016 571 Q1035 307 1035 -82 Q1035 -245 959 -299 Q914 -268 836 -138 Q884 78 884 240 L884 496 Q884 609 808 789 Z" /><glyph glyph-name="uni4E2D" unicode="&#x4e2d;" d="M1044 1615 Q1117 1615 1130 1520 Q1130 1429 1110 1321 Q1120 1257 1130 1236 L1110 1141 L1148 1123 Q1280 1170 1432 1170 Q1514 1170 1622 1019 L1622 1000 Q1622 897 1366 688 L1366 678 Q1378 678 1442 602 L1442 565 Q1399 565 1233 583 Q1186 574 1092 536 L1092 526 Q1094 508 1110 508 Q1092 298 1092 167 Q1092 151 1110 110 Q1092 68 1092 -13 L1092 -145 Q1078 -420 1025 -420 L959 -420 Q922 -420 912 -116 L912 35 L931 63 Q923 101 912 101 Q922 119 922 129 Q922 165 931 470 Q756 480 675 480 Q675 489 666 489 L666 480 Q666 451 685 403 L637 394 Q475 435 278 858 Q344 956 344 1028 L382 1028 Q426 1028 524 754 Q574 754 628 555 L647 555 Q927 628 931 659 Q950 707 950 830 L950 848 L931 848 Q769 735 694 735 Q571 861 571 924 L571 953 L581 953 Q950 1010 950 1076 Q959 1325 959 1492 L959 1539 Q959 1615 1044 1615 ZM1092 981 L1092 678 L1120 678 Q1393 884 1432 1038 L1432 1047 Q1408 1047 1357 1056 Q1127 981 1092 981 Z" /><glyph glyph-name="uni4E3A" unicode="&#x4e3a;" d="M842 1378 Q984 1267 984 1095 L984 1028 Q1271 1123 1334 1123 Q1421 1123 1589 943 L1589 933 Q1535 728 1249 110 Q1100 -180 1088 -183 L1069 -183 Q739 79 700 234 Q940 92 1002 92 Q1088 203 1362 830 Q1391 902 1391 953 Q1358 1019 1343 1019 Q1033 913 908 782 L889 754 L889 725 Q1164 613 1164 442 Q1118 403 1088 403 L1012 432 Q948 423 908 423 L899 423 Q908 439 918 536 Q870 637 870 679 Q858 679 776 470 Q655 252 435 35 L416 25 L378 25 Q378 43 615 499 Q691 640 691 668 Q691 691 378 782 L378 811 Q378 830 605 887 Q813 966 813 1038 Q842 1292 842 1378 ZM426 1303 Q483 1296 483 1170 Q622 1246 662 1246 L662 1237 Q613 1168 492 1038 L492 962 L435 962 Q321 1047 312 1047 Q356 1234 426 1303 Z" /><glyph glyph-name="uni4E3D" unicode="&#x4e3d;" d="M850 1156 Q1002 1131 1002 1109 L1002 1099 Q858 965 633 882 L633 919 Q405 802 339 796 Q259 796 188 891 L188 948 L226 948 Q784 1146 850 1156 ZM1522 1118 L1588 1118 Q1663 1118 1702 1070 L1702 1042 L1323 910 Q1278 867 1163 834 Q1030 904 1030 957 Q1114 957 1522 1118 ZM850 938 Q1002 888 1002 711 Q954 400 954 229 L917 200 L907 200 Q639 380 567 456 L557 456 Q547 299 547 219 L547 172 Q547 153 529 153 L519 153 Q422 153 349 304 L349 361 Q349 395 396 597 Q396 630 349 702 L349 749 L368 749 Q396 749 519 711 Q701 938 850 938 ZM1418 901 Q1712 862 1712 692 Q1712 654 1702 247 Q1702 242 1712 124 Q1699 70 1655 39 Q1598 39 1333 266 Q1258 295 1248 295 L1238 276 L1238 144 Q1238 124 1219 124 L1200 124 Q1106 124 1058 295 Q1097 644 1097 711 L1087 777 L1106 787 L1163 787 L1191 768 L1210 768 Q1259 768 1418 901 ZM604 607 Q770 607 803 512 L784 503 L746 503 L652 494 L652 484 Q736 446 822 446 Q841 502 850 702 Q841 782 841 834 Q692 774 604 626 L604 607 ZM1248 522 L1257 522 Q1271 531 1361 541 L1560 503 L1560 654 Q1560 732 1465 787 Q1248 651 1248 522 ZM1408 399 L1314 399 Q1263 399 1248 361 Q1400 286 1484 286 L1560 286 L1560 418 Q1519 399 1408 399 Z" /><glyph glyph-name="uni4E4B" unicode="&#x4e4b;" d="M572 1213 Q742 1147 799 1043 L799 977 L505 929 L505 938 Q590 1028 590 1071 L590 1080 Q562 1080 534 1137 L534 1185 Q534 1199 572 1213 ZM1243 967 Q1518 910 1518 750 Q991 655 544 465 L534 419 Q940 200 1253 200 L1858 200 Q1878 198 1878 182 L1878 172 Q1878 147 1310 -17 L1300 -17 Q1127 -17 799 115 Q400 409 240 409 L184 409 Q152 409 51 390 Q23 439 23 485 L23 494 Q32 522 80 522 L231 522 Q341 522 382 504 Q967 750 1168 816 L1168 844 L1140 844 Q973 844 411 570 L345 570 Q316 578 250 750 Q279 835 297 835 L345 835 Q354 788 439 740 Q896 905 1243 967 Z" /><glyph glyph-name="uni4E56" unicode="&#x4e56;" d="M1148 1436 L1176 1436 Q1195 1436 1394 1341 L1394 1303 Q1394 1215 694 1123 Q684 1123 684 1133 Q675 1151 675 1161 Q739 1206 1091 1331 Q1148 1370 1148 1436 ZM1091 1123 L1129 1123 Q1142 1123 1167 1076 L1167 963 L1527 1057 Q1625 1057 1706 972 L1706 943 Q1706 896 1687 896 Q1494 925 1422 925 L1422 915 Q1527 788 1527 735 L1517 650 Q1621 688 1697 688 Q1746 688 1754 593 Q1633 518 1498 518 L1479 518 L1479 310 Q1633 357 1687 357 L1820 205 L1811 158 L1196 187 L1196 205 Q1196 240 1347 262 Q1337 271 1328 376 Q1340 527 1356 527 Q1356 537 1347 556 Q1356 712 1356 792 Q1337 887 1318 887 L1262 887 Q1120 872 1120 783 L1120 565 Q1120 504 1101 433 Q1120 342 1120 291 L1091 -230 L1073 -239 L1044 -239 L968 -173 Q988 62 988 281 L988 319 Q874 272 533 -60 Q476 -60 458 7 Q458 124 656 215 L751 319 L751 451 L741 451 Q676 404 618 404 Q543 404 495 480 L495 518 Q751 564 751 593 L751 764 L164 584 L136 584 Q79 616 79 669 Q129 669 723 849 Q1054 908 1054 963 L1054 1019 L988 1019 L988 1066 Q1017 1123 1091 1123 ZM874 783 Q893 622 893 527 Q855 516 845 376 L864 376 Q1016 376 1016 783 L1016 840 Q874 811 874 783 Z" /><glyph glyph-name="uni4E86" unicode="&#x4e86;" d="M1217 1355 L1249 1355 Q1263 1355 1352 1253 L1352 1221 Q1164 1005 1084 1005 L1084 996 Q1290 876 1290 646 L1290 390 Q1290 -88 1044 -299 L1034 -299 Q948 -299 673 -94 L673 -84 L776 -94 L940 -94 Q1083 -94 1126 380 L1126 410 Q1126 779 1002 934 L1002 975 Q1209 1230 1217 1355 ZM1064 1253 Q1064 1178 673 873 Q662 873 622 790 L602 790 Q502 790 468 954 L468 965 Q468 1034 632 1170 L654 1170 Q654 1088 673 1088 Q985 1253 1064 1253 Z" /><glyph glyph-name="uni4E8B" unicode="&#x4e8b;" d="M1016 1681 Q1082 1570 1082 1445 L1092 1445 L1442 1511 Q1621 1511 1678 1350 L1678 1332 L1669 1332 L1319 1369 Q1092 1350 1092 1312 L1092 1256 Q1252 1284 1290 1284 Q1366 1253 1366 1218 Q1366 1151 1234 1038 L1243 991 Q1125 914 1102 877 L1102 820 Q1349 915 1461 934 Q1707 887 1707 688 Q1707 581 1338 461 L1290 461 L1290 480 Q1518 635 1518 735 L1518 763 Q1518 777 1489 792 Q1355 792 1102 745 L1102 622 L1224 622 L1224 584 Q1102 479 1102 470 L1102 414 L1111 366 Q1166 366 1300 395 Q1413 364 1413 347 L1413 310 Q1413 290 1395 290 Q1226 281 1120 281 L1120 -334 Q1105 -485 988 -485 L704 -485 L704 -448 Q950 -399 950 -201 L950 215 L940 215 Q693 121 638 121 L619 158 Q747 224 950 290 L950 319 Q950 380 931 452 L808 452 L808 461 Q865 546 950 546 L950 660 L694 594 Q680 594 666 631 Q666 723 817 783 L827 830 Q763 830 666 991 Q666 1147 903 1180 Q922 1180 950 1218 Q931 1276 931 1293 L922 1293 Q774 1293 505 1095 Q485 1048 401 1048 Q300 1048 193 1161 L193 1208 L250 1208 Q316 1206 316 1190 Q679 1303 931 1407 Q912 1613 912 1663 Q949 1681 1016 1681 ZM1092 1152 L1092 1048 Q1095 1028 1111 1028 L1120 1028 Q1145 1028 1158 1104 L1158 1170 L1111 1170 Q1092 1167 1092 1152 ZM817 1113 L817 1095 Q817 975 903 962 L940 962 L950 1010 L950 1067 Q950 1092 817 1113 Z" /><glyph glyph-name="uni4E8C" unicode="&#x4e8c;" d="M1011 1038 Q1172 982 1172 859 L1172 849 Q1172 805 841 793 Q821 785 737 773 Q623 902 623 991 Q633 1009 633 1019 Q684 1019 813 1010 Q1011 1029 1011 1038 ZM1333 489 Q1551 423 1551 300 L1551 281 Q1476 253 1456 253 L1343 263 Q801 215 481 158 Q384 158 349 348 Q359 348 387 395 Q418 376 443 376 L491 376 Q790 376 1333 489 Z" /><glyph glyph-name="uni4E8E" unicode="&#x4e8e;" d="M1093 1364 L1124 1364 Q1279 1353 1279 1302 L1279 1271 Q1219 1179 1031 1043 Q1082 983 1124 867 L1424 920 Q1578 892 1578 857 L1578 785 Q1578 767 1527 755 Q1455 765 1402 795 Q1175 774 1175 702 Q1175 589 1216 589 Q1198 589 1185 42 Q1118 -403 979 -403 Q772 -225 772 -207 L772 -186 L845 -186 L969 -197 Q1061 42 1061 258 L1061 589 Q1061 603 1041 702 Q385 496 287 475 L255 475 Q204 475 204 537 Q216 563 700 712 Q711 730 989 827 Q943 971 907 971 L823 971 L823 992 Q876 1069 876 1094 L865 1094 L730 1054 Q503 1081 503 1168 Q899 1312 1093 1364 Z" /><glyph glyph-name="uni4EAC" unicode="&#x4eac;" d="M719 1369 L757 1369 Q981 1369 1012 1274 Q984 1182 984 1160 Q1513 1274 1552 1274 Q1643 1208 1665 1199 L1665 1189 Q1665 1165 1646 1104 Q1471 1114 1390 1114 Q1315 1114 246 934 L236 952 L236 962 Q727 1066 851 1123 Q851 1222 719 1359 L719 1369 ZM1315 1029 Q1387 1029 1495 896 L1495 886 Q1495 818 1344 508 L1353 508 Q1426 471 1447 433 Q1447 391 1116 347 L1116 271 Q1116 135 1125 -97 Q1116 -140 1069 -173 Q938 -113 842 16 Q1002 16 1002 54 L1022 300 L955 319 L700 281 Q661 294 643 328 L652 385 Q558 622 558 707 L558 801 L577 801 Q804 626 804 394 Q1076 449 1116 536 Q1135 549 1201 726 Q1220 726 1230 801 L1211 811 Q1067 773 1022 773 Q922 773 823 801 L823 849 L842 849 Q971 849 1296 1029 L1315 1029 ZM1324 224 L1333 224 Q1637 157 1637 82 Q1614 -51 1580 -51 L1523 -51 Q1344 121 1324 224 ZM558 177 Q598 175 634 139 Q702 177 737 177 L737 168 L634 -136 L577 -145 Q539 -70 529 16 Q539 63 549 63 Q529 100 529 168 Q548 177 558 177 Z" /><glyph glyph-name="uni4EBA" unicode="&#x4eba;" d="M907 1062 Q1024 1062 1078 920 L1078 911 Q949 817 945 798 Q991 798 1446 428 Q1629 315 1759 315 Q1873 251 1882 230 L1882 192 L1844 192 L1787 202 Q1758 182 1588 173 Q1482 173 993 608 Q968 608 860 703 Q571 408 425 372 Q224 135 56 135 Q41 135 18 173 L18 202 Q18 220 46 220 L94 211 Q693 781 860 911 Q907 987 907 1062 Z" /><glyph glyph-name="uni4ECE" unicode="&#x4ece;" d="M1148 1208 Q1240 1208 1328 934 Q1195 678 1195 565 L1195 555 Q1776 328 1839 243 Q1789 210 1612 148 L1612 139 L1602 139 Q1495 145 1138 470 L1129 470 Q1057 347 704 7 L637 -12 L627 -12 L627 -3 Q1120 847 1120 1019 Q1120 1033 1110 1171 Q1117 1199 1148 1208 ZM277 972 Q393 972 505 764 Q485 723 485 612 L485 575 Q485 559 656 499 Q750 439 750 423 L750 385 Q733 351 694 338 Q684 338 382 442 Q191 146 69 120 L60 139 L60 158 Q60 253 240 621 Q277 751 277 858 L277 972 Z" /><glyph glyph-name="uni4ED9" unicode="&#x4ed9;" d="M467 1217 L486 1217 Q675 1183 675 1075 L675 1066 Q675 901 268 517 Q250 457 250 451 Q193 489 174 489 Q174 512 401 877 Q467 1016 467 1094 L467 1217 ZM1054 1160 L1072 1160 Q1237 1160 1262 962 Q1234 546 1224 508 L1243 498 L1508 498 Q1530 498 1536 546 Q1499 730 1470 811 Q1483 867 1517 867 Q1590 835 1726 687 L1726 678 Q1710 299 1650 290 L1631 290 Q1511 413 1442 413 L1376 413 Q1276 413 675 262 Q571 318 571 413 Q638 548 675 659 Q738 635 798 546 L798 508 Q798 487 770 385 L779 385 Q1106 470 1111 470 L1111 479 L1026 584 L1026 593 L1101 669 L1101 906 Q1101 978 1035 1132 L1035 1142 Q1038 1160 1054 1160 ZM345 584 L354 584 Q458 584 458 347 Q467 347 477 -12 Q448 -12 411 -22 Q343 57 297 129 Q345 440 345 584 Z" /><glyph glyph-name="uni4EE5" unicode="&#x4ee5;" d="M713 1043 L741 1043 L741 1024 Q741 952 818 863 L818 825 Q818 806 798 806 L656 835 Q656 670 533 248 Q496 199 458 173 Q400 189 345 239 L373 428 Q308 816 193 816 L174 845 L174 873 L183 873 Q430 829 430 721 Q411 712 401 712 Q411 683 420 683 L401 637 Q420 487 439 418 L477 418 Q612 710 638 863 Q519 921 514 948 L514 967 Q598 977 619 977 L685 967 Q713 1015 713 1043 ZM1489 1005 L1499 1005 Q1601 1005 1659 816 Q1327 457 1234 457 Q1064 333 1006 333 L997 333 Q988 333 988 343 Q905 315 893 315 L893 333 L1044 428 Q1475 832 1499 920 L1489 1005 ZM1479 513 Q1622 513 1716 248 L1726 153 L1678 153 Q1661 154 1584 267 Q1562 267 1546 277 L1489 267 L1442 277 L1442 295 Q1546 320 1546 372 Q1479 478 1479 513 Z" /><glyph glyph-name="uni4EEC" unicode="&#x4eec;" d="M433 1298 L463 1298 Q604 1298 691 1060 L691 1028 L380 573 L380 562 Q545 562 545 303 Q526 -69 463 -69 L452 -69 Q376 -69 318 56 Q359 278 359 335 Q349 427 349 449 Q162 207 80 200 L71 200 Q46 200 18 293 Q461 949 473 1060 Q433 1264 433 1298 ZM1612 1111 Q1690 1111 1798 956 L1798 945 Q1798 916 1777 748 Q1798 441 1798 293 Q1798 -67 1705 -141 L1654 -152 Q1457 18 1457 87 L1468 87 Q1496 87 1591 56 L1602 76 Q1623 578 1623 894 Q1623 907 1633 998 Q1614 998 1580 1028 Q1544 1028 1301 905 L1260 905 Q1198 941 1198 998 L1198 1008 L1602 1111 L1612 1111 ZM898 1018 L950 1018 Q1012 977 1012 935 Q1041 945 1136 945 Q1136 935 1146 935 Q1086 803 1032 770 L1022 770 Q938 770 898 894 L898 1018 ZM723 843 L763 843 Q878 843 909 728 Q869 605 825 180 L816 180 L825 128 Q825 104 816 87 Q825 68 825 45 L825 35 Q825 13 805 13 Q676 13 660 170 L660 180 Q660 290 732 801 L732 821 L723 843 Z" /><glyph glyph-name="uni4EF6" unicode="&#x4ef6;" d="M1144 1469 L1154 1469 Q1248 1469 1354 1179 Q1420 1163 1495 1078 L1495 1067 Q1495 1041 1354 988 Q1345 969 1345 958 Q1354 833 1354 828 L1455 837 L1485 837 Q1610 837 1635 717 Q1595 714 1595 698 Q1498 717 1405 717 Q1374 684 1354 566 Q1374 436 1374 215 L1374 -135 Q1374 -399 1335 -486 L1304 -486 Q1227 -486 1163 -346 L1163 -336 Q1205 -131 1224 656 L1194 656 Q758 366 673 366 Q592 409 592 466 Q1166 752 1234 808 Q1234 907 1194 907 Q1080 869 763 637 Q679 637 662 757 Q763 1078 773 1148 L763 1249 L793 1249 Q1003 1082 1003 968 Q1110 1014 1185 1087 L1185 1148 Q1185 1269 1144 1469 ZM412 1228 L452 1228 Q600 1228 653 1138 L653 1118 Q653 1032 493 817 L553 235 Q512 75 452 75 Q374 75 311 327 Q342 395 362 466 Q362 474 352 527 Q362 612 362 667 L352 667 Q271 616 161 527 L151 527 L151 536 Q185 600 482 1067 Q412 1172 412 1208 L412 1228 Z" /><glyph glyph-name="uni4EF7" unicode="&#x4ef7;" d="M1030 1379 Q1153 1360 1153 1303 L1153 1293 Q1030 1144 1030 1114 L1039 1114 Q1238 1051 1238 555 Q1247 267 1267 130 Q1267 -183 1096 -183 L1049 -183 Q937 -183 879 -40 L879 -21 Q897 -21 897 -12 Q974 -40 1059 -40 L1087 -40 Q1126 -40 1134 159 L1134 291 Q1134 936 1011 1067 L983 1067 Q930 1067 888 1000 L888 991 Q973 910 973 792 L973 764 Q973 389 737 262 L680 253 L671 253 Q658 253 623 301 L623 329 Q623 340 689 367 Q831 563 831 925 Q606 679 463 679 L463 688 Q463 805 652 859 Q964 1195 1030 1379 ZM415 1256 L453 1256 Q586 1256 586 1133 Q586 1084 415 868 L406 774 L406 669 Q406 518 434 187 L424 121 L406 121 Q352 151 311 291 Q321 357 330 357 Q321 385 311 385 Q322 401 330 480 L321 546 Q321 553 330 603 L321 650 Q330 712 330 774 L330 792 L321 792 Q262 772 84 603 L75 603 L75 612 Q149 753 358 1067 Q415 1189 415 1256 ZM1125 1171 Q1366 1156 1759 934 Q1825 833 1825 783 Q1812 744 1777 726 L1759 726 Q1335 1051 1125 1133 L1125 1171 Z" /><glyph glyph-name="uni4EFB" unicode="&#x4efb;" d="M1232 1097 L1284 1097 Q1543 1089 1543 1035 L1543 942 Q1426 910 1409 910 Q1450 862 1481 745 Q1497 745 1522 724 L1719 724 Q1729 606 1740 589 Q1719 555 1719 527 L1636 527 Q1608 527 1574 548 Q1429 525 1429 373 L1429 310 Q1455 310 1543 290 Q1585 310 1615 310 Q1750 276 1750 124 Q1750 107 1688 83 Q1674 83 1585 93 L1511 83 Q1456 93 1429 93 Q1104 30 1046 30 Q997 41 829 113 L829 155 Q832 176 849 176 L859 176 Q1046 176 1181 248 Q1181 305 1160 424 Q1091 392 1005 392 L1005 403 Q933 373 870 373 Q715 443 715 455 L715 485 Q783 465 808 465 Q1023 570 1181 620 L1181 775 Q1181 822 891 890 L880 910 Q925 955 1232 1055 L1232 1097 ZM457 1087 Q580 1060 580 942 Q580 834 425 600 Q516 465 529 465 Q507 9 497 9 L414 -42 L394 -42 Q311 94 311 186 L332 434 Q63 217 42 217 L42 280 Q42 344 374 828 Q457 946 457 1055 L457 1087 Z" /><glyph glyph-name="uni4F17" unicode="&#x4f17;" d="M883 1402 Q999 1402 1016 1251 Q993 1251 931 1175 L931 1166 Q1314 749 1498 749 Q1612 669 1612 654 Q1560 636 1338 608 L1290 626 L1281 626 L1281 617 Q1366 617 1413 389 Q1413 351 1319 220 Q1368 220 1612 -64 Q1699 -111 1707 -150 Q1697 -178 1688 -178 L1641 -169 Q1511 -206 1489 -206 Q1413 -206 1272 153 L1253 163 Q947 -140 817 -140 L817 -130 Q1253 381 1253 503 Q1243 555 1243 579 Q1243 626 1272 626 L1272 636 Q1128 693 865 1061 L846 1071 L837 1071 Q771 968 373 579 Q311 532 278 532 L269 532 Q250 532 250 551 L250 617 L297 608 Q531 967 883 1346 L883 1402 ZM496 569 Q685 504 685 361 Q638 226 638 201 Q838 102 883 40 L883 11 Q855 -36 817 -36 L534 106 Q328 -112 250 -112 L212 -112 Q193 -112 193 -93 Q193 -57 458 333 Q496 467 496 541 L496 569 Z" /><glyph glyph-name="uni4F18" unicode="&#x4f18;" d="M1444 1328 Q1633 1291 1633 1252 L1633 1186 L1519 1186 Q1422 1280 1378 1280 L1378 1289 Q1393 1328 1444 1328 ZM1103 1271 L1132 1271 Q1236 1202 1236 1157 Q1236 1121 1198 921 L1208 921 L1406 987 Q1476 987 1482 958 L1482 930 Q1481 916 1255 816 Q1103 726 1103 637 Q937 219 877 135 L857 126 L829 126 Q813 127 763 211 L763 268 Q936 268 1000 637 L1000 656 L980 656 Q715 561 678 561 Q635 577 612 618 L612 637 Q864 690 1094 864 Q1132 1071 1132 1176 Q1132 1189 1103 1271 ZM470 1204 L498 1204 Q632 1204 715 978 Q715 947 432 533 L432 523 Q560 523 583 286 Q564 -39 507 -63 L470 -63 Q376 -3 365 50 Q413 289 413 296 L394 410 Q213 183 139 183 L129 183 Q129 199 91 258 Q517 927 517 968 Q517 977 470 1204 ZM1141 656 Q1233 656 1274 590 Q1236 374 1236 201 L1236 41 Q1267 -111 1491 -111 L1661 -111 Q1860 -111 1860 12 L1860 220 L1879 220 Q1898 220 2002 -73 Q1961 -187 1728 -187 L1595 -187 Q1211 -187 1151 -25 Q1151 -12 1103 88 Q1124 476 1151 571 Q1132 605 1132 646 Q1141 646 1141 656 Z" /><glyph glyph-name="uni4F20" unicode="&#x4f20;" d="M936 1383 L954 1383 Q1115 1383 1181 1222 L1181 1204 Q1172 1121 1172 1109 L1191 1109 Q1200 1109 1267 1127 Q1346 1127 1409 1024 Q1106 1005 1106 910 Q1068 783 1068 749 Q1086 740 1096 740 Q1515 816 1645 853 Q1796 800 1816 749 L1806 731 L1494 768 Q1002 680 1002 636 Q1030 579 1030 437 L1030 409 L1361 551 Q1466 551 1551 314 L1551 286 Q1414 246 1201 59 Q1247 -25 1247 -74 L1247 -93 Q1227 -187 1162 -187 Q1125 -143 1087 163 Q1068 163 1068 181 L1068 201 L1078 201 Q1172 115 1181 115 L1191 115 Q1380 299 1380 437 Q1355 498 1333 503 Q934 181 879 181 Q850 230 850 276 L850 286 Q850 359 982 569 L982 645 L973 645 Q711 579 642 579 Q614 613 614 645 L614 664 L623 664 Q654 645 671 645 Q982 669 982 768 L1011 939 L1002 939 Q800 929 765 929 L765 948 Q1021 1009 1021 1042 L1021 1165 Q1021 1286 936 1383 ZM443 1241 Q623 1241 623 1099 Q614 1039 443 806 Q434 755 434 721 L434 560 Q434 261 472 96 Q463 87 453 -17 L443 -17 Q340 75 340 172 Q340 196 349 247 Q349 258 340 276 Q349 341 349 380 L349 418 Q349 439 340 456 Q349 472 349 494 Q349 548 340 560 Q349 611 349 645 L349 731 Q268 687 93 512 Q93 522 84 522 Q84 546 358 985 Q443 1139 443 1241 Z" /><glyph glyph-name="uni4F34" unicode="&#x4f34;" d="M1101 1468 Q1281 1468 1281 1251 L1281 1156 L1272 1109 L1290 1099 Q1395 1190 1395 1260 Q1395 1268 1385 1336 L1404 1345 Q1546 1329 1546 1231 L1546 1222 Q1546 1167 1309 938 Q1465 925 1470 891 L1470 853 Q1272 853 1272 673 Q1272 626 1281 626 Q1321 626 1650 730 Q1783 704 1830 664 Q1830 606 1309 513 Q1272 445 1272 427 Q1300 8 1300 -112 L1272 -273 L1243 -273 Q1143 -217 1130 87 L1130 427 L1120 427 Q1046 427 799 257 L666 210 Q604 235 562 295 L562 305 Q562 330 704 352 Q1019 513 1120 589 L1120 692 L1101 692 Q1042 692 780 560 Q694 595 694 683 L694 702 L704 702 Q1149 781 1149 977 L1149 1033 Q1149 1385 1073 1440 Q1073 1453 1101 1468 ZM429 1336 Q619 1336 619 1213 L619 1203 Q619 1127 439 891 Q420 769 420 730 Q429 402 458 134 Q449 69 449 31 L429 31 Q334 128 326 229 Q331 305 344 305 Q335 333 326 333 Q344 416 344 465 Q344 513 326 513 Q344 561 344 589 Q337 626 326 626 Q344 669 344 749 L344 806 Q303 806 70 579 L70 589 Q85 667 344 1062 Q429 1220 429 1279 L429 1336 ZM789 1203 Q814 1179 865 1062 L884 1052 Q1025 1109 1101 1109 L1111 1109 L1111 1090 Q997 920 922 920 Q751 987 751 1175 Q751 1189 789 1203 Z" /><glyph glyph-name="uni4F4D" unicode="&#x4f4d;" d="M956 1206 Q1326 1137 1326 998 L1326 970 Q1326 891 1212 865 Q1212 888 956 1140 L956 1206 ZM502 1140 Q693 1093 767 979 L767 951 Q767 892 474 497 L474 478 Q549 447 549 383 Q549 296 559 71 L549 52 Q559 35 559 14 L559 -5 Q553 -166 512 -166 L446 -166 Q369 -113 369 24 L369 355 Q294 279 275 279 Q221 279 209 383 L209 402 Q559 804 559 979 Q519 1039 474 1130 L483 1130 L512 1111 L512 1121 L502 1140 ZM1372 865 Q1543 865 1543 799 Q1485 743 1061 629 Q1061 603 994 392 L1032 392 Q1205 525 1250 525 L1250 515 Q1250 471 1079 232 L1079 184 L1127 184 Q1243 184 1392 468 Q1401 506 1401 534 Q1372 615 1372 648 L1392 657 Q1591 592 1591 487 Q1591 443 1439 250 Q1808 229 1808 99 Q1808 84 1770 61 Q1706 61 1552 99 Q1412 99 729 -33 Q642 3 597 71 L597 99 Q656 99 739 90 Q957 147 985 147 L985 156 Q909 253 909 335 Q909 463 966 600 L853 591 L833 591 Q791 629 767 629 Q767 673 1354 865 L1372 865 Z" /><glyph glyph-name="uni4F55" unicode="&#x4f55;" d="M504 1279 L524 1279 Q751 1226 751 1081 L751 1071 Q609 965 609 910 L618 910 Q1600 1156 1640 1156 Q1820 1099 1820 1005 L1820 985 Q1820 967 1801 967 Q1498 976 1451 976 L1441 976 L1441 967 Q1544 967 1621 834 Q1649 322 1649 125 Q1653 49 1669 49 Q1631 -60 1583 -83 Q1465 -69 1290 39 Q1397 87 1479 87 L1479 153 Q1479 302 1461 352 Q1470 380 1479 380 Q1451 486 1451 607 L1451 740 Q1451 766 1366 929 L1366 967 Q1179 967 751 749 L684 749 Q625 749 543 806 L524 806 Q407 670 391 579 Q514 490 514 314 L514 210 Q514 11 486 11 Q278 72 278 219 L278 247 Q278 284 296 456 Q275 456 259 380 L250 380 Q138 380 79 503 Q250 715 401 1024 Q504 1178 504 1213 L504 1279 ZM1196 872 Q1252 857 1309 787 Q1309 794 1318 844 L1366 844 Q1366 632 1054 427 L1025 427 Q977 468 977 512 Q1016 581 1016 598 L997 598 Q864 598 864 721 L864 759 Q898 759 1196 872 ZM779 711 L789 711 Q959 517 959 361 L940 352 Q694 444 694 617 Q694 655 779 711 Z" /><glyph glyph-name="uni4F60" unicode="&#x4f60;" d="M845 1290 L898 1290 Q1100 1155 1100 1056 Q1089 1037 1089 1012 L1589 1088 Q1682 1054 1737 971 Q1514 709 1366 694 L1366 716 L1451 918 L1440 918 Q1003 918 908 737 Q713 588 665 588 L665 609 Q769 756 930 1099 Q877 1179 845 1290 ZM462 1194 L548 1194 Q571 1189 643 1056 Q569 898 356 599 L356 588 Q370 588 474 503 Q474 518 525 545 L548 545 Q441 272 441 -39 L441 -70 Q441 -92 420 -92 Q314 -77 314 4 L314 56 Q314 115 356 397 L356 429 Q356 455 336 525 L324 525 L165 259 L122 227 L101 227 Q48 254 48 311 Q48 387 451 1099 Q451 1154 462 1194 ZM1069 779 Q1323 727 1323 535 L1323 237 Q1323 -135 1259 -135 L1239 -135 Q1100 -135 867 120 L867 132 Q994 99 1132 89 Q1175 152 1175 216 L1175 461 Q1175 626 1036 737 L1036 758 Q1036 779 1069 779 ZM1482 578 L1504 578 Q1647 578 1844 291 L1844 259 Q1829 132 1770 132 Q1591 260 1482 535 L1482 578 ZM749 481 L771 481 Q792 412 792 386 L792 354 L803 354 L972 461 L983 439 Q806 218 781 99 Q714 99 601 270 Q650 395 749 481 Z" /><glyph glyph-name="uni4F73" unicode="&#x4f73;" d="M1276 1332 L1418 1332 Q1456 1319 1456 1246 L1456 1133 Q1456 1111 1645 1058 L1655 1010 L1655 972 Q1470 972 1437 887 L1437 878 Q1497 806 1607 745 L1607 698 Q1496 646 1437 575 L1437 508 Q1437 480 1598 423 L1598 386 Q1408 253 1408 102 Q1340 64 1305 64 Q1259 121 1210 121 L1068 35 L1040 35 L1020 45 Q1020 66 1182 215 Q1153 243 1020 300 L1011 338 L1020 338 Q1267 357 1267 414 L1267 480 L1191 480 L1238 556 L1238 565 Q1238 585 1219 585 Q1210 585 1210 575 Q1073 594 1020 594 L1020 613 Q1031 651 1267 755 Q1267 769 1257 887 Q1048 859 974 859 L964 878 Q964 916 1238 1020 Q1267 1054 1267 1086 L1267 1190 Q1267 1210 1210 1303 Q1244 1332 1276 1332 ZM529 1180 L538 1180 Q746 1145 746 1086 Q723 958 538 727 Q602 647 633 565 Q623 502 595 433 Q614 312 614 206 L614 83 Q575 34 519 -59 Q396 39 396 121 Q396 261 472 651 L472 660 L462 660 Q462 588 207 376 L188 376 L188 433 Q188 499 557 1105 Q529 1145 529 1180 ZM1645 83 Q1645 64 1712 -31 L1712 -50 Q1699 -135 1626 -135 L1380 -135 Q1314 -135 1314 -116 Q1238 -135 1153 -135 L1143 -135 Q954 -135 954 -40 L954 17 Q974 55 1011 55 Q1024 -11 1040 -11 L1645 83 Z" /><glyph glyph-name="uni4F9B" unicode="&#x4f9b;" d="M1082 1252 Q1253 1168 1253 1081 Q1253 1046 1244 845 L1291 854 Q1352 848 1423 788 L1423 760 Q1357 702 1215 637 Q1196 515 1196 495 L1206 495 Q1461 551 1594 551 L1622 551 Q1762 542 1774 505 L1774 457 L1764 438 Q1623 448 1575 448 Q1307 448 496 230 L496 343 Q861 412 1064 505 L1064 561 L922 608 L922 646 L1082 807 L1082 1044 Q1082 1055 1054 1233 Q1082 1243 1082 1252 ZM486 1186 Q581 1186 666 1063 L666 1006 L221 438 Q205 429 184 429 L165 429 Q155 429 127 466 Q136 551 344 845 Q344 865 486 1072 L486 1186 ZM827 958 Q1036 891 1036 798 Q718 457 648 457 Q619 466 619 476 L846 854 Q822 854 808 949 L827 958 ZM364 429 Q468 340 468 164 Q458 -35 439 -35 Q269 -7 269 41 L269 88 Q269 186 354 429 L364 429 ZM837 296 Q887 296 959 201 L959 164 L572 -44 L553 -44 Q524 -35 524 12 Q578 48 676 154 Q725 154 837 296 ZM1310 296 L1366 296 Q1513 296 1622 -25 Q1612 -44 1612 -54 L1594 -54 Q1347 11 1347 50 L1347 69 Q1380 69 1432 98 Q1432 111 1310 277 L1310 296 Z" /><glyph glyph-name="uni4FE1" unicode="&#x4fe1;" d="M387 1459 Q544 1408 604 1298 Q604 1273 273 674 Q245 626 245 598 Q368 598 368 286 Q387 212 415 -149 L349 -149 Q248 -149 179 59 Q179 113 170 125 Q216 404 216 503 Q207 522 207 532 L198 532 L46 390 Q21 396 -1 437 Q396 1314 396 1430 Q387 1449 387 1459 ZM860 1449 Q1276 1389 1276 1213 Q1147 1109 1096 1109 Q1030 1115 1030 1137 L1030 1222 Q982 1222 860 1383 L860 1449 ZM1740 1081 Q1900 1040 1900 957 Q1900 944 1872 929 L1532 929 Q1304 929 519 692 Q505 692 444 777 L444 787 L481 777 Q1294 1062 1702 1062 Q1702 1081 1740 1081 ZM1314 759 Q1437 718 1437 692 L1437 674 Q1437 613 936 503 L917 503 Q879 519 879 569 L879 589 Q885 604 1182 702 Q1198 724 1314 759 ZM1304 523 Q1456 487 1456 475 L1456 446 Q1391 367 936 248 Q879 268 879 324 L879 361 Q967 361 1304 523 ZM1418 238 Q1509 238 1560 163 L1560 96 Q1560 87 1551 87 L1560 68 Q1560 27 1456 -102 L1456 -206 Q1437 -206 1162 -263 Q841 -133 841 153 L869 153 Q962 153 1106 -83 Q1106 -97 1134 -112 L1201 -112 Q1295 -112 1324 39 L1219 39 Q1049 39 1049 68 L1049 106 Q1104 106 1418 238 Z" /><glyph glyph-name="uni50A8" unicode="&#x50a8;" d="M1461 1563 Q1521 1550 1556 1478 Q1546 1478 1546 1129 Q1593 1129 1593 1147 Q1801 1088 1801 1072 L1801 1062 Q1742 1008 1546 949 L1518 902 L1518 779 Q1569 779 1764 873 Q1887 869 1887 845 Q1767 690 1518 419 L1518 409 L1574 409 Q1700 494 1754 494 Q1816 494 1934 343 L1839 -366 L1783 -366 Q1698 -288 1698 -215 L1669 -215 Q1548 -215 1376 -244 Q1243 -178 1243 -64 L1243 116 Q1233 116 1215 126 Q1081 -64 988 -130 L846 -101 L846 -64 L1196 239 Q1196 270 1451 494 Q1527 578 1527 627 L1527 637 Q1490 637 1158 466 Q1110 447 1007 447 Q1007 455 978 523 Q1385 639 1385 779 L1385 873 L1168 807 Q1035 883 1035 949 Q1045 949 1045 958 L1130 939 Q1353 993 1404 1072 L1404 1469 Q1404 1488 1357 1488 L1357 1545 Q1461 1552 1461 1563 ZM448 1309 Q600 1286 600 1195 L600 1166 Q432 968 401 968 L411 911 Q382 279 382 -167 Q386 -281 401 -281 Q376 -357 363 -357 L354 -357 Q231 -260 231 -178 Q278 -178 278 -111 L278 807 Q25 608 -34 608 L-34 627 Q312 1051 430 1309 L448 1309 ZM893 1147 Q945 1147 997 1100 Q997 1024 685 939 Q590 987 590 996 L590 1053 L893 1147 ZM865 779 Q960 766 960 740 L960 731 Q818 564 818 306 L846 306 L997 428 L997 419 Q883 182 656 -121 Q524 -101 524 12 Q685 65 685 182 Q713 361 723 599 Q704 599 704 617 L524 523 Q430 528 430 551 L430 560 Q456 609 789 779 L865 779 ZM1433 343 L1423 324 L1423 144 L1433 144 Q1544 144 1726 192 L1726 324 L1716 324 Q1631 267 1584 267 Q1462 343 1433 343 ZM1423 2 L1423 -101 L1442 -130 Q1685 -92 1707 -92 L1707 41 Q1707 87 1688 87 Q1641 87 1423 2 Z" /><glyph glyph-name="uni513F" unicode="&#x513f;" d="M742 1074 Q844 1049 902 971 Q827 606 827 338 L827 225 Q827 151 892 151 L986 151 Q1401 151 1536 281 L1555 338 Q1536 453 1536 524 Q1770 292 1770 151 Q1770 43 1013 -45 Q650 20 650 198 Q725 884 725 953 Q706 1050 706 1055 Q742 1055 742 1074 ZM528 980 L537 980 Q593 975 593 953 L593 935 Q491 552 370 291 Q282 128 174 85 Q137 48 71 48 L62 67 Q463 643 463 963 L472 963 Q503 980 528 980 Z" /><glyph glyph-name="uni514D" unicode="&#x514d;" d="M754 1429 Q885 1375 885 1298 Q915 1316 938 1316 L998 1316 Q1190 1300 1190 1255 Q1190 1219 1173 1142 L1278 1142 Q1442 1142 1478 958 Q1313 831 1313 819 Q1338 810 1338 767 Q1338 727 998 592 L998 627 Q907 609 903 609 Q903 487 1033 487 L1078 487 Q1078 473 1095 435 Q1051 257 1051 156 L1051 -53 Q1051 -158 1260 -158 L1373 -158 Q1889 -158 1889 52 L1889 95 L1905 95 Q1930 56 2036 -79 Q2071 -143 2071 -158 Q1881 -306 1514 -306 Q998 -249 998 -175 Q958 -175 929 -71 Q946 155 946 383 L964 417 Q946 452 946 478 L903 478 Q903 383 754 252 Q524 -143 214 -228 L188 -228 L179 -210 L179 -183 Q452 -95 711 392 Q781 524 781 539 L773 539 L633 531 L633 435 L615 435 L633 400 Q633 386 580 347 Q451 347 371 741 Q333 741 327 862 L327 871 L337 871 Q571 711 571 609 Q818 626 1199 958 Q1217 958 1217 1019 L1182 1019 Q889 827 746 827 L641 827 Q631 827 607 897 L598 897 Q569 880 545 880 L537 923 Q545 984 754 1263 Q754 1349 623 1359 L623 1394 L754 1429 ZM676 941 L676 932 L711 932 Q848 932 973 1228 L929 1228 Q880 1144 737 993 Q676 949 676 941 Z" /><glyph glyph-name="uni5154" unicode="&#x5154;" d="M824 1443 Q843 1442 949 1335 L975 1335 L975 1351 Q1225 1324 1225 1276 Q1208 1188 1208 1168 L1300 1168 Q1479 1168 1501 1009 Q1490 958 1333 883 Q1359 840 1359 799 Q1359 775 1125 683 Q1125 657 1049 640 L1033 640 L1033 675 L949 675 L949 616 Q949 584 1117 532 Q1125 507 1134 507 Q1083 305 1083 147 L1083 39 Q1108 -78 1283 -78 L1300 -78 Q1876 -78 1876 106 Q1885 164 1902 164 Q1960 109 2069 -53 Q1906 -220 1551 -220 Q975 -173 975 14 Q982 340 999 490 Q990 504 990 532 L958 532 L874 398 Q634 80 498 -44 Q358 -136 289 -136 L255 -136 L255 -87 Q483 -45 740 415 Q740 429 832 608 Q805 590 782 590 L698 590 Q681 590 665 423 L631 423 Q565 423 490 565 Q467 720 389 874 L389 899 Q397 899 397 908 Q631 775 631 657 Q937 738 1108 899 Q1138 899 1208 1000 Q1222 1009 1250 1009 L1250 1058 L883 883 Q838 874 799 874 L681 874 Q681 934 590 934 L590 992 Q807 1269 807 1309 Q760 1376 698 1376 L698 1427 Q803 1443 824 1443 ZM966 1251 Q934 1198 740 983 L774 983 Q895 983 1016 1251 L966 1251 ZM1474 374 L1498 374 Q1665 374 1665 140 Q1650 131 1632 131 Q1482 206 1457 206 L1498 265 L1498 314 Q1474 345 1474 374 Z" /><glyph glyph-name="uni5165" unicode="&#x5165;" d="M601 1043 Q823 1043 1300 589 Q1673 449 1812 352 L1812 295 L1764 286 Q1627 305 1622 305 Q1583 305 1452 295 Q1240 295 932 702 L799 806 Q704 665 704 655 Q226 155 165 153 L156 153 Q89 184 89 324 L108 333 L146 333 L146 315 L165 315 Q536 650 610 845 Q629 845 629 891 Q619 891 619 901 L553 891 L496 891 Q472 911 449 911 L449 967 Q467 967 572 1043 L601 1043 Z" /><glyph glyph-name="uni5170" unicode="&#x5170;" d="M1111 1356 Q1272 1245 1272 1109 Q1001 849 922 835 L922 826 Q1013 854 1092 854 L1121 854 Q1187 854 1272 750 Q1272 690 742 608 Q543 695 543 778 L628 807 Q747 787 761 787 Q848 787 950 977 Q1073 1113 1073 1346 Q1077 1346 1111 1356 ZM647 1176 L676 1176 Q761 1176 779 1052 L789 1052 Q892 1119 931 1119 Q931 1086 808 901 L808 892 L751 892 Q685 892 600 1034 Q622 1176 647 1176 ZM1167 504 L1177 504 Q1291 487 1291 400 L1291 381 L846 258 Q619 301 619 466 L628 466 Q707 447 713 447 Q1121 504 1167 504 ZM1584 154 Q1584 117 1688 12 L1688 -26 Q1688 -41 1631 -64 Q1529 -7 1319 -7 Q965 -7 297 -159 L288 -159 Q237 -134 212 -83 L212 -17 Q1063 154 1584 154 Z" /><glyph glyph-name="uni5173" unicode="&#x5173;" d="M1086 954 L1135 954 Q1232 954 1232 859 L1232 835 Q1232 785 1013 740 L989 752 Q842 692 831 692 Q843 660 843 617 L843 534 L855 534 Q1059 605 1183 665 L1220 665 Q1232 665 1280 581 L1280 558 Q1280 517 1049 486 Q1049 474 1013 462 L989 474 L916 462 L916 474 L831 450 L843 427 L843 367 Q894 367 1320 2 Q1405 -58 1754 -193 L1779 -229 L1779 -253 L1584 -253 Q1572 -253 1572 -241 L1548 -253 L1487 -253 Q1475 -253 1475 -241 Q1413 -264 1390 -264 Q1171 -148 1013 153 L818 319 L779 98 Q660 -121 527 -121 Q527 -143 296 -217 Q296 -205 284 -205 Q284 -229 259 -229 L235 -229 L235 -193 Q358 -175 539 -14 Q668 152 709 367 L685 367 Q652 367 515 284 L502 284 Q372 319 344 379 Q344 403 575 438 Q746 498 746 522 Q765 618 767.5 629.5 Q770 641 770 680 L685 680 Q478 752 478 776 L478 788 Q482 811 502 811 Q515 811 515 800 L1086 954 ZM987 1464 Q1192 1360 1192 1222 Q951 962 831 917 Q831 926 821 926 Q1016 1141 1016 1258 L1016 1303 Q968 1420 968 1446 Q971 1464 987 1464 ZM568 1366 Q597 1360 597 1294 L597 1249 L607 1249 L685 1303 L704 1303 Q724 1300 724 1285 L626 1043 L607 1034 L577 1034 Q460 1128 460 1177 L460 1249 Q503 1331 568 1366 Z" /><glyph glyph-name="uni5178" unicode="&#x5178;" d="M931 1322 L941 1322 Q1149 1226 1149 1020 Q1433 958 1433 802 Q1263 646 1234 547 L1243 547 Q1312 565 1527 565 Q1527 547 1574 547 L1679 547 Q1849 547 1934 405 L1934 348 Q1868 342 1868 329 Q1679 405 1348 405 L1186 405 Q965 405 60 131 Q-34 131 -34 244 Q4 251 4 262 L51 244 Q129 315 496 395 L496 405 Q448 474 420 604 Q420 650 439 887 L448 887 Q533 805 656 442 L666 442 Q742 442 742 481 Q742 509 619 604 L619 613 Q619 645 695 660 L695 679 Q562 704 562 726 L562 812 L656 792 Q656 802 666 821 Q628 1028 619 1143 L628 1143 Q827 1053 827 887 Q942 938 969 972 L969 1000 Q969 1081 931 1322 ZM1101 774 L1101 745 Q1101 725 1186 717 Q1243 805 1243 840 Q1231 925 1158 925 L1149 925 Q1111 914 1101 774 ZM836 745 L836 689 L884 689 Q960 689 960 792 L960 821 Q836 764 836 745 ZM875 575 L875 481 L884 481 Q921 496 921 547 L921 594 L893 594 Q875 591 875 575 ZM1262 272 L1300 272 Q1433 272 1508 111 Q1453 66 1328 26 L1281 83 L1291 196 Q1262 249 1262 272 ZM761 262 L761 244 Q572 -2 533 -125 L524 -125 Q453 -125 382 -21 L382 -12 Q401 168 439 168 L458 168 Q458 102 505 74 Q710 262 761 262 Z" /><glyph glyph-name="uni518C" unicode="&#x518c;" d="M1210 1232 Q1417 1232 1512 929 Q1589 957 1674 957 L1740 957 Q1816 901 1816 844 Q1791 782 1768 777 L1494 777 Q1484 574 1484 474 L1484 229 Q1484 -36 1342 -36 Q1224 120 1162 219 L1181 229 Q1253 209 1295 209 Q1304 262 1304 285 Q1304 327 1314 692 Q1314 739 1295 739 Q1166 730 1134 730 L1134 721 Q1125 552 1125 446 L1125 304 Q1117 93 1068 87 L1021 87 Q954 87 954 163 L954 682 L945 682 Q897 682 784 654 Q794 394 794 247 Q794 115 765 115 L699 115 Q648 115 642 417 L642 607 L633 607 Q532 579 509 579 L509 560 Q509 30 358 30 Q337 1 292 1 Q387 240 387 531 Q239 522 169 522 Q84 528 84 550 Q175 607 358 673 L358 682 Q358 798 235 919 L235 938 L264 938 Q383 938 491 721 L509 721 Q623 748 623 777 Q614 829 614 853 L557 853 Q472 853 396 947 L396 957 Q414 992 671 1080 Q714 1080 794 957 Q784 860 784 805 L803 796 L954 834 L954 910 Q954 960 850 1089 L850 1109 Q1210 1222 1210 1232 ZM1125 1052 Q1134 957 1134 910 L1134 872 L1191 872 L1286 881 L1286 938 Q1286 1063 1219 1099 L1191 1099 Q1134 1052 1125 1052 Z" /><glyph glyph-name="uni5199" unicode="&#x5199;" d="M1380 1317 L1424 1317 Q1739 1278 1739 1075 Q1691 1039 1639 1039 L1622 1039 Q1519 1039 1299 1066 L1299 1102 Q1357 1102 1452 1209 L1362 1228 Q1020 1228 492 1057 Q430 1066 393 1066 L367 1066 L367 1057 Q367 970 340 895 Q367 850 367 806 L367 788 L357 680 L313 680 Q267 680 187 761 L178 761 L178 788 Q178 978 295 1246 Q399 1165 411 1165 Q962 1317 1380 1317 ZM662 1084 L672 1084 Q715 1084 851 985 Q832 822 832 780 L851 780 Q1008 887 1066 887 Q1152 860 1173 815 L1173 806 Q1173 683 869 663 L815 663 L815 653 Q815 626 805 483 L815 483 Q844 483 877 509 L895 509 L895 483 Q1227 555 1281 573 Q1531 573 1531 528 L1639 384 L1639 340 Q1639 164 1137 -315 L1120 -315 Q1030 -254 958 18 L966 18 Q1032 -18 1110 -136 Q1452 219 1452 349 L1452 420 Q1452 447 1317 447 Q1170 438 672 358 L672 366 Q644 466 644 492 Q680 680 680 726 L680 744 Q680 873 662 1084 ZM1173 330 Q1240 330 1334 215 L1334 205 Q1292 133 841 133 L438 8 L259 71 L259 98 Q259 119 590 179 Q1074 286 1173 330 Z" /><glyph glyph-name="uni51FA" unicode="&#x51fa;" d="M954 1337 L973 1337 Q1143 1229 1143 1118 L1143 712 L1200 712 Q1250 712 1361 721 Q1361 745 1351 977 Q1342 977 1342 986 L1389 986 Q1444 986 1579 853 Q1616 811 1616 769 Q1584 513 1512 513 L1512 494 Q1645 408 1645 295 L1645 135 Q1645 46 1579 21 Q1555 21 1417 154 Q1193 154 528 -93 Q528 -100 462 -139 L425 -139 Q330 -59 330 31 Q387 124 576 334 L576 352 L396 277 Q344 297 254 437 L254 494 Q538 729 538 844 L538 901 L585 901 Q774 750 774 702 Q774 681 746 589 L755 589 Q983 589 983 787 Q983 887 992 1090 Q992 1148 907 1289 L907 1327 L954 1337 ZM1115 466 L1115 239 Q1417 283 1417 305 L1380 504 L1446 513 L1446 532 Q1446 617 1342 617 Q1115 598 1115 466 ZM718 400 Q803 309 803 258 L803 248 Q746 187 746 144 L746 135 L793 135 Q944 157 944 248 L944 494 Q764 451 718 400 Z" /><glyph glyph-name="uni51FB" unicode="&#x51fb;" d="M827 1417 Q1035 1369 1035 1304 Q1047 1299 1073 1134 Q1139 1039 1281 1039 Q1281 1024 1300 1001 L1300 963 Q1300 930 1101 878 Q1054 782 1054 698 L1064 698 Q1232 717 1451 727 Q1811 709 1811 651 L1811 613 L1782 566 Q1655 575 1593 575 L1451 575 Q1054 575 1054 481 Q1026 141 1026 83 Q1228 121 1328 121 L1404 121 Q1404 208 1328 386 L1376 386 Q1622 307 1622 -40 L1622 -154 Q1622 -172 1603 -172 L1584 -172 Q1527 -172 1385 26 L1376 26 Q1016 26 912 -125 L884 -125 L884 -87 Q849 -87 429 -220 Q326 -170 326 -87 Q354 -5 514 310 Q599 310 676 111 L676 74 L638 -11 L647 -11 Q792 13 865 45 Q855 361 855 490 L846 490 Q306 415 146 415 L89 490 L89 509 Q289 509 855 661 L855 869 L846 869 Q721 869 486 944 L486 982 Q832 1057 855 1057 L855 1134 Q855 1270 761 1399 Q827 1399 827 1417 Z" /><glyph glyph-name="uni5206" unicode="&#x5206;" d="M724 1378 L790 1378 Q873 1378 913 1246 L913 1104 Q815 1016 572 754 Q554 754 279 517 Q196 470 137 451 Q118 483 118 508 Q118 617 449 915 L676 1218 L705 1265 L705 1360 Q708 1378 724 1378 ZM780 830 Q941 789 941 688 L941 594 L799 414 Q1007 414 1007 224 Q1055 183 1055 121 Q1055 -36 865 -183 Q618 -183 553 -78 L553 -3 Q604 -22 657 -22 Q790 107 790 224 L762 272 Q682 257 477 64 Q352 7 326 7 Q232 24 232 130 L232 149 Q232 217 459 375 Q567 512 733 782 L780 830 ZM1329 603 L1414 603 Q1629 603 1783 404 L1783 375 Q1724 375 1651 281 Q1570 272 1518 272 L1395 272 L1395 300 Q1452 429 1452 451 L1452 489 Q1310 531 1310 565 L1310 583 Q1313 603 1329 603 Z" /><glyph glyph-name="uni5230" unicode="&#x5230;" d="M1570 1464 Q1609 1456 1655 1388 Q1646 1271 1646 1265 Q1655 792 1702 -248 Q1667 -268 1626 -268 Q1626 -240 1333 -116 Q1333 -100 1276 7 L1286 7 L1513 -78 Q1570 -54 1570 -12 Q1539 1445 1503 1445 L1570 1464 ZM813 1274 Q936 1237 936 1208 L936 1199 Q742 1014 482 735 L482 726 L879 868 L879 878 Q803 973 803 1009 L813 1029 Q964 1029 1107 821 L1107 792 L1059 783 L964 792 Q699 704 699 688 Q785 610 785 556 L842 556 Q972 556 1012 490 Q1012 368 785 149 L785 140 L794 140 Q966 149 1012 149 Q1125 123 1125 45 Q1107 17 964 -12 Q948 -3 851 7 Q559 -50 340 -50 L330 -50 L312 35 Q533 35 605 149 L605 177 Q598 208 387 300 L369 367 Q607 527 652 527 L652 547 Q652 621 595 650 Q318 547 274 547 L245 547 Q198 639 198 660 Q436 865 482 953 L482 963 L472 963 Q398 925 349 925 L330 925 Q264 925 217 1009 L217 1029 Q353 1029 813 1274 ZM1248 858 Q1400 828 1400 660 Q1387 414 1361 414 L1333 414 Q1222 414 1210 603 L1210 783 Q1210 853 1248 858 ZM765 461 L765 319 L775 319 Q879 401 879 499 L870 499 Q765 490 765 461 ZM463 338 Q569 243 643 243 Q652 260 652 282 L652 442 Q470 367 463 338 Z" /><glyph glyph-name="uni524D" unicode="&#x524d;" d="M1343 1560 Q1491 1528 1491 1431 L1491 1373 Q1329 1195 1183 1151 L1183 1127 L1713 1244 Q1783 1244 1861 1151 L1861 1103 Q1861 1080 1837 1080 Q1684 1092 1676 1092 Q1280 1092 1 589 L-25 589 Q-61 634 -61 695 Q889 998 1036 1103 Q1319 1326 1319 1560 L1343 1560 ZM641 1537 Q665 1392 703 1280 Q797 1280 912 1373 L936 1362 Q872 1231 739 1127 L715 1127 Q543 1264 543 1349 L543 1385 Q543 1478 641 1537 ZM1552 964 L1566 939 Q1566 772 1626 39 Q1614 -6 1614 -54 L1626 -54 L1614 -78 Q1614 -90 1626 -90 L1614 -113 L1614 -125 Q1614 -151 1626 -172 Q1626 -227 1552 -313 L1504 -313 Q1385 -313 1208 -136 L1208 -125 L1233 -136 L1368 -136 L1454 -125 L1454 -43 Q1454 16 1442 133 L1454 133 L1442 156 L1442 647 Q1442 692 1393 916 Q1462 964 1552 964 ZM888 823 Q1060 783 1060 682 Q1060 672 1048 589 L1072 577 Q1117 624 1171 624 L1269 589 Q1269 652 1319 671 Q1311 238 1269 238 L1245 238 Q1122 301 1122 413 L1122 507 L1085 507 Q1023 477 1023 413 L1023 190 Q1023 -382 924 -382 Q834 -382 752 -231 L752 -218 L838 -231 L850 -231 Q875 136 875 190 L715 51 L703 51 Q639 109 591 109 L591 -78 Q591 -160 530 -160 Q474 -141 444 -90 Q483 613 579 613 Q579 628 703 729 L727 729 Q727 672 703 518 L727 531 L752 531 Q768 531 850 436 L850 402 Q800 331 727 331 L715 331 L653 343 Q604 266 604 167 L604 144 L617 144 Q794 236 888 343 L888 542 Q785 627 777 659 Q888 804 888 823 Z" /><glyph glyph-name="uni529B" unicode="&#x529b;" d="M1055 1313 Q1183 1222 1183 1091 Q1183 1017 1166 912 Q1277 954 1302 954 L1311 954 Q1507 923 1507 792 Q1515 792 1515 783 Q1352 54 1021 -266 L986 -266 Q764 41 756 41 L738 41 Q606 -61 525 -61 L431 -61 L431 -53 Q730 198 730 339 Q829 339 910 630 L910 639 Q619 536 338 450 Q167 515 167 545 L167 596 Q670 733 927 835 Q1012 878 1012 1091 Q1012 1127 927 1271 L927 1279 Q998 1313 1055 1313 ZM883 177 Q883 136 1037 84 Q1215 263 1302 792 L1294 792 Q1037 709 1037 511 L883 177 Z" /><glyph glyph-name="uni52A1" unicode="&#x52a1;" d="M666 1634 L694 1634 Q722 1513 722 1454 L722 1406 L779 1406 Q815 1406 978 1473 Q1073 1432 1073 1369 L1073 1360 Q1073 1326 846 1018 L846 972 Q1190 820 1867 499 L1867 479 L1820 470 L1754 470 Q1388 470 978 801 Q807 896 770 896 L761 896 Q253 290 70 290 Q32 357 32 385 L32 403 L70 403 Q248 403 666 952 L666 962 Q626 1021 496 1075 Q366 896 259 896 Q240 933 240 1000 Q627 1422 656 1624 Q656 1634 666 1634 ZM562 1123 Q702 1047 742 1047 Q892 1262 912 1369 L902 1369 Q619 1331 619 1246 Q562 1188 562 1123 ZM742 697 L751 697 Q810 697 827 442 L836 442 L1063 527 Q1243 440 1243 366 Q1234 247 912 -438 L893 -438 Q820 -438 637 -173 L637 -155 Q790 -259 846 -259 Q1120 268 1120 413 Q1092 413 1092 442 L1082 442 Q732 324 732 139 Q588 -161 429 -296 L411 -296 Q605 118 628 195 Q428 244 411 290 L411 300 Q713 346 713 499 Q742 672 742 697 Z" /><glyph glyph-name="uni5316" unicode="&#x5316;" d="M572 1218 Q655 1218 752 1086 L752 1047 Q559 808 458 650 Q502 650 553 565 L553 366 Q553 345 543 328 Q543 319 553 319 L543 281 Q562 44 572 -2 Q533 -10 533 -22 Q490 -22 392 73 L411 394 L392 556 Q341 529 250 385 Q231 362 231 348 L184 348 Q108 409 108 451 Q119 595 458 1019 Q556 1126 572 1218 ZM912 1161 Q1347 1003 1347 934 Q1385 892 1385 887 L1385 830 L1338 830 Q1089 830 884 1123 L884 1132 Q884 1140 912 1161 ZM827 830 L865 830 Q978 830 1035 707 Q960 548 960 348 Q981 168 1035 168 Q1575 168 1575 300 Q1619 596 1669 631 Q1792 489 1792 215 L1792 111 Q1619 54 1045 54 Q823 54 789 376 L827 830 Z" /><glyph glyph-name="uni533A" unicode="&#x533a;" d="M1111 1408 Q1357 1360 1357 1266 Q1357 1209 1196 1209 Q1153 1209 1035 1228 Q952 1228 676 1086 L638 1086 Q506 1086 420 1247 L420 1266 Q423 1285 439 1285 L505 1285 Q662 1285 1111 1408 ZM1026 1086 Q1203 1086 1357 907 Q1248 760 1140 632 L1140 622 Q1269 552 1442 367 Q1451 351 1451 329 Q1451 274 1357 263 Q1220 263 1149 423 Q1017 490 1007 490 Q957 411 628 64 L590 64 Q543 89 543 140 Q893 436 912 566 Q772 628 610 793 L610 802 L619 802 Q659 802 1017 688 Q1111 842 1111 907 L1111 935 L1007 1058 L1007 1067 Q1010 1086 1026 1086 ZM259 1048 Q439 980 439 859 L392 215 Q418 -30 505 -30 L524 -30 Q596 -30 1442 45 L1451 45 Q1669 5 1669 -87 L1669 -116 Q1650 -116 1603 -144 Q1388 -116 1310 -78 Q1023 -144 515 -210 Q417 -210 269 112 L231 320 Q279 922 279 973 Q259 1006 259 1048 Z" /><glyph glyph-name="uni534E" unicode="&#x534e;" d="M898 1591 L907 1591 Q1078 1545 1078 1497 Q1058 1370 1058 1337 Q1227 1452 1305 1469 Q1465 1362 1494 1317 L1494 1289 Q1494 1270 1475 1270 L1380 1270 Q1268 1270 1002 1081 L1002 1062 Q1002 958 1191 958 L1314 958 Q1473 958 1532 1109 Q1551 1208 1551 1213 L1570 1213 Q1588 1207 1712 949 Q1504 853 1314 853 Q898 882 898 1015 Q773 986 727 986 L727 995 Q889 1183 889 1270 Q898 1377 898 1516 L898 1591 ZM567 1563 Q727 1542 727 1450 Q719 1427 444 1109 L444 1100 Q548 1100 548 740 L548 655 Q548 599 500 599 Q397 643 397 750 L397 995 Q397 1015 377 1015 L359 1015 Q349 967 226 816 L207 816 Q160 840 160 892 L160 910 Q183 1014 567 1554 L567 1563 ZM794 759 L889 759 Q1022 759 1040 599 L1040 570 Q1050 570 1069 560 Q1490 645 1542 665 Q1702 602 1740 542 Q1695 499 1645 485 Q1480 513 1343 513 Q1228 513 1058 475 L1058 286 Q1058 -188 1012 -395 L974 -395 Q870 -264 870 115 L870 456 L860 456 L207 334 Q160 370 160 409 Q187 456 217 456 L274 447 Q870 531 870 579 L794 759 Z" /><glyph glyph-name="uni535A" unicode="&#x535a;" d="M1021 1620 L1096 1620 Q1153 1582 1153 1460 L1153 1383 L1172 1383 Q1248 1383 1248 1563 L1248 1592 L1257 1592 Q1342 1579 1342 1507 L1342 1383 L1418 1383 Q1437 1381 1437 1365 Q1437 1295 1153 1213 L1153 1129 L1172 1129 Q1196 1129 1286 1157 L1295 1157 Q1456 1157 1456 901 Q1418 813 1418 740 L1437 731 Q1418 683 1418 560 L1418 466 L1427 419 Q1586 457 1759 457 Q1812 457 1900 437 L1900 419 Q1844 349 1484 286 Q1456 213 1456 154 L1456 -102 Q1456 -345 1314 -424 Q1285 -424 964 -206 L964 -196 Q1178 -253 1248 -253 Q1276 -137 1276 -93 L1276 267 L1267 267 Q1145 267 879 211 L879 201 Q1038 101 1040 59 Q1049 7 1049 -16 Q974 -115 974 -178 L964 -178 Q813 -86 813 126 Q803 126 803 172 Q497 106 472 106 Q472 -96 358 -234 Q245 -184 245 -168 Q311 564 311 617 L264 617 Q238 617 207 599 Q33 674 -1 674 L-1 693 Q139 817 368 949 L368 1005 Q368 1130 302 1365 L321 1365 Q500 1295 500 1157 L510 1157 Q491 1056 491 996 L510 996 Q563 996 652 977 L652 967 Q652 894 463 702 L434 570 L434 295 Q437 182 453 182 Q766 287 831 343 L831 362 Q766 362 728 428 L728 958 Q728 984 746 1015 Q800 996 897 996 Q1002 1010 1002 1043 L1002 1175 Q889 1118 737 1118 L718 1118 Q682 1140 652 1195 L652 1242 Q652 1255 680 1270 L689 1270 Q718 1270 784 1232 Q1019 1323 1021 1337 L1021 1620 ZM1134 967 L1134 892 L1144 892 Q1192 910 1267 910 L1267 901 L1276 901 L1276 1043 L1201 1043 Q1165 1022 1134 967 ZM860 949 L860 844 L869 797 L964 807 L983 807 L983 939 L974 939 Q958 939 860 949 ZM1116 750 L1116 702 Q1247 731 1276 731 L1276 854 Q1137 854 1116 750 ZM879 731 L879 608 L945 608 Q964 608 964 627 L964 731 L879 731 ZM1049 400 L1049 362 L1229 380 L1229 391 L1191 447 L1191 494 Q1256 494 1267 542 Q1210 551 1210 570 L1210 608 L1276 608 L1276 693 Q1049 596 1049 400 ZM879 513 Q897 419 897 324 Q903 324 1002 343 L1002 380 Q936 486 936 542 Q879 532 879 513 Z" /><glyph glyph-name="uni5386" unicode="&#x5386;" d="M1361 1498 Q1466 1454 1466 1441 L1466 1384 Q1024 1279 870 1279 L851 1279 Q756 1338 756 1431 L765 1431 Q811 1431 860 1421 Q1156 1478 1361 1498 ZM671 1195 Q813 1166 813 1110 Q482 161 264 -215 Q198 -269 198 -281 L198 -300 L141 -300 L491 627 L671 1195 ZM1229 1156 L1305 1156 Q1437 1052 1437 968 Q1428 848 1428 826 L1437 826 L1569 854 Q1759 822 1759 683 Q1697 298 1400 -101 L1258 -243 L1220 -243 Q1140 -135 1030 -17 L1021 22 L1011 22 Q765 -73 699 -73 L633 -73 L633 -55 Q633 -40 831 78 Q921 165 955 286 Q1044 286 1153 551 Q1153 561 1144 561 Q1073 561 879 447 Q757 447 680 551 L680 589 Q816 593 1220 769 Q1248 916 1248 996 Q1248 1008 1163 1110 L1163 1119 Q1179 1156 1229 1156 ZM1135 144 Q1135 133 1276 68 Q1447 223 1532 646 Q1541 662 1541 693 L1532 693 Q1295 632 1295 457 Q1135 188 1135 144 Z" /><glyph glyph-name="uni53CA" unicode="&#x53ca;" d="M1101 1210 L1110 1210 Q1327 1210 1327 1022 Q1232 962 1176 823 Q1158 747 1158 728 L1195 747 Q1373 747 1394 520 Q1375 436 1299 198 Q1491 56 1876 -29 Q1914 -29 1942 -76 L1942 -104 L1924 -133 Q1916 -133 1867 -123 Q1666 -171 1554 -171 L1167 47 Q1007 -143 836 -143 Q777 -143 731 -76 Q731 -60 750 -19 L769 -29 L816 -29 Q921 35 1025 151 Q816 311 703 330 Q548 127 315 -209 L296 -209 Q276 -209 249 -104 Q417 246 741 747 L741 794 Q466 649 466 520 L420 520 Q337 520 306 700 L306 728 Q306 742 372 823 L466 813 L495 813 Q849 1063 1101 1210 ZM939 945 L939 908 Q971 851 978 851 L968 832 L968 794 L978 794 Q1053 1010 1053 1031 L1044 1031 Q971 996 939 945 ZM930 652 L750 416 Q859 416 1129 284 Q1173 284 1214 595 Q1196 605 1186 605 L1015 577 Q1015 590 930 652 Z" /><glyph glyph-name="uni53EF" unicode="&#x53ef;" d="M1787 1341 Q1989 1265 1989 1157 L1989 1131 Q1989 1124 1962 1104 Q1840 1165 1674 1210 Q1633 1192 1594 1192 Q1568 1201 1568 1210 Q777 1113 287 982 Q287 971 121 867 Q-45 894 -45 1034 Q120 1061 945 1244 Q1752 1332 1787 1341 ZM1261 1131 Q1436 1087 1436 1034 Q1409 874 1409 797 L1409 587 Q1409 429 1445 52 Q1445 -246 1235 -246 Q1226 -246 1208 -237 L1173 -246 Q990 -231 990 -202 L990 -193 Q1244 -137 1244 61 L1244 78 L1226 78 Q1244 118 1244 193 L1244 412 Q1244 720 1261 964 L1235 964 Q836 565 778 544 Q700 585 700 666 L700 674 Q866 856 876 911 L858 911 Q776 911 568 622 L560 622 Q472 665 472 841 Q882 1054 971 1061 L998 1061 Q1085 1049 1085 982 L1085 920 L1120 920 Q1217 974 1261 1131 Z" /><glyph glyph-name="uni53F0" unicode="&#x53f0;" d="M773 1536 L790 1536 Q903 1536 1016 1385 L1016 1368 Q1016 1277 630 697 L630 688 L639 688 Q824 715 1168 906 L1193 906 Q838 513 555 471 L538 471 Q459 518 421 637 Q480 812 824 1368 Q824 1383 841 1410 Q794 1450 773 1536 ZM1092 1150 L1109 1150 Q1315 1150 1529 923 L1529 915 Q1529 822 1302 781 Q1302 770 1210 747 L1210 755 L1251 923 Q1092 1089 1092 1141 L1092 1150 ZM1235 588 L1302 588 Q1420 588 1503 445 Q1503 245 1310 -33 L1310 -42 L1352 -76 L1352 -125 Q1048 -168 849 -168 Q715 -168 504 236 L504 294 Q504 307 538 319 Q653 319 781 9 Q792 9 849 -67 Q999 -67 1185 59 Q1233 112 1243 193 Q1290 193 1302 471 L1268 471 Q1156 434 982 286 Q982 245 916 236 L857 236 Q700 236 672 362 Q1102 588 1235 588 Z" /><glyph glyph-name="uni53F7" unicode="&#x53f7;" d="M1276 1545 Q1346 1545 1466 1346 L1296 1100 Q1309 1100 1362 1033 L1362 967 Q1362 949 1342 949 L1031 949 Q996 949 926 892 L889 892 Q728 942 728 1128 L728 1365 Q728 1388 766 1393 Q777 1393 841 1365 Q1155 1545 1276 1545 ZM1011 1251 L983 1251 L917 1260 Q955 1111 955 1090 L1011 1090 Q1137 1090 1220 1402 L1210 1402 L1011 1251 ZM1475 920 L1551 920 Q1721 920 1721 787 Q1656 702 1220 702 Q1149 581 1125 494 Q1409 494 1409 324 L1409 154 Q1409 -191 1068 -348 L993 -348 Q838 -348 746 -83 L746 -64 Q746 -50 784 -36 Q794 -36 955 -159 Q1257 -34 1257 220 L1257 305 Q1257 318 1210 343 L1201 343 Q1029 273 869 229 Q836 229 775 362 L945 636 L936 636 Q332 419 264 419 Q183 500 179 570 Q179 612 746 759 Q776 759 1286 910 Q1414 920 1475 920 Z" /><glyph glyph-name="uni5404" unicode="&#x5404;" d="M827 1364 L865 1364 Q987 1343 987 1194 L987 1185 Q978 1154 978 1119 L1035 1071 Q1149 1099 1149 1156 L1224 1156 Q1307 1156 1319 1033 Q1316 964 1120 683 L1120 655 Q1206 655 1612 390 Q2028 214 2057 182 Q2066 165 2066 144 Q2031 116 2000 116 L1981 125 L1962 116 L1943 125 L1896 116 Q1779 116 1432 267 Q1432 252 1319 -26 Q1401 -62 1404 -83 L1404 -140 Q1252 -149 1243 -159 Q1215 -149 1215 -140 Q1171 -159 1130 -159 Q1069 -140 1054 -140 Q921 -140 921 -244 L902 -244 Q660 -244 581 106 L581 125 L562 125 Q319 -112 231 -112 Q155 -31 155 40 L183 59 L221 59 L221 31 L240 31 Q395 83 732 475 Q759 502 827 607 L827 646 Q827 674 666 683 Q452 466 392 466 L372 466 Q326 553 326 579 L600 901 Q827 1203 827 1327 L827 1364 ZM921 1033 Q881 954 779 815 L779 797 Q853 769 884 769 L931 769 Q1027 872 1044 967 Q946 1043 921 1043 L921 1033 ZM761 314 Q789 267 789 239 Q1226 390 1252 390 L1252 427 L1016 570 Q952 550 761 324 L761 314 ZM845 97 Q807 116 789 116 Q799 100 836 -74 Q1120 -46 1120 68 L1130 134 Q1101 134 1101 144 Q1036 116 845 97 Z" /><glyph glyph-name="uni5408" unicode="&#x5408;" d="M846 1292 L865 1292 Q1026 1292 1026 1169 Q970 1081 970 1018 Q997 962 1556 724 Q1908 610 2142 610 L2152 591 L2152 563 Q2152 497 1717 468 L1717 488 Q1689 478 1689 468 Q1476 560 1064 847 Q909 913 894 913 L875 913 Q714 766 714 639 L723 639 Q787 639 1026 724 L1102 724 Q1172 724 1178 696 L1178 639 Q1178 571 1026 544 Q846 489 846 478 Q846 459 818 459 Q753 478 591 544 Q360 229 99 147 L52 147 Q33 147 33 166 L33 213 Q163 296 316 440 Q710 897 828 1150 Q838 1150 875 1216 Q875 1247 846 1282 L846 1292 ZM1159 459 L1168 459 Q1234 459 1338 336 Q1338 252 1206 90 L1206 61 Q1233 61 1338 33 L1338 15 Q1338 -54 960 -90 L865 -71 Q865 -124 771 -165 Q616 -165 534 346 L544 346 L563 355 L686 269 Q686 294 875 326 Q1080 459 1159 459 ZM837 166 Q787 187 733 232 L705 232 Q769 33 865 33 Q1061 33 1121 308 Q1000 228 837 166 Z" /><glyph glyph-name="uni540C" unicode="&#x540c;" d="M1409 1356 L1418 1356 Q1740 1290 1740 1053 L1740 315 Q1740 276 1731 211 Q1759 129 1759 50 Q1749 21 1740 21 Q1759 -13 1759 -54 L1759 -102 Q1759 -136 1626 -159 L1541 -159 Q1299 -20 1229 50 L1446 50 Q1513 78 1513 163 L1513 428 Q1513 513 1494 589 L1513 599 Q1475 1176 1437 1176 Q1366 1157 1305 1157 L1144 1157 Q1090 1157 510 1034 L500 1034 Q415 1055 415 1081 Q686 1186 1400 1327 Q1409 1345 1409 1356 ZM1002 987 Q1116 975 1116 939 Q1116 885 728 826 Q655 826 642 864 L642 892 Q683 883 708 883 Q708 914 1002 987 ZM255 844 L283 844 Q425 764 425 286 L425 50 Q397 6 226 -64 Q160 69 141 145 Q219 736 235 750 Q255 750 255 798 L255 844 ZM993 778 Q1148 778 1210 665 L1210 618 Q1210 498 1087 325 Q1116 281 1135 211 Q1068 173 964 145 Q889 163 785 163 L756 163 Q699 163 699 97 L652 97 Q595 97 529 579 Q548 669 548 693 L576 693 Q655 693 662 599 L671 599 Q752 599 993 778 ZM756 533 L728 533 L728 428 Q734 277 775 277 L785 277 Q881 277 973 561 Q878 533 756 533 Z" /><glyph glyph-name="uni540D" unicode="&#x540d;" d="M793 1485 Q866 1485 964 1399 Q838 1030 562 851 Q453 775 391 775 Q777 1187 810 1348 Q793 1377 793 1399 L793 1485 ZM1306 1339 Q1384 1321 1384 1202 Q1345 1061 734 219 L734 211 Q878 38 878 -97 L878 -209 L853 -209 Q682 -55 682 133 Q362 -184 246 -209 L203 -209 Q186 -209 186 -184 Q413 87 657 408 Q873 647 896 740 Q864 740 717 835 L717 886 Q717 912 802 929 Q817 929 981 835 L990 835 Q1152 992 1152 1083 L1152 1100 L1067 1091 Q956 1139 956 1211 Q956 1285 1306 1339 ZM1537 535 Q1655 535 1700 381 L1700 372 Q1700 234 1451 -4 Q1451 -9 1512 -97 Q1512 -151 990 -175 Q926 -175 922 -46 L938 -37 L972 -37 Q1431 -37 1503 253 Q1528 344 1528 381 Q1515 391 1443 399 Q1357 355 1067 184 Q908 229 896 270 L896 322 Q1287 458 1537 535 Z" /><glyph glyph-name="uni541B" unicode="&#x541b;" d="M1376 1436 Q1434 1436 1528 1303 L1528 1274 Q1499 1152 1499 1114 Q1625 1142 1661 1142 Q1764 1096 1764 1076 L1764 1066 Q1405 1002 1405 849 L1405 764 Q1442 713 1442 678 L1442 669 Q989 594 989 310 L1007 310 Q1074 310 1481 527 L1490 527 Q1707 475 1707 328 Q1499 63 1499 45 L1499 35 Q1499 7 1565 7 L1565 -60 L1556 -60 Q1264 -107 1083 -107 L1046 -107 L1055 -202 Q871 -202 827 -22 L827 -3 L752 -3 Q752 -55 525 -239 L496 -239 Q440 -206 440 -154 Q511 -113 676 102 Q784 255 856 413 L837 413 Q777 413 563 291 L553 291 Q496 348 496 385 L496 395 Q496 425 913 622 Q956 622 989 773 L979 773 Q928 773 146 490 L137 490 L137 584 Q865 832 989 953 L989 1029 Q989 1177 818 1313 L818 1341 L827 1341 Q1000 1341 1376 1436 ZM1064 1218 L1064 1199 Q1064 1100 1187 1000 L1234 1000 Q1331 1000 1348 1265 Q1317 1265 1064 1218 ZM1131 773 L1131 726 L1149 726 Q1254 726 1254 811 L1254 906 Q1149 906 1131 773 ZM1064 158 Q1023 158 989 177 L989 7 L1092 7 Q1226 7 1405 243 Q1528 362 1528 433 L1519 433 Q1488 433 1083 158 L1064 158 Z" /><glyph glyph-name="uni5434" unicode="&#x5434;" d="M884 1498 Q986 1459 1073 1346 L1073 1318 Q909 1166 884 1110 L884 1100 Q988 1100 988 1071 L988 1025 Q666 920 515 892 Q479 807 458 807 Q303 807 202 1223 L127 1375 L146 1375 Q467 1276 467 1166 L448 1081 Q458 1043 458 1015 L515 1015 Q628 1015 761 1299 L742 1299 Q590 1185 553 1185 Q512 1185 448 1280 L448 1299 Q556 1321 808 1488 Q875 1498 884 1498 ZM865 930 Q1000 870 1017 826 L1017 769 Q907 750 761 693 L761 542 L770 542 Q1039 687 1102 693 Q1225 657 1225 589 L1225 580 Q1212 495 1139 495 Q1125 532 1111 532 Q808 449 808 390 Q1266 -130 1527 -130 Q1703 -130 1792 -253 L1792 -272 L1470 -272 Q1042 -272 808 201 L695 305 L685 305 L685 296 Q685 108 562 -158 L467 -215 Q467 -257 212 -300 Q108 -300 108 -272 L108 -243 Q524 1 524 248 L505 248 Q338 135 222 135 L202 135 Q165 151 165 201 Q165 333 392 333 Q560 436 562 466 Q562 480 543 552 Q638 573 638 646 L628 646 L477 598 Q353 625 325 665 L325 703 Q364 764 865 930 Z" /><glyph glyph-name="uni5468" unicode="&#x5468;" d="M1350 1369 Q1652 1327 1652 1066 L1671 555 L1652 546 Q1728 72 1728 -211 Q1728 -249 1576 -268 Q1535 -184 1217 -50 Q1217 -38 1141 16 L1141 26 L1151 26 Q1386 -40 1435 -40 L1558 -40 L1558 -31 Q1473 680 1473 1133 Q1425 1274 1396 1274 L1387 1274 Q971 1159 971 1133 L971 1105 Q971 1076 1000 1028 L1066 1038 L1075 1038 Q1188 1022 1188 991 L1188 972 Q1185 955 1000 886 L1000 811 L1009 764 Q1120 773 1170 773 L1188 773 Q1208 770 1208 754 L1208 698 Q952 657 952 546 Q941 546 857 575 Q841 575 621 470 Q583 511 583 546 L583 584 Q606 584 829 698 L829 830 L820 830 Q765 784 715 783 L640 877 L640 906 L649 906 L715 896 Q857 953 857 972 L857 991 L848 1085 Q709 1057 678 1057 Q599 1092 564 1161 L564 1199 L573 1199 Q628 1199 725 1189 Q984 1256 1350 1369 ZM365 830 Q479 770 479 678 Q342 -183 176 -183 Q91 -90 91 -50 Q259 151 318 461 Q356 624 356 698 Q337 793 337 820 Q355 830 365 830 ZM1141 584 Q1236 584 1368 413 L1368 385 Q1307 372 1170 158 L1094 130 Q1046 130 1046 148 Q985 120 895 120 L791 120 L791 26 Q741 16 735 16 Q592 87 592 205 L649 433 L678 433 L678 413 Q678 376 744 196 Q1056 196 1056 310 Q1056 330 1066 413 Q823 328 791 328 Q735 361 735 413 Q744 432 744 442 Q794 433 801 433 Q871 433 1141 584 Z" /><glyph glyph-name="uni548C" unicode="&#x548c;" d="M713 1317 L761 1317 Q877 1317 998 1166 L998 1071 L950 1071 L893 1080 Q387 872 345 872 L316 872 L316 910 Q609 1203 733 1232 Q713 1263 713 1288 L713 1317 ZM1650 1043 Q1811 944 1811 825 Q1806 749 1707 560 Q1773 538 1773 437 Q1764 419 1764 409 L1641 409 Q1538 409 1376 390 Q1332 418 1319 418 Q1265 390 1243 390 Q1064 486 1064 664 L1064 769 Q1064 825 1139 882 L1158 882 Q1205 857 1206 844 Q1563 1043 1650 1043 ZM733 1005 L836 1005 Q885 882 969 882 Q987 843 987 825 L846 683 L846 532 Q998 499 998 399 L998 342 L950 333 Q926 333 846 352 L846 -93 Q846 -106 818 -121 L779 -121 Q718 -120 647 -45 Q666 144 666 314 L666 352 L656 352 Q401 49 363 49 L316 49 Q246 49 240 87 Q326 239 505 484 L505 494 Q366 409 306 409 L183 409 Q124 440 89 504 L89 532 Q121 599 694 863 L694 938 Q733 938 733 1005 ZM1394 683 Q1360 683 1272 721 Q1309 623 1319 570 L1376 570 Q1521 570 1584 835 Q1531 798 1394 683 Z" /><glyph glyph-name="uni54AA" unicode="&#x54aa;" d="M1059 1322 L1078 1322 Q1239 1322 1239 1227 L1239 1085 Q1242 1019 1258 1019 Q1248 991 1239 991 Q1251 759 1267 687 Q1589 738 1589 782 Q1788 735 1788 716 L1788 669 Q1788 650 1760 650 Q1652 669 1608 669 Q1421 669 1258 612 Q1296 139 1296 54 Q1265 -126 1182 -126 Q1086 -11 993 196 Q981 205 945 205 Q819 35 803 34 Q709 34 709 148 Q752 328 823 328 Q832 312 832 281 L851 281 Q860 281 1022 451 L1040 451 L1040 441 Q993 355 993 271 Q1100 120 1163 120 L1182 120 L1182 299 Q1182 402 1163 564 L1144 564 Q1115 564 709 413 L671 413 Q614 478 614 489 Q725 541 1031 602 Q1144 649 1144 659 L1144 744 Q1144 792 1135 886 Q1073 861 936 650 L899 650 Q747 759 747 934 L747 952 L766 952 L908 829 Q1114 943 1125 943 L1059 1322 ZM1409 1170 Q1655 1059 1655 962 Q1521 818 1305 726 L1305 735 Q1485 958 1485 1009 Q1409 1058 1409 1113 L1409 1170 ZM539 905 Q626 905 690 763 L539 574 Q614 543 614 527 L614 517 Q586 486 586 470 L492 479 L482 479 Q330 479 264 375 L245 375 Q141 375 141 602 Q141 713 113 792 L113 811 Q255 788 255 706 Q270 631 284 631 L274 612 L274 555 L284 555 Q334 555 472 669 L539 772 L539 782 Q376 706 350 706 Q272 706 245 772 Q245 798 264 829 L312 820 Q483 905 539 905 ZM1372 555 L1400 555 Q1763 312 1788 176 L1788 129 L1769 129 L1485 214 L1475 214 L1475 242 Q1475 250 1541 309 L1541 319 Q1372 502 1372 555 Z" /><glyph glyph-name="uni54C1" unicode="&#x54c1;" d="M1021 1322 Q1220 1258 1220 1161 L1220 1133 Q1116 980 1116 868 Q1173 829 1173 773 Q1173 743 1002 707 Q922 716 869 716 L784 716 L671 594 Q563 594 482 1246 L491 1246 L633 1152 Q858 1237 1012 1322 L1021 1322 ZM671 1057 L671 1029 Q681 865 766 839 Q917 839 917 1047 Q917 1079 926 1095 L784 1095 Q671 1095 671 1057 ZM1466 574 Q1664 535 1664 489 Q1636 385 1561 215 Q1598 215 1598 158 L1598 130 Q1563 83 1437 35 Q1437 16 1428 16 Q1349 16 1239 44 Q1211 -45 1211 -59 L1201 -59 Q1113 -59 974 167 Q964 262 964 309 L964 423 Q971 546 1002 546 L1012 546 Q1012 484 1116 404 Q1173 404 1466 574 ZM860 565 Q860 531 917 508 Q857 278 813 215 L813 206 Q898 192 898 167 L898 139 Q877 91 567 -41 Q567 -78 548 -78 L567 -126 L539 -126 Q283 -74 283 130 Q255 246 236 385 L283 385 Q283 350 387 309 Q473 101 539 101 Q718 253 718 329 L718 347 Q718 366 690 366 Q586 319 539 319 L482 319 Q387 332 387 404 Q435 404 813 565 L860 565 ZM1144 272 Q1144 203 1201 158 Q1437 201 1437 291 Q1447 342 1447 395 L1419 395 Q1280 395 1144 272 Z" /><glyph glyph-name="uni54D2" unicode="&#x54d2;" d="M1187 1369 L1234 1369 Q1249 1369 1300 1303 L1300 1209 Q1300 1006 1272 858 L1282 858 Q1433 901 1433 962 L1471 962 Q1660 962 1660 811 L1651 811 L1613 792 L1575 811 Q1475 792 1310 726 L1310 707 Q1714 386 1717 300 L1727 206 Q1714 196 1642 158 Q1583 158 1414 499 Q1276 659 1263 659 Q1263 499 1168 366 Q1069 234 894 234 Q831 260 818 291 L818 300 L847 300 Q1053 300 1140 650 L1130 650 Q1007 584 913 584 Q865 641 865 707 L865 716 Q865 729 913 764 L932 764 Q950 764 950 736 Q1097 764 1159 821 Q1197 1038 1197 1331 L1187 1369 ZM411 1019 Q534 1019 534 877 L534 849 Q421 713 421 659 L421 650 L449 613 L251 565 L251 423 L222 423 Q115 423 -5 773 L-5 802 L14 802 Q50 802 212 650 L251 650 Q296 650 383 877 L364 877 Q232 811 137 811 L109 811 L109 896 Q161 896 411 1019 ZM629 802 L657 802 Q775 802 790 707 L790 688 Q790 659 685 659 Q685 679 572 716 Q572 731 553 754 Q577 802 629 802 ZM667 593 Q790 553 790 537 L790 527 Q790 487 705 394 Q781 312 781 262 L742 196 Q1568 -79 1906 -79 L1906 -116 Q1670 -173 1575 -173 Q1407 -137 733 92 L714 92 Q566 73 496 44 L468 83 L468 120 Q624 242 657 300 Q629 348 629 394 L629 414 Q554 394 516 394 L449 471 L449 517 L496 517 Q569 517 667 593 Z" /><glyph glyph-name="uni54DF" unicode="&#x54df;" d="M817 1189 L855 1189 Q950 1124 950 981 Q1053 894 1053 849 Q1053 800 912 613 Q945 613 1025 574 Q1014 535 855 433 L779 309 L788 309 Q949 432 1007 451 L1007 442 L665 26 L647 26 Q599 65 599 149 Q617 185 732 348 L713 348 Q703 348 609 262 L599 262 Q562 262 552 385 Q840 628 921 821 Q940 881 940 896 Q917 962 902 962 Q804 864 779 811 Q788 821 893 830 L893 802 Q613 569 543 489 L505 489 Q505 511 477 546 L477 613 L533 679 L354 613 Q363 575 363 508 Q332 489 306 489 Q217 548 126 811 Q113 811 98 839 L98 868 Q117 868 117 877 Q213 877 306 726 L325 716 Q386 716 467 915 L457 915 Q309 849 258 849 L249 849 Q212 849 212 944 Q279 944 477 1057 L495 1057 Q582 1057 637 934 Q633 892 514 745 Q539 698 552 697 Q817 988 817 1114 L817 1189 ZM1215 1171 L1233 1171 Q1310 1129 1356 1066 L1356 1057 Q1356 1022 1271 877 L1281 877 L1612 962 Q1801 906 1801 773 Q1801 625 1574 7 L1526 7 Q1233 238 1233 366 Q1373 291 1432 291 L1470 291 Q1593 422 1593 782 L1593 830 Q1593 841 1517 877 Q1365 811 1281 811 Q1281 849 1252 849 Q1108 659 996 659 L978 659 L978 669 Q1190 919 1205 1057 Q1195 1106 1195 1152 Q1198 1171 1215 1171 ZM1167 688 L1243 688 Q1361 688 1451 537 Q1426 474 1394 461 Q1262 461 1167 688 Z" /><glyph glyph-name="uni56FE" unicode="&#x56fe;" d="M1253 1502 Q1409 1502 1613 1303 L1669 1199 L1650 1123 Q1650 1092 1659 1076 Q1650 814 1650 641 L1650 234 Q1650 -305 1584 -305 Q1533 -305 1404 -126 Q1479 -126 1490 159 L1490 329 Q1490 442 1470 442 Q1225 442 1054 565 Q1029 609 893 745 L884 745 L439 414 L411 414 L411 111 Q411 30 439 -40 Q894 121 1083 121 Q1328 116 1328 64 Q1343 64 1366 26 L1366 -3 Q1272 7 1225 7 L1101 7 Q987 7 553 -97 L543 -97 Q457 -78 448 -78 Q468 -126 468 -154 Q444 -173 430 -173 Q240 -88 240 -40 Q231 -25 231 7 L231 36 Q231 635 279 1085 L288 1085 Q487 1041 487 934 Q458 819 411 442 Q449 442 789 811 L789 830 Q703 849 685 849 Q581 810 534 764 L515 764 Q496 764 496 783 L496 792 Q761 1028 761 1123 L818 1123 Q855 1108 855 1057 Q855 1021 770 915 L780 915 Q796 925 818 925 Q821 906 837 906 Q921 1006 921 1039 L903 1039 L903 1048 L912 1095 L988 1095 Q1005 1095 1073 1067 L1073 1028 Q1073 980 960 830 L960 811 Q1218 590 1480 527 L1480 537 Q1480 914 1385 1341 Q1328 1388 1272 1388 Q1041 1322 581 1142 L553 1142 Q458 1169 458 1199 L458 1218 Q1103 1502 1253 1502 ZM704 594 L827 594 L921 565 L921 452 Q893 452 798 404 Q798 527 742 527 Q742 546 704 546 L704 594 ZM770 357 Q887 338 997 310 L997 290 Q997 168 969 168 L921 168 Q840 235 770 329 L770 357 Z" /><glyph glyph-name="uni5728" unicode="&#x5728;" d="M1039 1458 L1086 1458 Q1158 1458 1304 1335 Q1398 1304 1398 1278 L1398 1231 Q1301 1174 1133 1108 Q1088 1025 868 701 Q897 521 897 407 L897 389 Q897 309 888 153 Q1171 188 1171 313 L1181 370 Q1113 361 1105 361 Q945 398 945 521 Q1094 606 1190 606 L1209 606 L1209 739 Q1209 767 1181 957 L1190 957 Q1418 866 1418 701 Q1543 701 1569 606 L1569 550 Q1569 524 1370 446 Q1341 303 1341 266 Q1408 294 1503 313 Q1729 238 1729 153 Q1708 153 1692 143 Q1568 153 1493 153 L1464 153 L973 77 Q889 86 868 86 Q888 44 888 -37 L888 -141 Q846 -207 783 -207 Q698 -180 698 -18 L698 418 Q370 25 121 -434 L102 -434 Q36 -434 36 -349 Q212 35 689 711 L689 720 L670 720 L670 796 Q670 843 812 881 Q812 893 840 976 L821 976 Q592 843 433 843 Q320 890 320 994 L320 1013 Q437 1004 443 1004 Q1039 1142 1039 1364 L1039 1458 Z" /><glyph glyph-name="uni5730" unicode="&#x5730;" d="M349 1199 Q510 1171 510 1114 Q473 935 473 877 L473 868 L510 868 Q573 868 681 840 L681 783 Q681 757 491 679 Q453 559 453 527 Q533 595 624 612 Q624 537 642 537 L709 537 Q800 537 822 688 L822 707 Q822 760 804 849 L879 849 Q955 802 955 717 L993 717 Q1116 742 1116 934 L1116 943 Q1097 1093 1097 1142 L1097 1161 L1154 1161 Q1277 1075 1277 1000 L1277 859 Q1483 972 1589 972 L1608 972 Q1630 972 1712 859 Q1617 627 1324 329 L1314 329 Q1201 334 1201 432 L1191 432 Q1160 432 1125 404 L1049 404 L1049 603 Q1000 603 946 546 L946 414 Q946 224 1277 224 L1504 224 Q1774 224 1844 575 L1882 575 Q1949 324 1949 177 L1949 168 Q1689 82 1570 82 Q1451 102 1428 102 Q1410 102 1362 82 Q1113 121 927 224 Q842 304 822 432 L718 432 Q652 477 596 489 Q350 178 302 -3 L264 -3 Q131 -3 103 177 L151 187 L217 187 Q293 264 293 338 L293 537 L283 537 Q173 470 141 470 Q49 470 -48 603 L-48 622 L-39 622 Q164 622 302 792 Q331 792 368 1095 Q378 1095 378 1133 L349 1133 L349 1199 ZM1182 527 Q1201 470 1257 470 Q1360 470 1476 840 Q1182 761 1182 546 L1182 527 Z" /><glyph glyph-name="uni573A" unicode="&#x573a;" d="M1337 1355 L1366 1355 Q1419 1355 1470 1147 L1470 1128 Q1373 1004 1186 920 Q1186 906 1158 891 Q1203 740 1460 740 Q1801 689 1801 636 Q1867 525 1867 484 Q1443 -159 1205 -159 L1110 -159 Q1049 78 912 78 L902 78 Q1328 492 1328 579 L1319 579 Q965 276 864 276 L817 276 L817 295 Q1167 587 1167 683 L1167 703 Q750 447 666 447 Q1051 753 1063 854 L1063 882 Q988 854 969 854 Q969 870 1262 1165 L1290 1204 L1271 1204 L902 1119 L893 1119 L846 1176 L846 1204 L902 1204 Q936 1204 987 1194 Q1312 1325 1337 1345 L1337 1355 ZM391 1232 Q562 1191 562 1081 L562 891 Q685 860 685 816 Q694 798 694 787 Q562 787 562 607 L552 513 Q736 646 770 646 Q770 628 562 399 Q349 144 335 144 Q269 144 221 229 Q232 305 269 305 Q287 295 297 295 Q411 380 411 504 Q420 561 420 646 L401 646 Q265 579 221 579 L212 579 Q131 579 32 674 Q429 851 429 891 L429 901 Q429 1093 344 1222 L391 1232 ZM1337 683 L1470 541 L1470 513 Q1470 388 1101 116 L1044 106 L1044 87 Q1044 42 1243 21 Q1707 427 1707 589 L1707 617 Q1543 683 1366 683 L1337 683 Z" /><glyph glyph-name="uni5747" unicode="&#x5747;" d="M1092 1307 L1120 1307 Q1262 1283 1262 1184 Q957 692 704 692 Q600 692 600 522 L600 456 L609 456 Q651 478 770 560 L789 560 L789 551 Q717 415 373 87 L345 87 Q331 87 278 153 L278 191 L429 304 Q458 389 458 418 L458 569 Q453 569 269 503 Q190 503 89 588 L89 607 Q470 770 477 787 L477 796 Q477 998 401 1137 L401 1146 L411 1146 Q502 1146 600 1052 L600 805 L619 805 Q733 805 733 721 Q1101 1088 1101 1232 Q1092 1299 1092 1307 ZM1508 1118 L1584 1118 Q1757 1118 1811 787 L1811 768 Q1705 -112 1489 -112 L1480 -112 Q1365 -112 1149 134 L1149 163 Q1345 144 1423 115 Q1499 175 1556 465 L1584 673 Q1584 933 1461 1033 Q1272 995 1196 995 L1196 1014 Q1338 1118 1508 1118 ZM1167 777 L1300 777 Q1366 777 1366 702 L1366 683 Q1170 607 1073 607 L1073 617 Q1073 651 1035 702 Q1083 777 1167 777 ZM1073 446 L1272 446 Q1319 418 1319 380 Q1319 361 1291 286 Q987 349 987 399 Q987 446 1073 446 Z" /><glyph glyph-name="uni578B" unicode="&#x578b;" d="M1462 1545 Q1651 1509 1651 1491 L1651 673 L1696 439 L1696 340 Q1696 306 1641 233 L1632 233 Q1495 333 1390 439 L1390 475 L1417 475 Q1525 488 1525 538 Q1525 739 1498 862 Q1507 888 1515 888 L1507 925 L1480 1446 Q1408 1468 1408 1491 L1408 1509 Q1426 1545 1462 1545 ZM805 1410 Q1022 1369 1022 1329 L1022 1266 L1013 1266 Q970 1266 805 1239 Q812 1218 931 1185 Q931 1153 1120 1078 Q1129 1061 1129 1041 Q1086 1014 1031 1014 Q1019 1014 940 1023 L914 979 L914 773 Q914 609 931 502 Q904 427 887 332 L833 332 Q743 468 743 565 Q761 809 761 870 Q761 961 725 961 Q652 961 562 898 Q572 818 572 799 Q518 304 203 304 Q157 304 150 332 Q410 495 410 637 Q455 765 455 870 L446 870 Q297 862 221 862 Q180 879 177 898 L177 916 Q455 955 455 1033 Q455 1055 438 1132 L509 1132 Q531 1069 590 1041 Q663 1068 725 1068 L743 1068 L743 1096 Q671 1160 671 1194 Q587 1176 536 1176 L519 1176 Q467 1176 410 1266 L410 1329 L428 1329 Q728 1329 805 1410 ZM1147 1239 L1156 1239 Q1298 1239 1345 1086 L1345 1068 Q1345 927 1291 754 L1220 754 Q1156 754 1156 1059 L1156 1176 L1129 1176 L1129 1222 Q1131 1239 1147 1239 ZM958 404 L1111 404 Q1156 383 1156 313 L1156 233 L1220 242 L1309 242 Q1333 242 1372 52 L1372 44 L1263 44 Q1174 44 1174 -19 Q1166 -109 1166 -154 Q1174 -154 1174 -163 L1651 -91 Q1651 -103 1750 -190 L1750 -234 Q1750 -264 1660 -280 Q1296 -253 1129 -253 Q769 -280 590 -343 Q575 -311 438 -253 L438 -244 L1013 -163 L1013 -46 L968 -37 L787 -37 Q698 -37 698 26 L698 34 Q698 49 887 107 Q1013 174 1013 332 Q958 365 958 376 L958 404 Z" /><glyph glyph-name="uni57DF" unicode="&#x57df;" d="M955 1526 L1030 1526 Q1085 1381 1153 1090 L1201 1053 Q1352 1084 1352 1090 Q1443 1069 1475 1033 Q1475 983 1220 911 Q1222 825 1409 541 Q1420 557 1428 637 Q1418 727 1409 740 Q1440 759 1466 759 L1494 759 Q1560 617 1560 532 L1551 475 Q1560 438 1560 409 L1522 286 Q1579 173 1702 2 L1711 2 L1731 116 L1759 116 Q1882 -228 1882 -329 L1825 -329 Q1606 -147 1485 116 L1475 116 Q1251 -73 1163 -73 L1153 -73 Q1055 -55 1049 -55 L1049 -7 Q1329 194 1343 239 Q1371 281 1371 305 Q1191 639 1106 854 Q1021 825 964 825 L936 825 L936 750 Q1106 738 1106 637 L1106 626 Q1106 572 1012 457 L1030 418 Q1012 387 1012 361 L1021 361 Q1143 418 1229 418 L1248 418 Q1311 372 1333 372 Q1314 311 1314 305 L1257 305 Q1174 305 548 87 L453 116 Q387 -22 311 -83 L235 -83 Q189 -55 189 -17 Q321 104 321 295 L321 523 L311 523 Q82 447 56 447 Q18 504 18 532 Q111 595 330 683 L330 948 Q333 996 349 996 Q330 1027 330 1053 L330 1128 L377 1128 Q446 1128 482 1015 L482 788 Q790 835 1049 977 Q982 1298 927 1298 L888 1327 Q955 1473 955 1526 ZM1172 1375 L1201 1375 Q1437 1351 1437 1232 L1437 1147 L1380 1147 Q1295 1223 1172 1375 ZM453 305 Q463 305 463 295 Q636 402 728 637 Q794 740 794 788 Q702 773 482 598 Q463 481 453 305 ZM803 485 L803 466 L822 466 Q993 574 993 665 L973 674 L945 674 Q874 674 803 485 ZM557 210 L557 201 Q803 286 803 305 Q794 305 794 315 Q762 295 737 295 L728 295 L737 343 L737 361 Q718 361 718 372 Q632 327 557 210 Z" /><glyph glyph-name="uni586B" unicode="&#x586b;" d="M1135 1535 L1145 1535 Q1215 1535 1305 1402 L1305 1374 Q1305 1298 1287 1213 Q1296 1213 1296 1204 Q1311 1213 1447 1222 Q1570 1204 1570 1147 L1570 1137 Q1551 1120 1230 976 L1210 929 Q1457 929 1457 797 Q1457 780 1475 749 Q1457 674 1457 569 L1457 258 L1589 258 Q1863 250 1863 201 L1863 172 Q1863 159 1835 144 L1608 172 Q1438 172 1438 59 L1438 -7 Q1438 -70 1655 -178 Q1712 -215 1712 -225 L1712 -339 Q1568 -312 1230 -7 L1333 -7 L1287 116 Q1050 57 1050 21 Q1097 -57 1097 -83 L1097 -102 Q922 -244 832 -244 L832 -235 Q936 -38 936 2 L927 2 Q682 -46 643 -46 L643 -26 Q656 5 917 87 L927 134 Q927 258 936 655 Q936 662 946 712 Q927 746 927 787 L936 787 L974 778 Q1040 805 1040 863 L1040 891 L1031 891 L652 834 L652 844 L634 872 L634 882 Q707 882 1125 1109 L1135 1128 L1135 1535 ZM341 1194 L350 1194 Q510 1135 510 1042 L510 854 Q634 825 634 787 L634 768 Q501 768 501 589 L501 484 L510 484 Q629 579 662 579 L662 569 Q410 270 293 144 Q198 188 198 248 Q387 324 387 475 L387 646 L170 569 Q151 569 37 636 L37 646 Q37 658 387 825 L397 844 Q397 995 341 1194 ZM1059 721 L1068 674 Q1175 702 1315 721 L1315 825 Q1296 863 1258 863 Q1066 759 1059 721 ZM1068 560 L1068 494 L1079 494 Q1243 532 1305 532 L1315 532 L1315 626 Q1158 598 1068 560 ZM1050 361 L1050 352 L1230 352 Q1282 352 1315 409 L1315 427 L1305 427 Q1050 427 1050 361 ZM1040 201 L1040 144 Q1071 144 1333 210 L1333 276 L1315 304 Q1055 245 1040 201 Z" /><glyph glyph-name="uni58EB" unicode="&#x58eb;" d="M931 1270 Q980 1270 1130 1156 Q1121 1156 1121 636 Q1244 636 1584 693 Q1774 601 1774 523 Q1774 503 1754 503 L1669 503 Q1489 503 1215 513 Q1111 494 1111 466 Q1111 436 1130 295 Q1092 213 1092 172 L1111 181 Q1326 192 1432 192 Q1555 111 1555 30 L1555 21 Q1555 2 1527 2 Q1307 59 1244 59 Q1043 59 600 -73 Q496 -9 496 59 L496 87 Q548 78 572 78 Q931 115 931 172 L931 181 L893 192 Q922 307 922 352 L922 437 L913 437 Q771 433 298 267 L288 267 Q218 267 127 380 L127 400 Q127 418 449 475 Q449 485 922 589 Q950 625 950 674 L950 873 Q950 894 959 910 L950 930 Q963 1097 969 1109 Q931 1168 931 1270 Z" /><glyph glyph-name="uni591A" unicode="&#x591a;" d="M874 1521 L952 1521 Q1044 1521 1059 1384 L1059 1364 L1147 1364 Q1226 1364 1313 1238 L1313 1229 Q1313 1161 1147 975 Q1245 975 1245 897 L1245 858 Q1157 739 1157 702 L1157 692 Q1245 712 1322 712 Q1478 671 1478 527 Q1363 250 797 -165 Q598 -331 494 -331 Q465 -293 465 -243 L465 -204 L474 -136 L494 -136 L504 -184 L524 -184 Q714 -78 1002 215 L1002 225 Q941 225 816 322 Q770 281 729 254 L718 254 Q670 279 670 332 L670 401 Q961 715 961 751 L943 751 Q816 716 816 634 L767 634 Q729 647 729 721 L729 751 Q1098 1111 1098 1199 L1098 1209 L1089 1209 Q973 1209 679 877 L592 868 Q543 956 543 984 L543 1024 Q665 1148 845 1267 Q884 1342 904 1404 Q874 1452 874 1481 L874 1521 ZM943 410 Q1042 292 1137 292 Q1138 308 1332 565 Q1332 576 1342 595 L1322 595 Q1162 595 943 410 Z" /></font>
</defs>
</svg>
